<?xml version="1.0" encoding="UTF-8" standalone="no"?>
<!-- Generator: Adobe Illustrator 15.0.0, SVG Export Plug-In . SVG Version: 6.00 Build 0)  -->

<svg
   xmlns:dc="http://purl.org/dc/elements/1.1/"
   xmlns:cc="http://creativecommons.org/ns#"
   xmlns:rdf="http://www.w3.org/1999/02/22-rdf-syntax-ns#"
   xmlns:svg="http://www.w3.org/2000/svg"
   xmlns="http://www.w3.org/2000/svg"
   xmlns:sodipodi="http://sodipodi.sourceforge.net/DTD/sodipodi-0.dtd"
   xmlns:inkscape="http://www.inkscape.org/namespaces/inkscape"
   version="1.1"
   id="svg3108"
   inkscape:output_extension="org.inkscape.output.svg.inkscape"
   sodipodi:docname="SH9-AL-map.svg"
   sodipodi:version="0.32"
   inkscape:version="0.48.0 r9654"
   x="0px"
   y="0px"
   width="685.15997"
   height="1001.783"
   viewBox="0 0 685.16 1001.783"
   enable-background="new 0 0 685.16 1001.783"
   xml:space="preserve"
   style="display:inline"><metadata
   id="metadata62"><rdf:RDF><cc:Work
       rdf:about=""><dc:format>image/svg+xml</dc:format><dc:type
         rdf:resource="http://purl.org/dc/dcmitype/StillImage" /></cc:Work></rdf:RDF></metadata>
<sodipodi:namedview
   id="base"
   pagecolor="#ffffff"
   showgrid="false"
   bordercolor="#666666"
   borderopacity="1.0"
   inkscape:zoom="0.6780818"
   showguides="true"
   inkscape:cx="194.46563"
   inkscape:cy="518.5718"
   inkscape:pageopacity="1"
   inkscape:pageshadow="2"
   inkscape:document-units="px"
   inkscape:current-layer="svg3108"
   inkscape:window-width="1600"
   inkscape:window-height="838"
   inkscape:window-x="-8"
   inkscape:window-y="-8"
   inkscape:guide-bbox="true"
   inkscape:window-maximized="1">
	</sodipodi:namedview>
<defs
   id="defs4">
	
	
		<inkscape:perspective
   id="perspective3116"
   inkscape:vp_z="744.09448 : 526.18109 : 1"
   inkscape:vp_y="0 : 1000 : 0"
   inkscape:vp_x="0 : 526.18109 : 1"
   sodipodi:type="inkscape:persp3d"
   inkscape:persp3d-origin="372.04724 : 350.78739 : 1">
		</inkscape:perspective>
	
		<inkscape:perspective
   id="perspective4476"
   inkscape:vp_z="744.09448 : 526.18109 : 1"
   inkscape:vp_y="0 : 1000 : 0"
   inkscape:vp_x="0 : 526.18109 : 1"
   sodipodi:type="inkscape:persp3d"
   inkscape:persp3d-origin="372.04724 : 350.78739 : 1">
		</inkscape:perspective>
	
		<inkscape:perspective
   id="perspective4781"
   inkscape:vp_z="744.09448 : 526.18109 : 1"
   inkscape:vp_y="0 : 1000 : 0"
   inkscape:vp_x="0 : 526.18109 : 1"
   sodipodi:type="inkscape:persp3d"
   inkscape:persp3d-origin="372.04724 : 350.78739 : 1">
		</inkscape:perspective>
	
		<inkscape:perspective
   id="perspective2631"
   inkscape:vp_z="744.09448 : 526.18109 : 1"
   inkscape:vp_y="0 : 1000 : 0"
   inkscape:vp_x="0 : 526.18109 : 1"
   sodipodi:type="inkscape:persp3d"
   inkscape:persp3d-origin="372.04724 : 350.78739 : 1">
		</inkscape:perspective>
</defs>
<g
   id="layer2"
   transform="translate(223.68613,372.92856)"
   inkscape:label="LandesflĂ¤che"
   inkscape:groupmode="layer"
   sodipodi:insensitive="true">
	<path
   id="polygon2831"
   d="m 25.775,-364.258 c -0.762,-0.021 -1.613,0.591 -3.007,1.164 0.155,0.292 -0.28,0.485 -0.486,0.582 -0.748,-0.118 -0.794,0.288 -1.939,-0.193 -0.189,0.099 0.373,1.481 -1.456,2.23 0.459,0.605 0.26,0.89 0.195,1.551 -1.847,0.127 -1.02,1.165 -1.746,1.649 -0.298,0.135 -0.693,0.202 -1.165,0 -0.615,0.515 -0.076,1.11 -0.678,1.454 -0.007,0.285 -0.289,0.448 0.097,0.97 0,0.596 0.523,0.957 -0.097,1.26 -0.436,0.044 -0.332,0.401 -1.358,0.098 h -0.97 c -0.369,-0.444 -1.003,-0.597 -1.552,-0.776 -0.422,0.21 -1.002,0.052 -1.455,0.292 -0.591,0.31 -0.529,1.049 -0.874,1.551 -1.686,2.458 -3.466,4.878 -5.238,7.274 -0.771,1.04 -1.917,2.159 -2.911,3.005 -0.918,2.53 -5.033,4.466 -3.783,7.371 -0.115,0.704 -0.359,1.394 -0.679,2.036 0.196,1.905 0.676,2.677 1.455,4.268 -0.142,0.716 0.37,0.872 0.388,1.261 -0.105,0.335 -0.154,0.646 -0.291,0.97 0.116,0.211 0.438,0.515 0.389,0.775 -0.454,0.968 -1.656,0.84 -2.425,1.164 -0.326,0.137 -0.234,0.666 -0.486,0.873 -1.428,0.541 0.406,0.731 -0.97,1.746 -0.845,0.621 -9.104,5.086 -9.991,5.042 0.235,0.36 -0.332,6.111 -0.68,6.691 -0.239,0.398 -0.546,0.565 -0.776,1.164 -0.422,0.381 -1.115,0.326 -1.552,0.679 -0.421,0.341 -0.46,0.813 -0.97,1.067 -0.276,1.043 -1.303,2.621 -1.843,3.588 -0.099,0.176 -0.248,2.04 -0.387,2.521 -0.591,0.608 -0.943,2.067 -1.456,2.425 -0.997,0.698 -3.279,1.936 -2.91,3.588 -0.357,0.496 -0.056,1.239 -0.388,1.648 -0.221,0.271 -3.461,1.081 -3.784,1.553 -0.267,0.744 -0.199,1.079 -0.97,1.551 -0.236,0.794 -0.194,3.298 -0.194,3.298 -0.174,0.23 -0.935,-0.271 -1.164,0 -0.861,1.024 -0.93,2.875 -1.359,4.073 -0.155,0.431 -0.45,0.756 -0.775,1.067 -1.453,1.378 -2.104,3.438 -3.007,5.14 -0.472,0.276 -0.588,0.311 -0.873,0.776 -0.867,0.425 -2.782,1.512 -3.589,1.649 -0.605,0.102 -1.543,-0.161 -1.94,0 -7.593,3.094 -5.502,8.71 -5.627,8.922 -0.515,0.869 -2.596,1.866 -2.522,2.425 0.178,1.29 0.157,3.065 0.486,4.267 0.263,0.953 1.279,1.703 1.164,3.005 -3.082,3.38 -6.563,6.554 -9.021,10.378 -0.633,0.983 0.504,3.387 -0.194,4.168 -2.647,2.971 -5.353,6.59 -7.081,10.184 -0.202,0.413 -1.397,3.029 -1.553,3.2 -5.758,6.426 -11.435,12.953 -17.072,19.492 5.109,4.646 10.769,8.892 16.103,13.286 4.711,3.882 9.311,8.37 14.259,11.929 -0.962,1.95 -4.27,8.722 -6.015,10.183 -0.021,0.387 0.249,0.715 0.388,1.066 -0.345,3.004 -1.111,2.684 0,5.722 -1.533,1.502 -1.659,3.839 -2.522,5.528 0.562,0.661 0.371,0.748 0.194,1.456 0.236,0.747 0.667,1.406 0.873,2.035 0.131,0.385 -0.871,3.572 0.583,5.82 2.253,1.12 1.161,1.924 0.776,3.587 -0.212,0.923 0,1.578 0,2.424 0,0.782 -1.262,2.269 -1.262,3.491 0,0.913 3.22,1.696 3.202,2.91 -0.497,3.371 -7.784,0.929 -9.41,3.2 -0.418,0.584 0.094,1.419 0,2.134 -0.117,0.897 -0.496,1.665 -0.388,2.618 0.285,2.52 5.822,3.634 5.335,6.207 -0.574,3.042 -7.616,2.217 -7.081,4.849 0.061,0.308 0.02,0.752 0.291,0.971 2.024,1.65 4.741,1.393 5.528,2.23 0.556,0.585 0.254,2.573 0.68,2.908 0.75,0.367 3.359,0.19 3.492,1.067 -0.034,0.534 -1.473,2.432 -1.746,3.007 -0.271,0.559 -0.028,3.044 -0.097,3.88 -0.103,1.268 -1.039,2.378 -0.68,3.685 l 0.389,0.679 0.873,0.291 1.164,-0.097 h 1.164 l 0.583,0.484 2.134,-0.873 3.687,-3.199 4.946,-0.292 5.529,1.26 8.924,2.231 8.149,2.813 0.678,0.388 5.627,2.813 2.23,1.648 6.402,5.044 2.425,0.776 0.873,-1.455 1.552,0.291 1.649,2.715 0.484,2.037 0.097,2.328 -0.873,4.751 -1.164,3.589 -1.261,0.388 -3.202,-0.777 -1.26,0.486 -0.776,2.812 v 2.327 l 0.97,2.813 2.425,4.365 0.777,3.491 0.097,3.685 -0.679,3.103 -1.456,3.201 -0.679,0.679 -1.358,1.455 0.098,4.365 -1.359,1.164 -0.485,1.26 0.097,0.873 0.97,0.291 -0.29,0.97 1.067,1.261 2.909,0.485 1.262,0.872 1.746,4.073 0.582,-0.679 0.388,-2.23 -0.291,-1.648 1.843,1.067 0.874,1.551 0.775,6.788 -0.678,1.164 0.291,0.486 -1.843,2.327 -0.389,-2.618 -1.261,-3.977 -0.776,0.291 -0.388,1.164 0.388,2.813 -0.583,2.812 -1.94,0.485 -1.551,-0.97 -1.261,0.388 -0.291,1.164 0.97,1.843 -0.873,2.037 -1.843,1.551 -0.776,0.679 -3.007,1.455 -2.814,0.582 -6.402,0.193 -6.787,-2.043 -2.911,-1.551 -3.589,-0.776 -0.873,0.291 0.096,0.97 1.746,3.297 0.486,4.364 0.581,1.067 6.306,2.909 3.783,0.872 1.552,0.97 0.97,2.62 0.484,2.327 -0.194,6.4 -2.037,6.4 -0.776,2.425 -2.329,3.879 2.039,-0.194 0.581,0.387 -2.426,3.685 -0.97,-2.424 -1.066,1.552 -6.402,4.169 -4.074,0.583 -0.485,1.067 0.582,1.066 2.038,3.104 0.194,1.454 -1.746,4.849 -1.455,1.746 -1.94,1.164 -2.328,0.291 -2.814,-0.678 -1.261,-0.776 -0.583,-1.843 -2.619,-2.037 -0.582,0.098 -0.195,0.582 1.455,2.521 1.067,0.583 1.068,2.327 2.813,1.844 1.261,2.908 -1.164,4.752 v 4.461 l 0.582,3.975 -0.097,3.007 3.298,3.201 0.098,2.23 4.171,2.037 0.484,-2.134 0.776,-0.292 6.403,0.679 2.813,2.618 1.066,0.874 2.716,3.879 2.716,6.207 0.583,3.297 -0.192,3.587 -3.007,7.564 -1.939,3.103 -1.747,2.23 -2.425,3.394 -0.873,5.043 -1.454,1.551 -0.292,1.164 0.389,2.134 -0.582,3.201 -1.843,3.006 -1.456,0.874 -3.297,-0.196 -1.165,0.679 -0.291,0.583 1.746,4.46 3.396,8.922 0.097,6.982 -0.486,4.559 -1.94,9.891 -0.583,2.619 -1.26,1.745 -2.91,2.619 0.194,0.969 0.388,0.971 2.911,0.581 2.716,2.036 1.746,-2.617 0.97,-0.292 0.874,0.582 -1.166,1.455 -0.193,1.357 0.873,1.164 1.553,0.679 1.066,1.357 0.389,3.783 -0.486,3.976 -1.067,4.655 -1.649,4.073 -2.716,2.716 1.164,1.163 -2.037,4.944 -0.097,1.263 2.23,-2.037 3.299,-8.825 1.746,-2.619 3.396,-9.503 0.97,-0.486 2.328,1.94 1.261,-0.387 0.776,0.775 1.261,7.758 0.679,0.679 0.389,0.389 0.581,5.043 -0.484,6.304 -0.97,1.453 -3.104,0.097 -1.456,2.23 -3.492,1.164 -1.358,3.008 -3.006,0.68 -0.485,-1.65 h -1.553 l -0.291,1.164 -2.037,-0.193 -1.359,2.617 -0.097,0.097 -0.97,0.776 -0.291,-1.647 v -0.098 l 0.581,-2.522 -0.484,-1.066 -2.232,2.91 0.777,1.261 -0.68,1.26 -0.776,-0.388 -0.484,-1.163 0.291,-3.491 0.193,-0.485 1.068,-3.104 2.23,-1.358 0.389,-0.969 v -3.782 l -1.166,-1.26 -3.104,0.097 -1.261,-1.261 v -0.97 l 0.776,-1.554 3.588,-0.386 1.456,-0.582 0.97,-1.165 -0.486,-0.581 -3.976,0.775 -2.037,0.873 -1.649,1.552 -1.455,4.849 -0.387,1.455 -2.522,0.581 -0.583,0.582 -0.776,0.292 -1.358,-0.776 -0.97,0.387 -0.776,1.067 -0.291,2.23 v 3.297 l 2.037,-0.871 3.686,1.551 1.94,2.617 1.067,3.784 0.485,2.521 -3.104,0.484 -0.388,0.581 0.291,1.164 -0.387,1.163 -0.098,3.298 1.164,1.746 -0.484,0.388 0.29,4.073 -0.485,1.648 -1.843,1.649 -5.433,2.715 -0.873,1.163 -0.679,5.043 v 7.855 1.94 l 0.582,4.073 -1.067,8.242 -0.388,2.327 -1.843,4.365 -2.522,4.752 -2.716,3.005 -1.747,0.776 -2.521,0.485 -1.262,1.357 -1.746,3.298 0.969,1.164 0.194,0.096 1.262,0.971 5.141,8.437 0.873,0.484 3.2,8.729 4.851,7.662 2.424,4.945 0.389,2.522 1.164,-0.293 v -2.424 -4.17 l 0.679,-3.976 1.164,-0.68 7.76,1.357 3.88,2.717 1.941,0.774 0.97,0.971 -0.97,6.207 1.648,4.073 -0.97,2.134 -0.097,2.424 -0.097,1.164 -1.164,4.364 -1.456,1.453 -2.037,-2.327 -2.328,-0.193 0.873,-0.97 -2.522,-2.813 -1.94,-3.492 -0.97,-0.193 -0.194,4.46 -0.679,0.291 -1.649,-1.26 -1.164,-2.036 -0.291,-2.425 -1.552,-2.23 0.776,-1.164 -0.486,-0.775 -0.679,0.291 -0.678,0.291 -0.679,1.357 0.97,2.134 1.649,1.454 -0.291,2.036 1.94,2.23 1.164,2.619 1.456,1.455 4.752,-0.097 3.395,5.914 3.007,3.881 4.559,3.103 1.844,1.262 2.909,2.036 0.582,0.388 0.776,1.843 -0.581,2.424 -3.202,5.916 -0.484,6.013 0.678,3.005 -0.387,2.62 0.582,2.424 -0.389,2.813 0.874,3.395 v 0.098 l -0.097,0.29 -0.387,1.357 -2.231,2.037 -0.098,0.097 -1.939,1.939 -6.404,3.88 -2.424,0.484 -1.456,-0.292 -1.552,-0.871 0.873,-1.649 -1.649,-1.648 -1.261,-2.425 -0.097,-7.467 -2.036,-5.527 -3.687,-5.334 -1.648,-2.327 -2.038,-1.65 -1.843,-2.812 -5.432,-3.977 -2.425,0.583 -2.23,-2.717 -0.776,-0.097 -2.91,1.746 -1.067,2.038 -3.299,1.26 0.291,0.872 3.881,2.812 0.582,1.747 1.262,1.454 5.819,6.788 4.559,7.854 1.843,2.426 2.038,8.631 1.26,2.036 v 0.582 l -1.552,0.388 -0.291,0.971 0.387,0.872 1.941,3.2 0.485,0.389 4.171,3.103 2.037,2.521 1.067,2.813 7.082,10.377 1.941,0.97 0.582,1.261 3.88,3.103 1.648,2.618 2.328,0.485 2.522,1.456 0.194,0.097 1.649,2.134 2.328,1.647 2.91,1.066 2.329,1.746 5.626,2.037 6.79,3.588 12.417,8.923 0.193,0.097 3.2,1.163 1.456,3.201 1.164,0.97 1.552,0.58 2.716,-0.58 5.82,1.842 1.746,1.065 0.097,1.65 2.716,0.388 0.582,1.453 1.552,-0.58 1.262,0.483 2.133,3.201 h 1.164 l 0.873,-1.455 1.941,1.358 0.678,1.649 -0.97,3.685 0.292,0.776 3.103,-0.39 0.777,0.486 1.26,4.848 1.068,1.65 0.388,-0.486 0.193,-3.491 h 0.97 l 3.007,1.552 0.874,2.426 1.842,1.647 -2.135,0.29 -0.678,1.263 1.067,1.261 0.679,0.097 0.679,-0.583 1.939,0.486 2.329,-1.843 1.552,-0.388 1.94,0.388 1.455,0.289 1.649,0.68 3.104,2.425 1.164,1.357 3.298,6.497 1.649,1.746 0.388,0.971 0.098,0.388 0.097,1.551 -0.292,2.23 0.582,1.359 1.94,2.327 0.291,2.617 2.232,2.425 0.775,2.328 0.583,0.968 3.491,5.529 0.098,5.333 -0.776,0.583 -1.455,-0.776 -1.456,1.552 -0.674,1.846 0.097,1.745 -0.873,0.292 -1.359,-0.389 -0.291,0.775 2.619,2.717 3.104,0.678 2.425,1.745 2.231,-0.192 1.551,0.483 0.776,2.328 0.873,0.387 1.166,0.485 0.971,1.164 0.677,0.195 1.455,0.289 0.292,1.359 3.298,1.55 h 1.649 l 0.388,-0.387 0.969,-0.873 1.068,0.194 1.164,2.521 1.066,5.43 -2.23,3.687 1.261,3.781 -0.583,2.133 -1.843,2.135 -0.483,2.23 -0.389,0.388 -1.552,1.261 -0.679,2.036 0.29,0.679 1.94,1.455 0.097,0.097 v 2.037 l -0.097,0.193 -2.91,3.88 -2.425,-0.097 -0.485,0.968 -0.582,4.852 0.29,1.453 1.165,1.26 h 0.874 l 2.23,-3.005 0.581,-0.194 0.486,0.582 -1.067,2.424 -1.164,0.291 -0.193,0.68 1.163,1.067 v 2.036 l -0.776,1.551 -2.521,5.722 0.873,1.746 -0.194,0.971 -0.194,0.969 0.874,2.812 1.843,0.194 2.134,-0.971 0.969,-0.483 0.68,0.193 0.486,0.098 c 0.673,-0.959 1.162,-0.516 1.454,-0.775 0.19,-0.162 0.419,-0.715 0.776,-0.776 0.654,0.049 0.945,0.355 1.745,0.29 0.652,-0.609 -0.504,-0.811 1.263,-1.646 0.189,0.013 0.921,0.208 0.872,0.483 -0.576,1.369 0.411,3.18 2.037,2.617 0.618,-0.213 0.777,-1.086 1.358,-0.387 0.275,0.807 4.353,0.922 4.754,1.163 0.768,0.47 1.721,2.142 2.909,2.91 0.211,0.14 1.504,-0.832 2.231,-0.776 1.198,0.094 2.622,3.055 3.007,3.978 1.099,0.474 1.093,0.785 1.939,1.356 0.346,0.078 0.712,-0.217 0.971,-0.097 2.345,1.104 4.34,6.21 10.186,3.782 1.854,0.493 3.713,1.914 5.529,2.327 0.903,0.205 2.043,-0.271 2.425,-0.193 0.667,0.136 1.433,1.146 2.134,1.356 1.636,0.507 4.66,-0.476 6.305,-0.677 0.292,0.061 0.484,0.234 0.776,0.289 4.246,-0.999 0.482,-3.644 -0.291,-6.304 0.261,-0.7 2.559,-3.745 3.104,-4.071 0.463,-0.848 -1.115,-0.904 0.195,-2.425 0.563,-0.212 1.026,0.117 1.552,0.29 4.259,1.399 1.998,1.511 4.269,3.006 0.272,-0.021 0.533,0.174 0.775,0.292 0.469,0.851 0.585,0.741 1.649,0.678 0,-0.929 -0.168,-1.977 -0.291,-2.908 -0.137,-1.017 0.336,-3.577 0.581,-4.753 3.633,-0.08 2.979,-4.534 4.366,-5.431 1.424,-0.92 3.639,-0.524 4.171,-0.871 0.811,-1.319 2.021,-2.25 2.813,-3.688 5.818,-2.094 1.602,-3.411 -0.873,-5.527 -0.845,-0.722 -0.204,-1.791 -0.775,-2.521 -1.013,-1.309 -2.551,-1.662 -3.007,-3.684 -0.593,-2.599 3.515,-2.938 3.685,-6.015 0.12,-2.104 -5.366,-6.281 -4.267,-7.758 0.607,-0.816 1.713,-1.003 2.425,-1.647 0.701,-0.64 0.474,-2.097 1.456,-1.746 1.139,0.123 1.89,1.702 2.717,2.134 3.436,0 1.167,0.064 3.975,0.776 6.196,1.563 4.443,1.604 8.635,5.527 0.837,0.781 3.162,2.278 4.268,0.775 1.249,-0.431 2.333,-0.077 2.23,-1.938 1.524,-2 4.526,-4.796 5.336,-7.08 0.224,-0.633 -0.565,-1.708 0,-2.813 -0.031,-0.466 0.313,-1.386 0.291,-1.454 -0.114,-0.406 -1.06,-1.459 -0.873,-1.94 0.191,-0.496 0.73,-0.765 0.97,-1.261 0.615,-1.272 -1.439,-2.417 -2.231,-3.395 -1.502,-1.865 -3.334,-4.675 -4.462,-6.788 -0.668,-1.24 -0.688,-2.7 -1.552,-3.977 -0.034,-0.117 0.456,-1.999 0.389,-2.521 -0.768,-0.466 -2.345,-0.66 -2.813,-0.971 -0.363,-0.236 -0.28,-1.109 -0.485,-1.453 -0.53,-0.883 -1.44,-1.576 -1.552,-2.619 -0.027,-0.271 0.024,-1.453 -0.389,-1.552 h -0.485 c -0.49,-0.158 -0.904,-1.406 -1.356,-1.552 -1.355,0.144 -3.923,-1.97 -4.561,-3.395 0.175,-1.048 1.844,-6.982 1.844,-6.982 -0.375,-2.836 -3.902,-5.588 -4.365,-6.498 -0.307,-0.604 -0.123,-1.391 -0.582,-1.938 -0.534,-0.64 -1.207,0.472 -1.94,-1.649 -0.366,-1.064 -0.651,-2.22 -1.066,-3.297 -0.041,-0.108 -0.334,-0.958 -0.193,-1.067 0.177,-0.143 2.796,-0.387 3.2,-0.387 1.81,0 3.816,0.295 5.626,0.484 0.357,0.037 6.002,0.619 6.5,0.484 0.896,-0.242 0.724,-1.219 1.745,-1.552 0.367,-0.12 2.786,-0.516 2.91,-0.58 0.251,-0.135 1.611,-3.715 1.552,-4.074 -0.174,-1.083 -0.631,-1.128 -0.29,-2.521 0.04,-0.165 1.689,-1.825 2.037,-2.23 v -0.389 c 1.105,0.077 1.137,-3.604 1.552,-3.975 0.062,-0.06 0.691,-0.909 0.679,-0.971 -0.044,-0.272 -0.824,-1.02 -0.971,-1.454 -0.188,-0.548 -0.17,-1.266 -0.387,-1.746 0.416,-1.461 2.845,-2.147 2.618,-3.881 1.533,-0.293 7.023,-4.277 8.439,-3.877 0.133,-0.322 0.754,-0.472 1.068,-0.583 0.284,0.19 0.645,0.163 0.97,0.195 1.393,0.114 0.981,0.813 1.746,1.647 0.434,0.119 0.854,0.647 1.163,0.971 0.704,0.231 3.822,0.701 3.978,0.776 2.232,-1.499 1.475,-0.215 2.521,-2.717 1.686,-0.688 2.461,-1.65 2.912,-3.395 h 0.192 c 0.152,0.422 0.531,0.534 0.873,0.777 -0.087,0.261 0.969,0.334 1.164,0.387 0.599,0.162 1.169,0.638 1.843,0.873 0.202,0.072 5.358,3.963 5.529,4.171 0.549,-0.094 1.027,-0.429 1.552,-0.583 1.093,-0.322 3.188,-0.067 4.462,-0.29 1.567,-0.276 3.196,-1.351 4.852,-1.649 0.506,-0.091 0.993,0.515 2.036,0 0.124,-0.062 3.595,-3.892 4.947,-4.267 0.034,-0.162 -0.111,-0.711 0,-0.775 0.268,-1.356 3.511,-1.261 4.269,-0.776 l 0.291,-0.581 c 0.302,-0.134 2.359,0.204 3.201,0 1.694,-0.413 3.459,-2.321 4.947,-2.327 0.412,0.186 0.745,0.495 1.163,0.678 0.503,0.369 0.309,-1.463 0,-1.647 -0.074,-0.808 -0.001,-1.349 0.583,-1.941 0.083,-0.297 0.005,-2.847 -0.097,-3.199 -0.09,-0.322 -0.577,-0.697 -0.292,-1.358 0.077,-0.385 -0.231,-1.204 -0.582,-1.648 0.305,-0.435 1.185,-1.755 1.357,-2.23 0.051,-0.137 0.216,-0.764 0.486,-0.678 0.208,-2.231 0.646,-2.769 2.426,-4.171 0.057,-0.183 0.478,-1.155 0.483,-1.261 -0.273,-0.587 -0.656,-0.752 -1.357,-1.357 -0.617,-0.742 -1.577,-1.17 -2.328,-1.843 -0.013,-0.764 -1.622,-1.849 -0.583,-2.91 0.104,-0.421 -0.221,-0.845 -0.194,-1.261 0.068,-1.035 0.97,-1.853 1.262,-2.716 0.034,-0.099 -0.375,-1.057 -0.775,-1.356 0.049,-1.642 1.072,-1.107 2.037,-1.455 0.229,-0.08 0.862,-1.099 1.164,-1.261 1.548,-0.834 2.702,-0.23 4.073,-1.454 0.404,-0.36 1.11,-3.023 1.359,-3.59 0.479,-1.092 3.158,-2.083 2.91,-4.558 -0.021,-0.18 -0.795,-1.07 -0.874,-1.55 -0.065,-0.414 0.114,-1.921 -0.194,-2.23 -0.093,-0.336 0.984,-2.376 0.292,-4.074 0.127,-0.42 0.324,-0.842 0.194,-1.261 -0.177,-0.571 -5.713,-1.51 -2.426,-8.243 -0.109,-0.446 0.01,-0.924 0.098,-1.356 1.424,-1.295 3.576,-3.098 4.656,-4.56 0.313,-0.419 0.138,-3.039 0.581,-3.782 1.213,-2.044 1.694,-0.516 2.135,-0.872 0.385,-0.312 1.197,-0.591 1.454,-0.97 0.196,0.146 0.341,0.342 0.582,0.389 1.05,-0.716 1.29,0.021 1.746,-1.553 0.388,-0.418 1.646,-0.829 1.844,-1.261 0.005,-0.081 -1.494,-2.93 -1.746,-3.2 0.013,-1.314 2.839,-5.302 4.56,-5.528 h 0.775 c -0.006,0.01 -0.887,-0.598 -0.679,-2.618 0.154,-0.053 0.395,-0.142 0.484,-0.291 1.161,0.385 3.003,-0.929 3.2,-2.036 0.058,-0.295 -0.387,-0.591 -0.387,-0.97 0,-1.142 0.483,-4.295 0.776,-5.431 -0.516,-1.356 -2.523,-8.084 0,-8.146 -0.687,-1.056 0.43,-1.108 -0.39,-2.036 -0.784,-0.885 -2.438,-4.456 -0.29,-4.85 0.152,-0.124 0.348,-0.327 0.583,-0.679 0.822,-0.733 1.336,-0.865 2.23,-1.356 0.993,0.873 1.727,-1.639 2.909,-1.457 0.339,0.159 0.968,0.722 1.165,0.777 l 1.261,-0.583 c 0,-0.399 -0.265,-1.799 -0.098,-2.035 0.222,-0.256 1.023,-0.716 1.359,-0.97 0.365,-1.546 0.96,-2.614 1.261,-4.268 -0.115,-0.164 -0.16,-0.386 -0.194,-0.582 0.317,-0.868 0.955,-1.842 1.648,-2.908 0.015,-0.829 0.156,-1.038 0.874,-1.554 0.182,-0.873 0.637,-1.327 1.261,-0.387 h 2.038 c 1.048,0.434 1.461,1.46 2.23,1.844 0.524,0.257 1.332,0.203 1.647,0.773 h 0.583 c 0.18,-0.203 0.81,-0.646 0.583,-0.969 0.878,-0.152 1.697,0.097 2.328,0 1.033,-0.156 0.229,-1.273 2.425,-0.098 0.378,0.028 0.6,-0.403 0.971,-0.388 0.26,0.143 0.458,0.398 0.774,0.388 0.51,-0.221 0.814,-0.979 1.649,-0.388 0.191,0.214 1.219,0.616 1.261,0.874 l 0.777,0.097 c 0.447,0.417 0.176,1.082 0.387,1.551 1.155,-0.263 0.872,0.785 1.455,1.164 0.087,0.059 1.068,0.019 0.873,0.388 0.205,0.014 0.399,-0.091 0.581,-0.192 0.172,0.133 0.46,0.208 0.681,0.192 0.385,-0.214 1.943,-0.737 2.133,-0.969 0.677,0.561 1.156,-0.615 1.941,-0.291 0.431,-0.36 0.885,-0.598 1.356,-0.873 0.188,-0.108 0.459,-0.011 0.583,-0.194 -1.617,-0.968 0.802,-4.535 1.26,-4.85 2.265,-0.468 2.21,-2.609 2.136,-4.654 -1.895,-0.484 -0.983,-5.623 -0.194,-6.595 0.796,-0.978 0.652,0.837 2.038,-0.193 0.133,-0.308 0.229,-0.639 0.29,-0.971 1.018,-0.764 4.178,-3.271 5.336,-3.587 0.557,-0.503 0.22,-1.544 -0.291,-2.425 0.123,-0.394 1.276,-1.013 0.872,-1.359 0.187,-0.815 0.897,-1.031 0.776,-2.133 l 0.679,0.194 c 0.864,0.615 0.998,-1.423 2.91,-1.357 0.293,0 0.938,-0.248 1.066,-0.098 l 0.68,0.389 c 0.258,0.146 1.63,0.121 1.94,0 0.399,-0.521 2.227,-0.972 2.134,-1.261 -0.193,-0.298 -0.101,-0.504 -0.194,-0.774 0.155,-0.263 0.176,-1.48 0.194,-1.845 0.574,-0.405 1.509,-1.813 0.775,-2.424 l 0.194,-1.066 c -0.661,-2.296 -2.845,-4.42 -0.194,-5.528 0.19,-0.931 0.432,-1.8 0.68,-2.715 -0.167,-0.162 -0.365,-0.396 -0.583,-0.485 0.591,-1.593 -0.12,-1.7 -0.388,-3.104 1.161,-0.613 1.698,-0.736 3.008,-0.969 -0.058,-2.395 -1.077,-4.32 -1.163,-5.916 -0.168,-3.093 0.91,-7.352 1.356,-10.473 -1.048,-1.316 -2.571,-3.169 -3.298,-4.656 -1.93,-3.94 -3.842,-7.48 -6.596,-10.86 -0.362,-0.447 -1.796,-1.696 -2.037,-2.23 -2.142,-2.213 -4.863,-2.564 -6.499,-5.141 -0.515,-0.812 0.66,-2.654 0.29,-3.685 -0.248,-0.684 -0.151,-3.859 -0.775,-4.171 -0.239,-0.118 -1.852,0.067 -2.23,-0.097 -1.088,-0.468 -1.357,-1.83 -2.329,-2.23 -0.454,-0.189 -2.026,-0.205 -2.036,-0.388 2.539,-0.245 7.178,-5.388 7.178,-7.855 v -9.697 c 0,-5.344 -2.71,-19.826 -1.165,-23.566 -0.096,-0.555 -1.326,-1.464 -1.746,-1.841 -1.188,-1.074 -0.216,-3.523 -2.91,-2.62 -0.699,-0.607 -2.505,-3.63 -3.491,-3.879 -0.328,0.004 -0.76,0.073 -1.067,0.193 -1.114,-2.051 -2.79,0.484 -3.88,0.484 -1.019,0 -1.771,-0.622 -2.715,-0.871 -0.833,0.536 -1.104,1.603 -1.068,2.521 -2.803,-0.77 -2.862,-0.259 -5.044,-2.424 -3.433,-0.596 -7.948,-3.053 -11.059,-4.655 -0.885,1.238 -4.791,6.454 -4.946,7.953 -0.059,0.583 0.271,2.177 -0.389,2.617 l -0.097,0.097 -0.68,0.291 -0.582,0.39 -3.104,2.036 h -0.775 l -2.619,-0.776 -0.971,-0.485 -0.484,-0.194 -1.164,-0.29 -0.679,-0.097 h -0.292 l -0.29,0.192 -1.26,-0.482 -0.099,0.097 -3.104,0.386 -0.776,0.097 -1.066,-0.482 -0.68,-0.777 -0.776,-0.097 -3.88,-1.939 -0.097,-0.194 -4.172,-15.322 -3.2,-12.898 -0.485,-2.813 -7.663,-25.989 -9.409,0.29 -0.582,-0.387 -0.389,-0.099 -2.036,-0.193 -4.462,-0.871 -0.485,-0.099 c -0.385,-0.079 -0.798,-0.15 -1.165,-0.29 -0.529,-0.869 -0.464,-1.722 -0.774,-2.619 -0.51,-1.486 -2.007,-2.128 -2.522,-3.686 -0.171,-0.53 0.272,-1.488 0.873,-1.454 0.018,-0.313 0.298,-0.547 0.484,-0.776 v -0.581 l 0.291,-0.291 v -0.194 l -0.291,-0.291 v -0.291 c 0.321,-0.261 1.622,-0.827 2.134,-1.067 0.789,-0.656 -0.714,-2.253 -0.776,-2.715 0.491,-0.727 0.219,-0.772 -0.678,-1.065 -0.025,-0.11 -0.104,-0.317 0,-0.389 0.133,-1.256 -1.818,-2.826 -1.845,-2.909 -0.598,-2.266 0.606,-1.672 -1.163,-3.687 -0.483,0.022 -0.748,-1.253 -1.068,-1.55 0.236,-0.292 -1.143,-1.106 -1.26,-1.261 l 0.097,-0.29 c 0.097,-0.879 -2.324,-3.409 -2.813,-4.074 -0.164,-0.174 0.301,-0.521 0.388,-0.679 0,-0.407 -0.065,-0.831 0.195,-1.164 -0.153,-0.417 -0.163,-0.93 -0.485,-1.262 v -0.387 c -0.083,-0.755 -0.994,0.293 -1.263,0.678 -0.415,-0.133 -1.219,-0.909 -1.454,-0.775 -0.236,-0.442 -0.693,-1.171 -1.261,-1.164 l -0.292,0.097 v 0.582 l -0.97,-0.195 c -0.15,-1.334 -2.305,-1.565 -1.357,-3.587 -0.236,-0.466 -0.935,-2.511 -1.067,-3.104 -0.503,-0.201 -1.607,-1.185 -1.164,-1.843 -0.45,-1.368 -0.561,-1.346 -1.358,-2.23 -0.019,-0.298 -0.34,-0.53 -0.581,-0.678 -0.071,-0.205 0.233,-2.713 0.29,-2.813 -0.602,-0.524 2.28,-1.997 0.583,-2.91 l -0.097,-0.484 c -0.188,-0.31 -0.987,-1.804 -1.068,-2.134 0.175,-0.494 -0.153,-0.854 0.292,-1.357 l -0.292,-0.097 c -0.543,-0.78 -0.877,-4.173 -0.971,-5.237 -0.13,-1.537 2.652,-2.469 -0.29,-4.17 -0.224,-0.435 -0.971,-3.091 0,-3.103 -0.016,-0.265 -0.065,-0.615 0,-0.873 l -0.679,-0.679 0.097,-0.291 h -0.097 c 0.385,-3.104 -1.235,-2.947 -1.94,-5.334 -0.177,-0.614 0.296,-1.331 0.097,-1.843 -0.192,-0.335 -0.672,-0.629 -1.066,-0.582 -0.24,-0.149 -0.886,-0.98 -0.971,-1.26 l 0.583,-0.194 c 0.03,-0.807 1.013,-0.781 1.357,-1.649 -0.143,-0.099 -0.301,-0.236 -0.387,-0.388 -0.125,-0.643 -0.285,-1.769 0.29,-2.23 l 0.97,-0.097 c 0.786,0.521 1.43,1.129 2.231,1.648 0.096,0.356 1.138,1.804 1.454,1.649 l 0.874,-0.485 c 0.131,-1.111 1.116,-1.228 1.454,-1.94 0.038,-0.337 0.083,-0.637 0,-0.969 l 0.194,-0.389 -0.097,-1.841 c 0.691,-0.494 1.872,-0.875 2.426,-1.359 0.111,-0.208 0.193,-0.541 0.193,-0.775 -0.158,-0.227 -0.219,-0.498 -0.193,-0.777 0.254,-0.344 0.904,-1.587 1.067,-1.746 0.663,-0.208 1.035,-0.571 1.163,-1.26 0.221,-0.146 0.421,-0.232 0.679,-0.291 0.429,-0.522 0.976,-1.22 0.874,-1.94 -0.283,-0.639 -1.313,-0.938 -1.553,-1.648 -0.04,-0.193 0.978,-0.713 1.165,-1.358 l 0.193,-1.067 c 0.232,-1.102 0.258,-2.031 0.97,-3.006 0.521,-0.23 1.053,-0.375 1.553,-0.679 l -0.485,-3.104 -0.583,-0.484 0.098,-0.873 c -1.564,-0.688 -3.167,-2.429 -4.656,-3.395 0.394,-0.828 0.625,-1.955 0.194,-2.811 -0.122,-0.157 -0.38,-0.281 -0.873,-0.099 l -1.455,-0.096 -0.582,0.096 c -0.01,-0.22 -0.334,-0.152 -0.485,-0.193 l -0.194,-0.388 -0.484,-0.193 -1.262,0.484 c -0.247,-0.015 -0.68,-0.406 -0.775,-0.387 -0.146,0.025 -0.216,0.314 -0.486,0.194 -0.25,-1.456 -1.083,-1.357 -1.26,-2.134 -0.249,-1.068 0.887,-1.206 1.066,-2.134 l -0.289,-0.581 v -0.292 l -0.681,-0.581 c -0.249,-0.646 -0.992,-3.635 -1.455,-3.977 -0.227,-0.573 0.267,-2.273 -0.097,-2.909 0.121,-0.199 -1.29,-3.3 -1.456,-3.686 -1.176,-2.765 -2.492,-1.379 -3.492,-2.133 l -0.388,-0.969 c -0.272,-0.214 -0.521,-0.37 -0.872,-0.292 -0.611,0.357 -1.299,1.055 -2.037,0.389 -0.727,-1.239 1.5,-2.319 2.037,-3.201 -0.373,-1.643 -4.539,0.5 -5.918,-2.522 0.029,-0.607 -0.067,-0.83 -0.291,-1.358 0.164,-3.564 3.759,-2.926 4.656,-3.587 0.682,-1.738 0.275,-1.744 -0.097,-3.782 -0.221,-0.118 -0.68,-0.807 -0.68,-1.067 -0.092,-0.136 -1.131,-0.338 -1.357,-0.389 -0.283,-0.207 -0.107,-0.618 0,-0.874 -0.021,-0.421 -0.887,-0.225 -1.066,-0.387 -1.273,-1.135 1.268,-2.174 2.037,-2.521 0.32,-0.146 0.662,-0.28 0.969,-0.485 0.966,-0.065 1.908,0.221 2.91,0.097 0.265,-0.033 0.601,-0.184 0.873,-0.097 0.178,0.168 0.438,0.348 0.68,0.389 1.853,-1.555 2.692,-0.913 4.074,-1.649 1.48,-0.788 1.88,-0.072 3.395,-0.097 l 1.067,-0.776 h 0.581 c 0.695,-0.782 4.064,-3.862 4.561,-4.072 0.285,-0.118 1.03,0.564 1.94,-0.776 3.683,-0.028 0.018,-4.478 0.678,-5.722 0.755,-1.417 -0.156,-2.098 -1.357,-2.813 -0.364,-0.899 0.05,-1.941 -0.291,-2.618 -0.276,-0.541 -0.955,-1.008 -1.357,-1.843 l 0.581,-0.291 c 0.578,-1.03 -3.326,-4.042 -4.559,-4.365 -0.084,-0.108 -0.195,-0.354 -0.195,-0.483 0,-0.467 0.597,-0.9 0.68,-1.358 0.243,-1.282 -0.237,-2.472 -0.194,-3.686 -0.148,-0.571 -2.695,-2.829 -2.521,-3.395 1.195,-1.43 3.409,-7.189 3.299,-8.825 -0.013,-0.155 -0.273,-0.234 -0.389,-0.291 -0.373,-1.508 0.185,-3.428 -0.291,-4.946 -0.589,-1.881 -2.516,-2.628 -2.813,-5.14 -0.413,-0.354 -0.53,-0.686 -0.194,-1.164 -0.29,-0.413 0.008,-1.887 0.097,-2.424 0.272,-0.292 0.597,-0.384 0.874,-0.679 0,-5.562 0.16,-4.962 2.716,-9.989 0.492,-0.971 1.744,-1.071 1.552,-2.424 -0.252,-0.345 -1.086,-0.743 -0.971,-1.261 0.342,-0.631 2.032,-0.97 2.717,-0.874 1.235,-0.742 1.211,-2.097 0.873,-3.394 2.334,0.239 7.104,3.317 6.5,-1.164 -0.078,-0.583 0.477,-1.11 0.386,-1.456 -2.179,-1.679 -0.814,-4.146 -1.843,-6.302 -0.462,-0.975 -1.181,-1.331 -1.745,-2.134 -0.071,-1.863 1.101,-4.321 1.066,-6.208 -0.046,-2.846 -1.498,-5.292 -0.581,-8.438 1.377,0.022 1.696,-0.84 2.522,-1.648 1.654,-0.807 4.234,0.844 5.916,0 0,-4.261 -3.761,-9.713 -5.142,-13.868 l 2.037,0.097 c 2.384,-1.646 1.588,-5.509 5.82,-3.976 0.548,-0.735 0.506,-1.488 1.456,-2.038 0.347,-0.198 1.036,-0.43 1.26,-0.775 1.388,-2.129 3.009,-10.368 1.553,-12.51 -1.316,-1.94 -2.574,-1.971 -3.589,-5.043 -0.503,-1.521 0.303,-4.431 -1.261,-5.818 -0.14,-0.794 -0.267,-2.175 -0.776,-2.812 -0.208,-0.264 -1.011,-0.694 -1.067,-0.97 -0.078,-0.369 -0.383,-5.328 -0.194,-5.721 -1.392,-3.905 -5.957,-6.145 -6.305,-6.691 -0.586,-0.926 -1.163,-2.115 -1.746,-3.104 -0.714,-1.207 -0.765,-1.825 -1.163,-3.007 -0.177,-0.527 -0.921,-0.967 -0.971,-1.55 -0.078,-0.997 2.724,-3.043 2.619,-4.85 -0.019,-0.366 -1.762,-2.394 -1.455,-3.298 0.351,-1.03 2.205,-3.294 2.135,-4.461 -0.084,-1.43 -2.851,-4.768 -3.202,-6.303 -0.175,-0.76 1.065,-1.416 0.776,-1.939 -0.467,-0.847 -3.137,-3.152 -3.687,-4.074 -0.342,-0.571 1.053,-1.354 0,-2.424 -0.922,-0.935 -0.093,-0.558 -0.389,-1.358 -0.331,-0.905 -1.329,-1.734 -1.746,-2.716 -0.354,-0.829 -2.896,-9.839 -2.813,-10.376 -0.438,-0.646 -1.188,-1.137 -1.553,-1.746 -0.374,-0.633 -0.458,-1.861 -0.775,-2.328 -0.053,-0.081 -2.858,-0.835 -3.395,-1.648 -0.389,-0.586 -0.473,-2.893 -1.165,-3.976 -0.341,-0.533 -0.944,-0.453 -1.357,-0.775 -0.441,-0.348 -0.3,-0.864 -0.581,-1.262 -0.876,-1.237 -2.437,0.02 -3.591,-4.266 -1.493,-1.062 -2.933,-2.009 -4.267,-3.298 -0.246,-0.235 -0.356,-0.533 -0.679,-0.679 -1.025,-0.456 -2.573,-0.479 -3.493,-1.261 -0.549,0.018 -3.213,-0.086 -3.589,-0.291 -0.326,-0.178 -0.6,-1.42 -0.775,-1.455 -1.47,-0.283 -3.886,-0.171 -5.143,-1.26 -1.003,-0.869 -1.137,-5.036 -2.91,-4.462 -0.198,-0.115 -0.452,-0.131 -0.679,-0.097 -1.04,-1.365 -9.286,-2.769 -8.439,-3.491 0.261,-0.609 0.079,-1.297 0.098,-1.94 -0.845,-0.832 -1.326,-1.858 -2.037,-2.521 -1.093,-0.254 -1.024,-0.571 -1.844,-1.067 -2.511,-0.184 -2.911,0.175 -4.559,1.745 -0.41,0.395 -1.226,0.485 -1.746,0.776 -0.885,0.49 -1.105,2.1 -2.328,1.357 -0.392,-0.236 -0.724,-0.68 -1.067,-0.97 -0.714,-0.598 -1.097,-0.228 -1.454,-1.357 -2.123,-1.161 -7.993,2.796 -9.41,0 -0.978,-0.528 -1.699,0.156 -2.521,-0.679 -0.39,-0.394 1.099,-5.255 -3.104,-7.177 0.984,-0.787 1.973,-1.316 2.909,-2.037 0.246,-0.506 0.008,-1.312 0,-1.842 -0.012,-0.813 0.487,-2.374 0.292,-3.007 -0.18,-0.578 -0.731,-1.01 -0.97,-1.649 -0.242,-0.642 0.059,-1.542 -0.29,-2.328 -0.296,-0.195 -1.016,-0.688 -1.36,-0.678 -1.073,-0.894 -2.234,-1.526 -3.103,-2.619 -0.203,-0.258 -0.403,-0.678 -0.68,-0.872 -0.72,-0.519 -3.329,-1.312 -3.201,-2.522 0.043,-0.409 0.646,-0.396 0.776,-0.775 0.167,-0.488 0.065,-1.121 0.388,-1.552 1.164,-1.573 3.846,-0.948 3.395,-3.976 -0.133,-0.888 -1.65,-4.61 -2.327,-5.238 -2.58,-0.22 -2.335,-2.894 -3.202,-3.491 -0.639,-0.441 -2.913,-1.086 -3.103,-1.552 -0.819,-2.041 1.537,-2.244 1.357,-3.2 -0.289,-1.56 -2.343,-2.553 -3.299,-3.491 -0.478,-0.469 -0.479,-1.336 -0.678,-1.938 -0.292,-0.892 -0.079,-1.73 -0.486,-2.717 -0.738,-0.772 -1.767,-1.196 -2.425,-2.133 -0.18,-0.251 -0.586,-1.512 -0.776,-2.037 0.584,-0.449 0.168,-1.243 0,-1.841 -0.362,-0.36 -1.104,-0.253 -1.357,-0.486 -2.518,-2.305 -5.533,-3.276 -8.73,-4.558 -0.875,-0.351 -0.647,-1.013 -1.357,-1.357 -1.261,-0.612 -2.61,-0.702 -3.784,-1.649 -0.707,-0.571 -1.723,-0.545 -1.843,-0.678 -0.13,-0.14 -0.892,-2.468 -1.261,-3.104 -0.223,-0.388 -1.276,-0.96 -1.261,-1.261 0.131,-2.644 -3.223,-3.175 -5.141,-3.491 -0.36,0.168 -2.354,-0.683 -3.009,-0.776 -0.244,-0.034 -1.299,2.223 -1.356,2.328 -0.135,0.248 -0.446,0.431 -0.582,0.679 -1.403,0.606 -3.06,0.728 -4.463,1.358 -0.522,0.235 -0.778,0.801 -1.456,0.874 -0.726,0.074 -1.41,-0.348 -2.133,0 -0.493,0.645 -0.353,1.185 -0.582,1.938 0.716,2.521 0.515,1.619 -0.389,3.686 -0.059,1.031 -1.352,5.219 -2.521,5.334 -1.372,-0.746 -7.633,-2.085 -8.537,-0.388 -0.227,0.131 -3.69,-0.38 -3.88,-0.485 -0.48,-0.711 -0.823,-0.548 -1.552,-1.358 -0.711,-0.527 -1.305,-1.23 -2.133,-0.194 -0.45,0.093 -0.909,0.167 -1.359,0.292 -0.173,0.52 -5.018,3.219 -6.111,2.909 -0.117,-0.124 -0.296,-0.183 -0.582,0.097 0.189,0.553 -0.062,1.005 -0.388,1.456 0.016,0.934 0.344,2.155 0.292,3.005 -0.022,0.351 -2.03,2.553 -2.232,2.522 -2.274,-1.72 -2.725,-3.837 -5.044,-3.297 -0.254,0.431 -0.257,1.133 0,1.551 -0.236,0.167 -0.58,0.058 -0.776,0.29 -0.176,0.364 0.025,1.012 -0.097,1.456 -3.082,2.104 -1.695,0.304 -4.753,0.484 -0.481,0.356 -0.352,1.664 -1.358,1.553 -0.58,-0.067 -1.18,-0.146 -1.745,-0.292 -1.599,-0.416 -0.836,1.146 -0.583,1.746 -0.164,0.472 -1.474,2.354 -1.843,2.618 -0.484,-0.021 -1.823,-0.65 -2.425,-0.873 -0.481,-0.157 -1.027,-0.318 -1.456,-0.582 -1.04,-1.351 -4.366,-3.049 -6.013,-3.783 -0.801,-1.575 -1.957,-2.99 -2.814,-4.558 -4.919,-1.734 -4.933,-2.434 -5.14,-7.661 -0.243,-0.259 -0.395,-0.712 -0.389,-1.066 -0.173,-0.261 -0.49,-0.461 -0.776,-0.582 -0.159,-0.658 -0.642,-0.973 -0.678,-1.649 -0.021,-0.332 0.424,-0.436 0.291,-0.678 -0.108,-0.125 -0.791,-1.239 -1.456,-1.164 0.009,-0.541 0,-1.051 -0.484,-1.358 0.052,-0.794 -0.626,-1.025 -0.583,-1.552 0.121,-1.427 0.812,-0.902 1.261,-1.551 0.56,-0.807 -0.066,-0.711 0.194,-1.552 -0.187,-0.273 -0.152,-0.668 -0.097,-0.969 0.167,-0.116 0.254,-0.226 0.388,-0.583 0.276,-0.701 1.286,-1.687 0.776,-2.521 -1.227,-0.609 -2.064,-3.006 -0.291,-3.588 -1.019,-1.822 1.483,-0.336 1.843,-1.165 0.182,-0.32 0.59,-0.589 1.26,-0.388 0.705,-0.139 1.767,0.4 2.426,0 0.139,-0.258 0.05,-0.647 0.097,-0.97 0.115,-0.391 0.033,-0.729 -0.194,-1.067 0.487,-1.883 -3.799,-5.338 -3.783,-5.915 l 0.195,-0.971 c -0.346,-0.391 -1.542,-0.704 -2.135,-1.164 0.043,-0.673 0.171,-1.397 0.388,-2.037 -0.462,-1.104 -1.5,-1.876 -0.582,-3.297 0.335,-0.512 1.64,-1.055 1.649,-1.842 0.016,-1.44 -4.072,-1.633 -4.947,-2.425 0.063,-0.359 0.072,-1.868 -0.388,-1.938 -0.046,-0.296 -0.181,-0.547 -0.193,-1.262 -0.838,-1.787 -1.474,-2.397 -2.235,-2.417 z"
   inkscape:connector-curvature="0"
   style="fill:#fefee9;stroke:#000000;stroke-width:2" />
	<polygon
   id="polygon2867"
   points="-82.573,343.106 -84.08,339.149 -85.232,338.058 -86.803,334.25 -86.511,332.58 -85.301,331.876 -83.892,332.49 -82.938,334.567 -79.651,336.715 -79.285,337.434 -79.23,338.84 -80.415,341.342 -80.775,343.842 "
   style="fill:#f8fae9;stroke:#000000;stroke-width:2" />
</g>
<g
   id="layer8"
   transform="translate(223.68613,372.92856)"
   inkscape:label="Gebietsgrenzen"
   inkscape:groupmode="layer"
   sodipodi:insensitive="true">
	<path
   id="path4189"
   stroke-miterlimit="3.9016"
   d="m 29.594,-132.811 6.593,0.36 1.875,-0.993 4.025,-0.09 2.707,2.077 2.431,0.719 6.941,-0.18"
   inkscape:connector-curvature="0"
   style="fill:none;stroke:#646464;stroke-width:0.75;stroke-linejoin:round;stroke-miterlimit:3.90159988" />
	<path
   id="path3369"
   stroke-miterlimit="3.9016"
   d="m -10.278,-47.094 5.066,0.515 6.44,-0.261 7.311,-0.617 6.605,-3.067 6.727,-2.696 6.087,-1.245 8.301,-0.581"
   inkscape:connector-curvature="0"
   style="fill:none;stroke:#646464;stroke-width:0.75;stroke-linejoin:round;stroke-miterlimit:3.90159988" />
	<path
   id="path3363"
   stroke-miterlimit="3.9016"
   d="m -13.516,-14.251 1.947,1.97 7.08,2.523 1.043,0.997 0.969,8.119 3.263,4.422 0.07,1.803 -0.487,1.352 -2.916,2.706 -1.386,0.634 -1.112,1.169 -1.735,0.904 -3.606,4.062 -0.835,1.623 0.276,1.624 2.431,3.065 7.217,5.415 2.153,3.339 v 0.36"
   inkscape:connector-curvature="0"
   style="fill:none;stroke:#646464;stroke-width:0.75;stroke-linejoin:round;stroke-miterlimit:3.90159988" />
	<path
   id="path3357"
   stroke-miterlimit="3.9016"
   d="m -40.801,162.662 2.021,-1.546 5.274,-0.18 2.639,-1.263 5.349,-0.09 1.592,0.81 4.861,0.27 1.596,-0.72 3.957,-3.069 1.871,-2.437 2.57,-1.802 3.539,-0.634 1.875,1.626 1.667,0.541 1.248,1.176 2.641,0.177 1.732,-1.443 0.695,-1.893 1.596,-2.167 3.055,-0.27 1.042,1.35 1.387,2.439"
   inkscape:connector-curvature="0"
   style="fill:none;stroke:#646464;stroke-width:0.75;stroke-linejoin:round;stroke-miterlimit:3.90159988" />
	<path
   id="path4260"
   stroke-miterlimit="3.9016"
   d="m 136.214,257.198 -0.137,-3.159 -0.833,-1.807 -1.737,-0.54 -0.624,-0.633 H 130.8 l -3.122,-0.9 -3.679,-1.985 -3.334,-3.156 -3.75,-6.135 -2.843,-2.797 -2.223,-3.969 -1.595,-1.627 -2.639,1.083 -3.748,-0.087 -1.595,-1.805 -2.642,-10.288 -0.416,-6.403"
   inkscape:connector-curvature="0"
   style="fill:none;stroke:#646464;stroke-width:0.75;stroke-linejoin:round;stroke-miterlimit:3.90159988" />
	<path
   id="polygon2947"
   stroke-miterlimit="3.9016"
   d="m 184.182,188.63 8.536,16.603 4.79,6.496 2.224,3.699 4.582,4.688 2.637,6.769 2.848,8.208 1.11,1.623"
   inkscape:connector-curvature="0"
   style="fill:none;stroke:#646464;stroke-width:0.75;stroke-linejoin:round;stroke-miterlimit:3.90159988" />
	<path
   id="path4240"
   stroke-miterlimit="3.9016"
   d="m 35.423,234.642 0.975,-3.518 -0.139,-0.904 0.416,-4.782 0.972,-1.079 6.525,-0.184 3.193,-3.517 2.081,0.09 0.903,1.08 2.915,0.997 5.233,-0.025 1.086,-0.972 0.904,-0.09 2.079,-1.69 1.041,-3.537"
   inkscape:connector-curvature="0"
   style="fill:none;stroke:#646464;stroke-width:0.75;stroke-linejoin:round;stroke-miterlimit:3.90159988" />
	<path
   id="path4520"
   stroke-miterlimit="3.9016"
   d="m 152.386,22.532 -5.625,-1.533 -6.037,-3.699 -2.641,-2.886 -1.244,-2.077 0.344,-2.705 4.581,-6.136 1.667,-1.712 1.667,-5.416 -0.071,-4.059 -2.703,-9.384 -2.57,-5.685 -5.136,-7.849 0.696,-3.067 4.857,-8.027 2.152,-4.783 -0.208,-4.512 -1.599,-1.986 -1.32,-1.083 -1.111,-2.616 0.698,-1.626 -0.483,-10.195 -1.945,-4.058 -0.068,-6.135 v -0.721"
   inkscape:connector-curvature="0"
   style="fill:none;stroke:#646464;stroke-width:0.75;stroke-linejoin:round;stroke-miterlimit:3.90159988" />
	<path
   id="path4200"
   stroke-miterlimit="3.9016"
   d="m 220.866,76.092 -8.925,1.748 -3.191,0.09 -1.386,0.809 -3.682,0.273 -2.844,-1.626 -0.42,-0.632 -0.623,0.092 -3.747,-3.159 -1.183,-0.542 -3.681,0.27 -3.191,2.345 -2.288,2.797 -2.779,0.453 -1.043,-0.813 0.557,-7.126 -1.179,-8.21 -2.152,-2.257 -3.815,-0.632 -0.972,-1.533 -1.042,-5.683 -2.564,-3.339 -2.223,-1.263"
   inkscape:connector-curvature="0"
   style="fill:none;stroke:#646464;stroke-width:0.75;stroke-linejoin:round;stroke-miterlimit:3.90159988" />
	<path
   id="path2975"
   stroke-miterlimit="3.9016"
   d="m 236.984,-108.76 -7.976,-1.232 -2.569,-1.083 -1.875,0.18 -1.18,1.896 -0.208,3.696 -1.181,1.263 -4.094,1.264 -2.15,-0.364 -2.642,-1.623 -0.971,-0.09 -1.32,-0.81 -3.682,-0.633 -6.594,0.36 -3.33,0.993 -2.567,2.077 -1.807,4.692 -2.706,3.246 -2.223,1.263 -4.026,-0.636 -0.409,-0.984 -1.943,-2.607 -2.231,-3.615 -0.9,-1.994 -1.103,-1.811 -0.981,-4.493 -0.901,-1.912 -1.451,-1.623 -0.489,-0.98 -0.411,-2.262 0.268,-1.542 -3.119,-2.064 -2.911,-0.093 -4.515,2.979 -1.667,2.617 -3.61,3.246 -3.606,0.723 -2.848,-1.263 -1.039,-1.083 -2.016,-5.142 -2.221,-3.696 -0.066,-4.059 0.557,-1.897 5.828,-7.038 2.779,-2.797 2.57,-8.027 -0.348,-4.42 -2.567,-6.226 -4.095,-3.698 -2.15,-0.994 -0.973,-1.083 -3.54,-0.632 -1.944,-0.994 -0.835,-2.436 -2.639,-4.329 -5.273,-14.167 -0.345,-4.146 0.832,-1.626 3.33,-3.969 0.904,-1.893 0.623,-0.27 8.969,-5.92 6.66,-10.289 c 0,0 1.815,-2.724 0,-6.052 -1.817,-3.329 -3.027,-5.448 -5.752,-7.264 -2.724,-1.816 -8.173,-3.026 -8.476,-5.447 -0.302,-2.421 -0.302,-4.54 1.816,-5.146 2.119,-0.605 6.659,-0.301 7.264,-1.815 0.606,-1.512 0.606,-3.934 0,-6.052 -0.604,-2.119 0.909,-6.657 0.909,-6.657 l 5.448,-3.935"
   inkscape:connector-curvature="0"
   style="fill:none;stroke:#646464;stroke-width:0.75;stroke-linejoin:round;stroke-miterlimit:3.90159988" />
	<path
   id="path4176"
   stroke-miterlimit="3.9016"
   d="m 63.931,-228.986 4.679,-1.64 1.875,-1.084 0.772,-0.815 1.726,-3.066 0.764,-0.713 2.016,-0.894 2.912,0.261 2.567,0.81 6.795,1.443 2.327,-0.354 h 4.143 l 3.387,-0.903 1.39,0.078 1.394,0.369 0.975,0.627 3.737,3.8 2.78,0.432 5.421,3.984 4.924,1.517 1.659,1.453 0.981,0.549 1.527,0.277 2.704,-0.096 1.315,0.372 1.183,0.532 2.929,3.084 1.03,0.613 1.539,0.289 4.93,-0.667 1.512,0.288 1.16,0.432 0.655,0.816 0.127,1.281 0.624,0.802 2.775,0.461 6.772,3.654"
   inkscape:connector-curvature="0"
   style="fill:none;stroke:#646464;stroke-width:0.75;stroke-linejoin:round;stroke-miterlimit:3.90159988" />
	<path
   id="path4172"
   stroke-miterlimit="3.9016"
   d="m 49.517,-301.699 -1.527,1.896 -1.248,3.066 -2.431,2.886 -2.637,5.233 -0.349,3.518 1.111,3.34 3.468,4.872 0.348,2.074 -0.901,5.321 5.274,18.583 0.279,9.744 -0.207,6.135 0.624,0.903 2.5,2.346 3.469,1.533 7.004,1.099 -0.9,0.607 0.21,0.907 1.816,1.353 0.599,0.808 1.127,1.994 0.267,1.071 -0.128,2.715 -0.338,1.362 -0.983,2.248 0.06,2.516 -0.33,1.362 -4.166,1.623 -0.432,1.253 0.305,2.437 0.543,2.262 0.701,0.816 2.913,0.263 -0.065,1.36 -0.63,0.993 -0.63,2.706 0.075,2.609 -0.346,1.263 -2.644,1.9 -5.894,2.883 -2.151,0.717 -0.763,0.816 -0.833,2.434 -1.603,3.246 -1.04,0.453 -1.248,0.091 -0.906,0.638 -1.592,3.246 -1.459,1.53 -2.779,1.716 -1.248,0.087 -1.39,-0.357 -2.009,-1.176 h -1.387 l -2.152,0.719 -2.147,-1.083 -3.333,1.893 -0.836,3.25 0.484,6.137 1.248,2.887 2.778,3.16 -1.665,3.155 -1.943,0.813 -2.915,2.706 v 3.156 l 2.707,7.761 1.803,7.849 0.56,1.172 -0.208,10.016 -0.902,2.796 -1.46,1.442 -2.083,1.083 -4.166,-0.086 -6.037,-3.066 -0.625,-0.094 -1.04,-0.719 -2.849,-0.634 -6.313,-0.09 -2.708,-1.983 -0.971,-2.255 -0.695,-4.512 -1.18,-0.634 -3.89,-0.179 -2.706,-0.903 -2.5,0.359 -0.623,0.721 -1.459,0.362 -0.764,0.541 -1.459,8.211 -1.943,4.059 0.418,4.51 0.625,2.708 -1.947,2.167 -5.205,2.706 -1.527,2.523 0.059,5.523"
   inkscape:connector-curvature="0"
   style="fill:none;stroke:#646464;stroke-width:0.75;stroke-linejoin:round;stroke-miterlimit:3.90159988" />
	<path
   id="path4293"
   stroke-miterlimit="3.9016"
   d="m 128.722,421.295 -0.626,-2.257 -1.25,-1.989 -1.18,-0.45 -2.151,-3.882 0.068,-2.073 1.32,-1.532 2.011,-1.717 0.903,-0.087 3.123,-2.349 0.559,-1.446 -0.971,-4.418 -3.819,-6.583 -2.427,-2.982 -5.278,-5.05 -1.663,-4.509 -0.419,-4.061 -5.275,-13.354 0.35,-3.97 1.247,-3.336 2.638,-3.883 0.973,-4.418 -0.764,-2.889 -1.738,-1.894 -0.1,-0.615 0.065,-0.53 2.168,-3.181 0.644,-2.079"
   inkscape:connector-curvature="0"
   style="fill:none;stroke:#646464;stroke-width:0.75;stroke-linejoin:round;stroke-miterlimit:3.90159988" />
	<path
   id="path4297"
   stroke-miterlimit="3.9016"
   d="m 207.304,354.619 0.764,4.51 -0.344,5.868 0.065,4.059 2.914,6.141 4.585,4.234 -0.279,2.079 -0.835,1.261 -1.527,0.359 -1.803,3.066 0.278,5.955 2.359,9.922 0.696,4.062 1.526,2.077 3.056,11.276 3.122,6.136 0.139,4.508 -1.527,6.32 2.083,4.868 3.403,3.609 5.691,2.526 1.875,2.972 1.389,5.143 1.18,2.71 5.9,3.519 4.233,4.692 2.639,3.426 0.516,1.853"
   inkscape:connector-curvature="0"
   style="fill:none;stroke:#646464;stroke-width:0.75;stroke-linejoin:round;stroke-miterlimit:3.90159988" />
	<path
   id="path2987"
   stroke-miterlimit="3.9016"
   d="m 64.708,445.233 -0.196,-10.572 6.594,-0.36 4.582,1.354 4.584,0.992 2.779,1.174 5.968,0.182 3.127,-1.444 1.734,-1.535 6.316,-10.104 1.876,-1.26 2.29,-0.813 10.968,-0.719 9.784,-0.094 3.612,-0.717 3.467,0.087 2.084,-0.633 6.04,-5.499 3.539,-2.347 4.793,0.271 2.774,1.353 1.874,1.445 3.053,1.622 3.47,2.436 0.624,-0.087 5.414,5.321 3.266,5.142 3.606,0.361 0.765,-0.993 2.29,-0.358 1.319,0.811 0.836,3.066 3.402,6.229 3.189,4.691 1.043,0.453 0.973,0.986 3.053,1.356 0.837,1.082 0.623,-0.086 4.441,2.706 5.277,5.232 6.385,10.467 2.848,7.759 -0.389,1.651"
   inkscape:connector-curvature="0"
   style="fill:none;stroke:#646464;stroke-width:0.75;stroke-linejoin:round;stroke-miterlimit:3.90159988" />
	<path
   id="polygon2927"
   stroke-miterlimit="3.9016"
   d="m 150.029,-113.054 -6.664,3.518 -5.414,5.866 -2.638,1.172 -6.732,1.804 -2.361,0.993 -2.916,2.255 -2.846,1.624 -2.289,2.163 -0.211,2.979 0.904,1.081 0.9,0.18 2.57,1.356 h 5.828 l 4.791,-0.361 1.318,0.99 1.599,2.256 0.972,4.875 -0.555,0.9 v 0.721 l -3.61,0.722 -2.916,2.616 -4.233,1.896 -5.764,0.271 -4.026,1.353 -4.579,2.436 -1.943,1.625 -3.819,4.599 -1.944,5.415 -1.043,1.353 -3.536,0.09 -4.305,-2.615 -5.97,0.18 -5.206,4.149 -3.746,2.076 -7.86,0.518 -0.984,0.021 -7.68,0.184 -2.221,-0.903 -2.776,-0.272 -3.818,-0.814 -4.022,-1.625 -6.944,-0.088 -0.624,0.45 h -0.032 -6.425 l -2.917,-2.706 -6.039,-8.661 -2.01,-2.343 -1.807,-4.242 -2.08,-10.824 1.523,-6.499 1.875,-3.609 h 0.627 l 0.345,-0.54 2.083,-1.084 11.522,0.09 0.831,-0.993 1.251,-0.27 0.348,-0.631 2.498,-1.625 7.636,-1.534 3.4,-2.253 0.764,-2.799 0.07,-4.509 -1.182,-4.513 -0.066,-1.893 2.427,-1.986 0.211,-1.531 -2.708,-6.948 -0.695,-3.97 v -0.54 l 1.18,-1.264 h 0.627 l 3.886,-3.518 1.526,-0.541 3.75,-3.972 0.553,-0.904 1.111,-0.99 2.152,0.087 1.803,1.629 4.724,9.562 2.219,13.26 1.389,2.616 1.25,0.543 3.055,-0.18 0.972,-0.723 5.273,-0.18 1.944,0.902 2.501,-0.18 2.913,-3.432 4.377,-6.043 3.817,-2.706 2.22,-0.45 1.596,-0.633 2.082,-2.437 5.142,-11.727 3.814,-4.242 6.664,-5.773 2.565,-1.806 6.318,-5.322 3.679,-1.893 0.767,-0.903 0.623,-0.09 1.181,-0.993"
   inkscape:connector-curvature="0"
   style="fill:none;stroke:#646464;stroke-width:0.75;stroke-linejoin:round;stroke-miterlimit:3.90159988" />
	<path
   id="polygon2931"
   stroke-miterlimit="3.9016"
   d="m 168.497,48.162 -3.338,2.17 -4.997,4.688 -0.553,0.993 -2.709,2.077 -4.027,0.807 -0.764,0.996 -0.829,0.449 -2.709,-0.449 -3.817,-2.256 -4.65,-2.256 -7.776,-0.36 -4.581,-2.616 -2.29,-2.437 -3.4,-7.398 -1.738,-2.073 -1.942,-0.993 -2.012,0.36 -1.804,1.803 -0.42,1.985 -1.875,1.173 -1.803,-0.543 -4.439,-3.066 -9.166,-5.505 -2.015,-2.523 -2.498,-7.398 -1.593,-1.986 -3.402,-5.141 -7.636,-8.659 -2.502,-2.439 -4.51,-1.351 -4.65,-4.422 -3.679,-3.878 -7.428,-6.945 -4.373,-4.875 -0.835,-1.983 -1.453,-9.925 -1.323,-3.426 -1.943,-4.152 0.625,-6.225 v -4.149 l -1.875,-5.503 -1.667,-2.435 -1.416,-3.34 h 0.032"
   inkscape:connector-curvature="0"
   style="fill:none;stroke:#646464;stroke-width:0.75;stroke-linejoin:round;stroke-miterlimit:3.90159988" />
	<path
   id="path4216"
   stroke-miterlimit="3.9016"
   d="m 124.555,81.994 -4.097,0.093 -1.736,1.081 -3.398,2.979 -2.082,2.706 -1.527,0.27 -4.166,-2.889 h -4.098 l -3.4,3.339 -0.902,0.359 -3.467,4.782 -0.904,2.709 -3.401,4.33 -1.322,3.696 -2.912,3.972 -3.125,1.173 -3.055,2.436 -6.457,1.717 -4.166,0.72 -1.04,-0.634 -2.916,0.45 -2.706,2.076 -5.209,0.814 -2.222,1.803 -2.842,5.321 -3.958,2.346 -0.901,0.182 -2.011,1.172 h -5.833 l -3.055,-1.443 -3.539,-2.885 -1.875,-2.437 -1.182,-0.813 -1.109,-1.533 -2.918,0.18 -0.344,0.542 h -0.903 l -0.972,0.995 -1.527,0.629 -4.721,0.089 -2.08,-3.698 -3.75,-8.299 -3.75,-3.969 -4.79,-4.332 -0.416,-0.992 -4.027,-2.707 -5.761,-0.364 -1.459,-0.807 -0.764,-1.266 0.208,-3.246 1.111,-4.872 2.014,-4.06 2.22,-1.446 0.626,-0.09 3.055,-3.156 2.012,-6.405 -0.416,-3.878 -2.291,-3.97 v -3.156 l 0.903,-2.529 2.22,-1.715 0.624,-3.063 -0.833,-2.076 -3.678,-2.707 -1.179,-4.512 -0.209,-5.141 2.291,-5.863 0.485,-0.722 -0.069,-1.443 4.027,-0.724 5.065,-0.359 1.531,-0.814 2.912,-5.592 1.667,-0.813 1.458,1.446 1.111,3.066 0.693,7.759 1.247,2.617 2.363,1.893 3.818,-0.45 3.747,-1.717 2.847,-1.803 0.906,-0.27 1.665,-1.716 h 0.763 l 4.579,-3.066 1.25,-0.09 0.628,-0.542 0.9,0.093 0.488,-0.72 1.248,-0.094 4.721,-3.066 3.055,0.541 1.736,1.623 2.915,-0.18 2.566,-1.803 3.402,-3.519 2.707,-4.783 3.471,-8.841 2.362,-3.696"
   inkscape:connector-curvature="0"
   style="fill:none;stroke:#646464;stroke-width:0.75;stroke-linejoin:round;stroke-miterlimit:3.90159988" />
	<path
   id="path4226"
   stroke-miterlimit="3.9016"
   d="m 244.212,145.451 -0.335,1.866 -0.484,1.082 0.624,11.37 -0.42,7.578 -1.318,1.803 -1.248,0.271 -2.984,-0.541 -4.995,-3.247 -4.166,-1.988 -3.611,-0.269 -0.484,0.631 -2.502,0.719 -3.471,2.62 -3.052,2.705 -3.888,1.354 -2.639,0.633 -0.483,0.544 -3.056,0.452 -5.273,2.342 -2.427,1.987 -1.388,3.608 0.136,7.758 -2.707,4.963 -2.846,4.243 -7.011,-9.295 -0.417,-3.608 -4.231,-8.751 -1.599,-8.39 -1.247,-2.163 -1.944,-1.259 -2.777,-0.905 -7.705,-6.403 -6.04,-6.315 -3.191,-5.503 -1.596,-0.989 -7.431,-2.887 -1.181,-0.813 -2.985,-4.512 -0.068,-1.353 2.709,-2.343 1.248,-0.094 4.166,-1.624 1.318,-1.532 0.696,-1.624 0.204,-3.698 -3.051,-4.512 -1.248,-2.887 -0.558,-3.696 1.806,-13.354 0.138,-4.871 -1.181,-2.617 -1.942,-1.623 -3.542,-1.985 -1.804,-5.146 -1.665,-1.173 -5.761,0.184 -2.846,1.353 h -4.585 l -1.316,-1.537 1.596,-6.042 5.897,-4.872 5.069,-2.525 3.954,-0.904 8.261,-2.796 1.806,-1.443 0.14,-3.066 0.832,-0.454"
   inkscape:connector-curvature="0"
   style="fill:none;stroke:#646464;stroke-width:0.75;stroke-linejoin:round;stroke-miterlimit:3.90159988" />
	<path
   id="path4231"
   stroke-miterlimit="3.9016"
   d="m 184.182,188.63 -9.093,-0.538 -2.637,0.897 -4.931,3.973 h -4.233 l -6.178,-3.158 -4.237,-1.083 -20.335,0.993 -4.442,0.813 -2.361,1.441 h -3.818 l -2.499,-1.893 -2.641,-1.532 -3.053,0.72 -1.459,1.443 -1.318,4.691 -2.847,2.073 -0.623,0.179 -1.18,2.167 -0.069,1.896 0.97,1.714 1.253,1.354 -0.555,2.975 -1.807,2.436 -3.264,1.171 -1.454,1.086 -2.155,0.542 -4.993,0.635 -9.86,0.356 -6.316,1.896 -14.441,0.635 v -0.271 l -3.399,-1.355 -3.198,-2.074 -2.147,-2.799 -2.567,-2.702 -1.387,-0.456 -2.501,-3.607 -0.346,-2.796 1.18,-4.69 -0.766,-4.064 -2.775,-4.598 -0.904,-0.36 -0.832,-0.996 0.069,-4.6 1.872,-3.426 0.49,-3.701 -1.32,-1.534 -13.049,-3.605 -9.859,-0.091 -2.083,-0.539 -3.191,-2.35 -5.486,-12.357 4.234,-0.634 2.223,-0.989 3.328,-2.8 4.166,-4.421 1.667,-3.786 2.707,-7.759 0.491,-4.333 -0.141,-6.404 0.969,-0.993"
   inkscape:connector-curvature="0"
   style="fill:none;stroke:#646464;stroke-width:0.75;stroke-linejoin:round;stroke-miterlimit:3.90159988" />
	<path
   id="path3351"
   stroke-miterlimit="3.9016"
   d="m -40.882,214.09 0.503,0.345 4.861,0.993 6.178,0.271 5.9,-2.708 12.494,0.541 1.323,1.442 0.899,3.791 -0.415,8.12 1.319,3.789 2.986,4.332 4.091,3.152 2.986,0.725 3.75,0.448 2.706,1.176 1.599,1.262 1.18,3.608 0.832,0.631 h 2.567 l 0.763,-2.883 0.836,-1.086 3.33,-0.271 0.76,-3.79 4.445,-3.969 1.667,-0.18 0.695,-0.72 2.707,-0.181 5.342,1.713 0.416,3.606 1.251,2.439 4.926,8.118 0.975,3.785 -1.115,4.517 -2.147,3.785 -0.832,4.153 0.344,2.525 0.832,2.166 2.501,1.26 3.262,0.36 1.18,0.726 2.012,1.891 1.114,2.167 1.04,6.494 2.22,3.52 1.734,2.166 -0.344,2.615 -1.53,6.676 1.319,3.432 3.057,5.86 3.611,9.383 1.94,2.8 5.761,2.616 1.25,1.894 0.627,5.506 -3.197,0.539 -4.511,2.797 -0.832,1.622 0.068,4.148 -0.556,1.627 -3.817,1.893 -0.9,0.091 -4.93,4.333 -1.947,3.787 -2.219,5.413 -1.807,1.717 -3.815,1.263 -3.75,0.539 -1.86,2.713 -3.486,-1.449 -1.937,-1.134 -0.786,-0.782 -0.961,-1.963 0.297,-1.406 -0.155,-1.301 0.338,-1.287 0.498,-1.147 0.832,-0.653 0.627,-0.884 0.996,-2.249 0.481,-4.314 -0.438,-2.274 -0.487,-0.996 -1.592,-1.44 -1.1,-0.459 -2.107,0.708 -0.722,0.858 -0.845,0.55 -1.27,0.149 -1.024,-0.381 -0.419,-0.866 0.056,-1.372 0.281,-0.99 1.833,-2.886 0.665,-2.619 -0.063,-1.301 -1.189,-1.496 -1.101,-0.462 -1.143,0.316 -1.014,-0.308 -1.459,-1.533 -2.232,0.507 -1.31,-0.054 -0.859,-0.731 -0.36,-0.86 -2.319,-1.027 -4.917,-1.635 -1.812,-1.335 -1.118,-1.633 -2.285,-0.902 -2.71,-0.447 -0.977,0.447 -2.35,0.453 -2.782,-0.63 -2.291,-0.903 -2.706,-0.087 -2.499,-0.813 -0.77,-0.724 -1.939,-1.176 -0.209,-0.987 3.195,-2.8 0.202,-1.441 -0.827,-0.725 -1.322,-0.362 -1.176,0.093 -2.707,1.713 -1.249,0.094 -0.626,-0.813 0.272,-2.794 -3.749,-2.567 -1.568,-1.408 -0.512,-0.989 -0.994,-0.578 -0.95,0.487 -0.764,0.811 -3.654,-0.748 -0.996,-0.603 -0.27,-1.124 0.484,-1.016 v -1.097 l -0.354,-0.824 -1.453,-1.534 -2.294,-0.994 -4.095,-0.901 -0.969,-0.529 -0.142,-1.274 0.323,-1.229 0.025,-1.386 -0.447,-0.966 -1.152,-0.481 -1.319,0.01 -1.038,0.444 -1.678,1.284 -2.767,3.314 -0.909,0.599 -1.266,0.158 -1.086,-0.484 -1.625,-1.474 -1.27,-1.645 -0.421,-1.019 -1.446,-1.566 -4.219,-1.958 -2.775,-0.553 -3.433,0.707 -5.079,2.67 -0.112,-0.09"
   inkscape:connector-curvature="0"
   style="fill:none;stroke:#646464;stroke-width:0.75;stroke-linejoin:round;stroke-miterlimit:3.90159988" />
	
		<path
   id="path4246"
   sodipodi:nodetypes="cccccccccccccccccccccccccccccccccccccccccccccccccccccccccccccccccccccccccccccccccccccccccccccccccccccccccc"
   stroke-miterlimit="3.9016"
   d="m 210.903,236.704 1.038,0.089 1.112,-0.541 3.954,-3.61 2.639,-0.9 5.137,0.9 3.191,2.257 5.345,0.902 1.183,1.263 2.151,6.226 3.887,-0.633 7.844,-2.977 1.316,-1.261 1.739,-3.789 1.248,-0.542 6.663,-0.181 0.624,-0.546 1.875,-0.356 1.108,-1.264 0.624,0.087 1.806,-1.982 3.192,-0.184 2.985,2.347 2.566,2.619 2.848,0.63 1.318,-3.969 1.664,-2.257 1.738,-0.903 10.135,-2.256 7.984,-2.166 0.831,-0.989 1.528,-0.09 3.193,-2.257 0.066,-3.339 -1.109,-4.51 -1.526,-3.969 -2.258,-2.511 m -8.374,153.77 -2.131,-1.03 -2.29,-3.613 -1.247,-4.508 0.347,-2.797 1.388,-3.336 -1.044,-2.619 -1.875,-1.441 -6.176,-2.349 -3.471,0.273 -4.025,2.163 -3.681,1.264 -2.152,0.271 -0.903,0.539 -2.776,0.633 -3.124,1.894 -0.764,0.184 -4.026,3.787 -2.013,0.993 -5.553,-0.358 -6.732,0.179 -2.847,1.444 -6.107,0.09 -2.848,-0.453 -1.527,0.273 -4.166,3.607 -2.012,1.172 -4.3,-0.271 -2.852,-1.173 h -5.969 l -1.459,-1.354 -1.318,-0.451 -1.6,-5.596 -0.971,-1.986 v -2.437 l 2.291,-6.135 0.135,-4.422 -1.318,-8.749 -1.388,-4.063 0.14,-2.345 1.734,-1.717 1.388,-2.435 -0.623,-2.888 h -0.624 l -1.388,-1.173 -8.884,-0.453 -1.803,-0.54 -2.984,-3.066 -1.874,-4.421 -2.013,-6.316 -3.329,-4.692 -2.502,-3.97 -1.875,-4.423 -1.388,-2.432 -2.288,-7.306 -2.986,-3.159 -2.223,-3.52 -1.597,-1.715 -1.46,-0.271 0.207,-4.418 22.77,-0.992 6.108,-0.994 6.037,-0.272 2.223,-1.081 2.848,-2.346 2.497,-6.406 2.083,-4.331 0.904,-2.976 0.141,-2.076"
   inkscape:connector-curvature="0"
   style="fill:none;stroke:#646464;stroke-width:0.75;stroke-linejoin:round;stroke-miterlimit:3.90159988" />
	<path
   id="path4251"
   stroke-miterlimit="3.9016"
   d="m 204.52,352.827 -5.551,0.27 -3.192,2.436 -2.016,0.633 -10.41,0.811 -1.879,1.807 0.14,8.207 -1.108,1.267 -3.262,0.899 -4.723,4.6 -1.176,1.985 h -0.902 l -0.836,0.813 h -0.555 l -2.496,1.444 -4.377,-0.182 -2.015,-0.902 -5.482,-5.052 -5.205,-8.752 -2.779,-1.803 -2.498,-0.453 -1.731,-3.336 -1.528,-5.865 -4.929,-5.501 -11.105,-8.933 -0.904,0.087 -0.627,-0.63 -1.872,-0.36 -1.183,-0.633 -3.191,0.091 0.209,-3.521 1.04,-2.612 1.877,-1.083 0.903,-0.181 0.83,-0.993 -1.044,-3.426 -4.026,-6.048 -0.064,-1.806 1.804,-5.683 -1.181,-11.998 1.596,-3.698 2.221,-2.166 3.334,-0.99 4.717,-0.54 0.627,-0.547 2.155,-0.446 1.663,-3.25 -1.11,-9.563 -1.252,-4.236 v -6.226 l 1.043,-1.989 2.431,-3.516 1.316,-4.059 1.806,0.268 2.707,2.618 0.901,-0.093 0.558,0.634 6.801,-0.091 2.223,1.353 1.181,3.07 1.598,0.898 h 4.439 l 2.919,-1.083 1.387,-1.261 2.359,-0.902"
   inkscape:connector-curvature="0"
   style="fill:none;stroke:#646464;stroke-width:0.75;stroke-linejoin:round;stroke-miterlimit:3.90159988" />
	<path
   id="path3339"
   stroke-miterlimit="3.9016"
   d="m 54.936,481.852 1.031,-3.445 0.763,-5.501 -0.417,-9.111 -2.429,-8.664 1.458,-5.053 2.429,-3.606 1.321,-0.184 0.692,-0.719 4.92,-0.342 2.647,0.611 3.334,2.346 2.707,2.709 3.678,6.673 3.89,12.27 3.123,6.403 3.265,2.348 h 2.704 l 4.17,-2.165 3.745,-0.183 0.696,0.453 4.304,1.082 1.875,1.44 3.332,1.359 2.015,1.803 5.48,3.246 4.307,3.969 4.584,6.405 4.787,5.233 3.957,3.429 4.999,5.051 4.024,2.707 2.639,0.903 1.527,0.993 2.498,0.986 0.972,0.993 1.252,2.616 0.485,4.422 2.082,5.503 5.134,6.499 7.775,7.395 1.46,0.273 0.279,0.269 0.9,8.749 1.245,7.843"
   inkscape:connector-curvature="0"
   style="fill:none;stroke:#646464;stroke-width:0.75;stroke-linejoin:round;stroke-miterlimit:3.90159988" />
	<path
   id="path4285"
   stroke-miterlimit="3.9016"
   d="m 64.512,434.651 -2.777,-3.97 -4.306,-7.214 -2.291,-7.578 -1.108,-2.891 -2.639,-3.789 0.276,-2.706 3.539,-0.716 -0.068,-2.08 -1.248,-1.716 -3.123,-1.443 -1.599,-1.17 -2.151,-3.788 -2.223,-4.693 -3.402,-2.975 -2.566,-0.635 -1.108,-0.813 h -1.255 l -1.731,-1.443 0.139,-2.346 1.873,-1.982 5.832,-4.51 0.9,-0.093 0.764,-0.991 2.014,-0.542 0.625,-0.543 0.903,-0.091 0.853,-2.79 -1.383,-0.077 -2.111,-1.021 -1.568,-1.408 -0.928,-1.288 -2.291,-1.986 -1.241,-1.582 -0.423,-1.021 -0.834,-0.732 -1.096,-0.443"
   inkscape:connector-curvature="0"
   style="fill:none;stroke:#646464;stroke-width:0.75;stroke-linejoin:round;stroke-miterlimit:3.90159988" />
	<path
   id="path4279"
   stroke-miterlimit="3.9016"
   d="m 70.829,329.102 1.108,1.349 4.305,1.627 2.012,1.077 3.262,1.085 5.414,0.453 6.317,-2.343 2.358,-0.097 2.432,3.25 1.595,1.446 0.559,0.086 3.191,2.35 2.566,0.54 2.151,1.171 6.15,0.468"
   inkscape:connector-curvature="0"
   style="fill:none;stroke:#646464;stroke-width:0.75;stroke-linejoin:round;stroke-miterlimit:3.90159988" />
	<path
   id="path4482"
   stroke-miterlimit="3.9016"
   d="m 42.965,-292.399 c 0,0 -3.935,-0.909 -5.751,0.302 -1.815,1.211 -3.632,3.632 -5.146,4.237 -1.514,0.605 -1.21,1.514 -1.21,3.632 0,2.118 0,4.538 0,6.959 0,2.421 -3.329,4.238 -3.329,6.053 0,1.816 -0.606,2.421 -3.027,2.421 -2.422,0 -8.476,-0.605 -10.595,0.605 -2.119,1.21 -6.054,3.933 -6.054,6.355 0,2.421 -2.725,7.564 -2.725,9.38 0,1.817 0.606,7.869 -0.302,9.987 -0.908,2.118 -2.118,5.749 -5.146,5.749 -3.027,0 -7.87,0 -8.475,2.12 -0.605,2.117 -4.238,8.17 -7.568,9.683 -3.329,1.513 -12.411,3.026 -13.925,3.631 -1.513,0.605 -5.146,4.54 -7.265,5.448 -2.103,0.9 -7.487,1.504 -9.343,1.513 -6.334,0.029 -23.302,-0.452 -25.539,-7.252"
   inkscape:connector-curvature="0"
   style="fill:none;stroke:#646464;stroke-width:0.75;stroke-miterlimit:3.90159988" />
	<path
   id="path4488"
   stroke-miterlimit="3.9016"
   d="m 28.436,-54.843 0.303,13.316 c 0,0 3.935,9.078 6.054,9.381 2.119,0.302 3.633,0.606 3.935,2.119 0.303,1.513 -0.605,3.934 -1.815,4.236 -1.211,0.303 -4.239,3.026 -4.239,4.237 0,1.211 -1.21,9.986 0,11.499 1.211,1.513 2.12,6.96 1.514,8.171 -0.605,1.21 -3.935,3.935 -4.238,5.145 -0.302,1.21 -2.421,3.026 -2.421,3.026 0,0 -7.265,0 -9.383,0 -2.12,0 -6.358,1.514 -7.568,2.119 C 9.367,9.01 3.918,8.102 3.918,8.102 L 0.89,5.076"
   inkscape:connector-curvature="0"
   style="fill:none;stroke:#646464;stroke-width:0.75;stroke-miterlimit:3.90159988" />
	<path
   id="path4492"
   stroke-miterlimit="3.9016"
   d="m -8.983,96.175 c 0,0 -0.792,5.543 -2.773,6.336 -1.979,0.792 -4.752,1.979 -7.129,3.563 -2.376,1.583 -3.959,5.542 -5.94,9.503 -1.979,3.96 -0.792,6.335 -5.94,7.126 -5.15,0.793 -5.15,0.793 -5.15,0.793"
   inkscape:connector-curvature="0"
   style="fill:none;stroke:#646464;stroke-width:0.75;stroke-miterlimit:3.90159988" />
	<path
   id="path4494"
   stroke-miterlimit="3.9016"
   d="m 52.802,126.664 3.564,5.543 10.695,0.793 2.376,-0.398 v 5.941 l 1.584,5.938 6.732,-0.396 1.981,2.375 -0.397,7.523 v 8.315 5.939 l 1.189,4.355 -3.565,0.791 -3.565,3.169 -1.583,5.543 -5.942,0.791 H 55.575 l -12.278,-0.791"
   inkscape:connector-curvature="0"
   style="fill:none;stroke:#646464;stroke-width:0.75;stroke-miterlimit:3.90159988" />
	<path
   id="path4496"
   stroke-miterlimit="3.9016"
   d="m 42.901,255.747 8.318,6.335 h 6.732 l 4.357,3.564 5.148,1.979 5.941,-5.147 3.961,0.396 1.98,-6.731 4.753,-11.878 6.732,-6.336 7.131,-3.96 4.752,-2.771"
   inkscape:connector-curvature="0"
   style="fill:none;stroke:#646464;stroke-width:0.75;stroke-miterlimit:3.90159988" />
	<path
   id="path4498"
   stroke-miterlimit="3.9016"
   d="m 13.196,323.457 -3.565,-13.86 0.397,-8.711 6.732,-5.939 5.942,-2.375 2.376,-5.543 5.545,-0.397 3.168,-3.959 6.337,-2.375 3.96,0.395 6.732,1.98"
   inkscape:connector-curvature="0"
   style="fill:none;stroke:#646464;stroke-width:0.75;stroke-miterlimit:3.90159988" />
	<path
   id="path4508"
   stroke-miterlimit="3.9016"
   d="m 335.194,336.126 -15.051,-9.502 -5.545,-6.336 c 0,0 0.396,0 3.169,-3.96 2.772,-3.959 5.148,-5.544 4.355,-9.106 -0.792,-3.563 -4.355,-5.544 -6.731,-8.314 -2.376,-2.773 -5.941,-6.732 -7.921,-9.107 -1.981,-2.377 0.792,-11.483 0.792,-11.483 0,0 0.396,-8.711 0.396,-10.295 0,-1.583 0.396,-7.919 0,-9.504 -0.396,-1.583 -1.188,-8.314 -1.188,-8.314 0,0 1.583,-5.147 3.959,-5.938 2.377,-0.792 5.941,-0.792 7.525,-2.772 1.585,-1.98 -1.188,-6.336 1.981,-6.336 3.168,0 6.731,-0.396 6.731,-0.396 l 11.883,2.375"
   inkscape:connector-curvature="0"
   style="fill:none;stroke:#646464;stroke-width:0.75;stroke-miterlimit:3.90159988" />
	<path
   id="path4514"
   stroke-miterlimit="3.9016"
   d="m 85.675,536.483 7.129,-5.544 c 0,0 6.733,-0.396 8.318,0 1.584,0.396 6.732,7.522 6.732,7.522 l 5.94,0.792 c 0,0 0.793,4.752 4.356,3.563 3.566,-1.188 7.13,-5.146 7.13,-5.146 l 5.94,-2.773 c 0,0 1.188,-4.751 1.188,-6.73 0,-1.98 -3.168,-10.692 -3.168,-12.274 0,-1.583 -1.585,-9.899 -1.585,-9.899 l 0.793,-5.148"
   inkscape:connector-curvature="0"
   style="fill:none;stroke:#646464;stroke-width:0.75;stroke-miterlimit:3.90159988" />
	<path
   id="path4516"
   stroke-miterlimit="3.9016"
   d="m 152.029,-210.536 c 0,0 2.352,0 7.349,0.293 4.996,0.294 7.055,4.114 7.643,5.583 0.588,1.469 0.294,9.404 2.058,11.166 1.763,1.763 3.82,5.289 5.585,5.877 1.763,0.589 7.643,3.233 9.994,3.233 2.351,0 9.699,0 11.756,0 2.056,0 14.402,-4.114 14.402,-4.114 l 12.345,-10.873 6.171,-4.996"
   inkscape:connector-curvature="0"
   style="fill:none;stroke:#646464;stroke-width:0.75;stroke-miterlimit:3.90159988" />
	
		<path
   id="path4528"
   sodipodi:nodetypes="ccssssssscsssssssc"
   stroke-miterlimit="3.9016"
   d="m 118.17,39.16 2.704,-3.329 c 0,0 -0.207,-3.743 -0.207,-5.822 0,-2.079 -0.625,-4.576 0.415,-6.655 1.04,-2.079 2.913,-4.992 4.161,-5.823 1.247,-0.833 5.407,-1.871 6.238,-1.871 0.832,0 6.866,4.574 7.906,5.406 1.04,0.833 5.2,2.704 6.865,2.497 1.663,-0.208 5.823,-1.248 7.487,-1.456 1.665,-0.208 11.025,-5.199 11.025,-5.199 0,0 7.279,-2.081 8.946,-2.288 1.663,-0.209 6.655,1.04 7.696,1.872 1.04,0.832 6.24,8.319 7.279,8.942 1.04,0.624 7.073,6.447 8.737,7.904 1.665,1.455 8.945,7.901 10.608,8.526 1.664,0.624 8.114,4.575 9.569,4.575 1.456,0 5.409,0.208 9.152,1.665 3.745,1.455 3.953,2.078 3.953,2.078"
   inkscape:connector-curvature="0"
   style="fill:none;stroke:#646464;stroke-width:0.75;stroke-miterlimit:3.90159988" />
</g>
<g
   id="layer5"
   transform="translate(223.68613,372.92856)"
   inkscape:label="Landesgrenzen"
   inkscape:groupmode="layer"
   sodipodi:insensitive="true"
   display="none"
   style="display:none">
	
		<path
   id="path3286"
   display="inline"
   stroke-miterlimit="3.8864"
   d="m -190.121,-278.449 c -0.949,-5.908 -5.816,-17.161 -10.211,-20.913 -2.066,-1.766 -4.529,-2.8 -7.154,-3.919 -3.149,-0.367 -6.309,-1.011 -9.439,-1.338 -2.096,-0.221 -4.505,-0.016 -6.755,0.111"
   inkscape:connector-curvature="0"
   style="fill:none;stroke:#646464;stroke-width:1.5;stroke-linejoin:round;stroke-miterlimit:3.88639998;display:inline" />
	
		<path
   id="path3282"
   display="inline"
   stroke-miterlimit="3.8864"
   d="m -176.097,-240.506 c -1.324,-0.875 -2.814,-1.431 -4.048,-2.465 -2.947,-2.468 -4.527,-6.552 -7.344,-9.24 -0.269,-0.255 -0.532,-0.531 -0.843,-0.733 -0.849,-0.551 -1.809,-0.545 -2.623,-0.994 -0.292,-0.163 -0.486,-0.392 -0.707,-0.642 -1.17,-1.334 -1.997,-1.553 -3.341,-2.525 0.532,-1.396 1.287,-4.488 1.702,-5.385 0.279,-0.609 0.816,-1.136 1.059,-1.741 -0.721,-0.729 -1.511,-2.17 -1.971,-3.133 0.059,-0.511 -0.014,-1.026 0.024,-1.513 0.156,-1.941 0.638,-4.292 0.566,-6.193 -0.029,-0.8 -0.509,-1.528 -0.572,-2.326 1.128,-0.21 3.154,-0.359 4.054,-1.056 5.872,-1.832 6.923,-7.158 9.731,-7.793 0.984,-0.221 2.327,0.659 3.441,0.72 2.189,0.12 3.009,1.819 4.389,3.154 0.519,-0.011 2.889,-1.378 3.229,-1.769 0.617,-2.226 -1.973,-5.97 -4.271,-6.113 0.194,-1.098 -0.026,-1.278 -0.388,-2.241 -0.309,-0.021 -0.484,-0.688 -0.58,-0.934 -0.351,-0.204 -1.181,-0.968 -1.141,-1.422 0.761,-1.197 2.013,-4.499 3.516,-4.901 1.771,-0.47 3.418,-1.624 5.264,-1.765 0.795,-0.062 1.566,0.284 2.529,0.074 0.021,-0.276 -0.92,-3.292 -1.12,-3.457 l -1.045,-0.438 c -0.053,-0.441 0.111,-0.926 -0.173,-1.46 -0.923,-0.398 -2.966,-1.559 -3.25,-2.563 0.021,-0.699 0.327,-1.271 0.273,-1.994 -0.056,-0.699 -1.186,-2.891 -0.909,-3.513 0.096,-0.221 0.918,0.279 1.372,0.096 0.721,-1.393 0.852,-2.092 1.974,-3.342 0.202,-1.979 0.934,-3.221 0.771,-5.186 -0.665,-0.356 -1.361,-0.641 -2.051,-0.949 -0.585,0.205 -0.941,0.907 -1.199,0.949 -1.064,0.176 -6.109,-0.67 -6.341,-2.05 -0.559,-0.338 -1.056,-1.119 -1.335,-1.691 -0.958,0.011 -1.649,-0.199 -2.609,0.04 l -0.944,-0.779 c 0.149,-0.303 0.543,-1.337 0.423,-1.65 -0.396,-0.16 -1.529,-1.072 -1.585,-1.5 -1.812,-1.457 -4.014,0.014 -4.537,-3.076 -0.051,-0.29 -0.335,-0.779 -0.261,-1.045 l 0.619,-0.609 c -0.096,-0.398 0.256,-0.718 0.253,-1.29 0.529,-0.553 -0.816,-0.861 0.231,-1.196 -0.042,-0.056 -0.449,-0.125 -0.542,-0.17 -0.279,-0.139 -0.687,-0.58 -0.753,-0.894 -0.12,-0.551 -0.017,-2.244 -0.191,-2.523 -0.529,-0.053 -1.146,-0.548 -1.162,-1.104 0.324,-0.715 1.154,-1.723 1.273,-2.792 -0.354,-0.309 -0.628,-0.731 -0.617,-1.425 -0.229,-0.359 -0.343,-1.176 -0.656,-1.957 -0.145,-0.455 -0.503,-1.883 -0.929,-2.127 0.915,-0.798 2.293,-1.229 3.304,-1.994 -3.271,-2.231 -1.969,-7.563 0.891,-9.097 2.264,0.699 1.577,1.502 3.364,-0.971 0.109,-1.255 -0.364,-2.883 -1.178,-3.853 1.423,-0.644 2.88,-1.218 4.292,-1.88 -0.311,-0.671 -0.843,-1.096 -1.082,-1.861 -0.224,-0.716 -0.367,-1.428 -0.545,-2.138"
   inkscape:connector-curvature="0"
   style="fill:none;stroke:#646464;stroke-width:1.5;stroke-linejoin:round;stroke-miterlimit:3.88639998;display:inline" />
	
		<path
   id="path3252"
   display="inline"
   stroke-miterlimit="3.8637"
   d="m 215.154,-372.929 c 0.056,0.316 0.085,0.622 0.071,0.912 -0.034,0.665 -0.761,1.273 -0.843,1.888 -0.131,0.963 0.252,1.926 0.233,2.861 -0.019,0.784 -0.803,1.702 -0.936,2.616 -0.133,0.938 1.016,3.098 1.194,4.135 0.167,0.955 -0.447,2.029 0.263,3.061 0.256,0.37 0.745,0.487 1.062,0.787 0.191,0.641 -0.128,1.715 0.816,2.446 -0.062,0.301 -0.322,0.231 -0.562,0.199 -0.848,-0.114 -1.491,-0.063 -2.321,-0.144 -0.439,-0.039 -0.495,-0.691 -0.873,-0.843 -0.654,-0.263 -1.406,-0.09 -2.111,-0.085 -3.92,1.968 -0.957,3.443 -4.614,4.207 -0.296,0.061 -0.373,0.521 -0.671,0.587 -1.039,0.227 -2.986,-2.266 -3.188,-2.246 -3.184,0.313 -4.636,2.89 -7.777,3.158 -0.747,0.394 -0.888,1.389 -1.441,1.976 -0.279,0.295 -1.495,0.957 -1.514,1.114 -0.156,1.159 0.54,1.994 -1.457,3.792 -0.798,0.715 -1.958,0.941 -2.955,1.287 -0.426,0.146 -1.184,-0.253 -1.282,-0.128 -0.045,0.273 0.923,3.4 1.077,3.8 0.032,0.074 0.742,1.244 0.088,1.093 -0.446,-0.109 -1.715,-1.434 -2.229,-1.287 -0.835,0.236 -1.687,5.257 -1.776,5.262 -1.767,0.171 -1.833,-0.388 -3.146,-0.587 -0.309,-0.048 -0.662,0.896 -1.106,0.816 -0.469,-0.083 -0.955,-0.517 -1.474,-0.559 -1.391,-0.114 -3.631,1.037 -4.966,0.816 -2.077,-0.343 -3.449,-2.428 -5.591,-2.858 -1.875,-0.381 -0.755,1.425 -2.736,0.356 -0.665,-0.359 -0.816,-1.354 -1.574,-1.773 -0.671,-0.37 -4.032,-1.075 -5.097,-1.489 -1.346,-0.524 -2.412,-1.718 -3.233,-2.061 -5.338,1.643 -2.211,1.459 -5.271,3.462 -1.216,0.795 -3.559,0.417 -4.179,1.215 -0.389,0.139 -0.846,-0.144 -1.207,-0.242 l -0.498,0.271 c 0.011,0.388 -0.54,1.276 -0.715,1.604 -1.884,3.573 -3.995,0.454 -5.359,4.32 -0.131,0.37 -0.577,0.612 -0.639,1.003 0.708,0.497 0.977,1.202 1.862,1.888 -0.245,0.696 -0.804,1.888 -0.716,2.646 0.043,0.361 0.437,0.679 0.29,1.059 -0.394,0.034 -3.269,0.486 -3.378,0.971 -0.048,0.202 1.401,1.768 0.989,2.377 l -0.101,0.513 c 0.409,0.009 1.386,-0.066 1.673,0.274 0.608,1.479 -0.274,3.568 2.069,4.135 0.531,0.13 1.093,-0.112 1.529,0.013 -0.064,0.492 -0.437,0.968 -0.221,1.646 2.508,0.821 2.029,-0.077 3.133,0.258 0.944,0.284 0.915,0.952 2.096,0.888 1.75,-0.096 2.997,-0.648 4.835,-0.244 1.396,0.309 4.344,4.47 9.437,5.222 -0.011,0.285 0.309,0.529 0.466,0.742 0.622,0.125 3.601,1.082 3.596,1.287 -0.034,1.73 -2.099,2.391 -3.271,3.321 -0.859,0.683 -1.231,2.726 -1.918,3.637 -0.531,0.713 -2.154,1.059 -2.476,2.327 -1.341,5.289 0.354,4.897 1.736,8.591 0.253,0.67 0.099,1.293 0.239,1.965 0.072,0.356 0.437,1.58 0.415,1.824 -0.104,1.37 -2.071,3.053 -1.601,5.778"
   inkscape:connector-curvature="0"
   style="fill:none;stroke:#1478aa;stroke-width:0.42519999;stroke-linejoin:round;stroke-miterlimit:3.86369991;display:inline" />
	
		<path
   id="path3303"
   display="inline"
   stroke-miterlimit="3.8864"
   d="m 157.522,-276.902 c -0.474,-2.723 1.282,-4.575 1.386,-5.942 0.021,-0.244 -0.344,-1.468 -0.415,-1.824 -0.141,-0.673 0.014,-1.295 -0.239,-1.965 -1.386,-3.696 -3.077,-3.305 -1.737,-8.591 0.322,-1.271 1.941,-1.617 2.477,-2.327 0.687,-0.909 1.056,-2.954 1.918,-3.638 1.173,-0.931 3.239,-1.59 3.271,-3.32 0.006,-0.208 -2.971,-1.165 -3.596,-1.287 -0.156,-0.213 -0.476,-0.458 -0.465,-0.742 -5.094,-0.752 -8.038,-4.914 -9.437,-5.222 -1.838,-0.404 -3.086,0.148 -4.836,0.244 -1.181,0.063 -1.151,-0.604 -2.096,-0.888 -1.104,-0.333 -0.622,0.563 -3.133,-0.258 -0.216,-0.679 0.157,-1.154 0.221,-1.646 -0.437,-0.125 -0.997,0.114 -1.529,-0.013 -2.343,-0.566 -1.46,-2.657 -2.069,-4.135 -0.287,-0.338 -1.264,-0.264 -1.673,-0.274 l 0.102,-0.513 c 0.412,-0.609 -1.038,-2.173 -0.99,-2.378 0.109,-0.486 2.981,-0.938 3.378,-0.97 0.146,-0.383 -0.25,-0.7 -0.29,-1.059 -0.087,-0.758 0.471,-1.949 0.716,-2.646 -0.886,-0.687 -1.157,-1.391 -1.861,-1.888 0.061,-0.392 0.508,-0.633 0.638,-1.003 1.364,-3.863 3.477,-0.744 5.359,-4.321 0.173,-0.326 0.724,-1.215 0.716,-1.603 l 0.497,-0.271 c 0.361,0.099 0.819,0.383 1.207,0.242 0.62,-0.798 2.963,-0.421 4.179,-1.216 3.062,-2.002 -0.063,-1.818 5.271,-3.462 0.822,0.344 1.889,1.537 3.234,2.061 1.063,0.415 4.426,1.117 5.096,1.489 0.758,0.42 0.909,1.415 1.574,1.773 1.981,1.069 0.862,-0.733 2.737,-0.356 2.141,0.432 3.511,2.516 5.591,2.858 1.335,0.221 3.574,-0.93 4.965,-0.815 0.517,0.042 1.006,0.476 1.474,0.558 0.444,0.08 0.798,-0.861 1.106,-0.816 1.312,0.2 1.381,0.758 3.146,0.588 0.091,-0.008 0.941,-5.028 1.776,-5.262 0.514,-0.146 1.782,1.178 2.229,1.287 0.654,0.151 -0.057,-1.016 -0.088,-1.093 -0.157,-0.396 -1.123,-3.526 -1.077,-3.8 0.099,-0.123 0.856,0.276 1.282,0.127 0.997,-0.343 2.159,-0.571 2.954,-1.286 1.998,-1.798 1.301,-2.633 1.458,-3.792 0.021,-0.16 1.234,-0.819 1.513,-1.114 0.554,-0.585 0.694,-1.579 1.442,-1.976 3.141,-0.271 4.593,-2.845 7.776,-3.159 0.202,-0.019 2.152,2.473 3.189,2.247 0.298,-0.063 0.375,-0.523 0.67,-0.588 3.657,-0.76 0.697,-2.238 4.614,-4.206 0.705,-0.003 1.458,-0.179 2.112,0.085 0.38,0.154 0.434,0.803 0.872,0.843 0.833,0.077 1.474,0.026 2.322,0.144 0.239,0.032 0.5,0.102 0.562,-0.199 -0.942,-0.731 -0.623,-1.806 -0.817,-2.446 -0.316,-0.301 -0.809,-0.418 -1.061,-0.787 -0.71,-1.031 -0.096,-2.106 -0.264,-3.061 -0.178,-1.037 -1.327,-3.196 -1.194,-4.135 0.133,-0.915 0.918,-1.832 0.937,-2.616 0.019,-0.938 -0.364,-1.898 -0.234,-2.861 0.083,-0.614 0.812,-1.223 0.844,-1.888 0.013,-0.29 -0.017,-0.596 -0.072,-0.912"
   inkscape:connector-curvature="0"
   style="fill:none;stroke:#646464;stroke-width:1.5;stroke-linejoin:round;stroke-miterlimit:3.88639998;display:inline" />
	
		<path
   id="path3256"
   display="inline"
   stroke-miterlimit="3.8864"
   d="m 461.477,-198.531 c -0.617,0.205 -1.221,0.609 -2.064,0.293 -1.505,-0.566 -0.523,-3.346 -4.136,-2.276 -1.588,0.468 1.099,2.88 -2.396,2.888 -1.384,-0.003 -1.878,-2.643 -3.708,-1.316 -1.136,0.827 1.242,1.066 0.673,2.306 -0.412,0.898 -2.537,2.38 -2.495,3.385 0.066,1.588 1.814,2.053 2.322,3.361 1.521,3.905 -1.727,5.708 -4.529,2.815 -1.386,-1.431 -2.447,-4.308 -4.884,-3.768 -0.55,0.122 -0.739,0.63 -1.271,0.755 -0.827,0.191 -1.41,-0.667 -2.253,-0.29 -0.748,0.335 0.008,1.173 -0.179,1.649 -0.276,0.699 -1.21,0.93 -1.648,1.539 -0.594,0.821 -0.62,2.061 -1.381,2.681 -0.763,0.622 -1.606,0.579 -2.367,1.031 -1.468,0.875 -1.702,3.436 -3.133,4.584 -1.114,0.896 -1.335,-1.638 -2.298,-0.053 -1.338,2.201 0.941,2.491 -0.261,4.839 -0.62,1.216 -3.758,4.507 -3.486,5.382 0.138,0.438 0.651,1.184 0.63,1.601 -0.952,1.194 -2.231,2.444 -2.593,3.443 -0.106,0.296 -0.248,0.819 -0.469,1.04 -0.303,0.306 -1.386,0.151 -1.457,0.638 -0.088,0.583 1.133,1.059 1.431,1.386 0.41,0.444 -0.173,1.053 -0.029,1.202 2.037,2.063 0.79,1.363 1.824,3.188 0.142,0.248 0.74,-0.213 0.99,0.441 0.233,0.614 -0.481,0.559 -0.237,1.264 0.056,0.167 1.458,2.082 1.458,2.082 0.098,0.608 -2.721,1.885 -3.325,1.906 -1.684,0.059 1.481,-3.516 -1.295,-3.516 -1.213,0 -1.271,2.758 -1.58,3.042 -0.114,0.106 -1.271,-0.011 -1.529,-0.011 -1.726,-0.002 -2.957,2.263 -3.633,2.454 -0.54,0.154 -1.401,-0.266 -2.162,-0.135 -0.737,0.127 -1.514,0.826 -2.211,0.826 -0.281,0 -3.306,-1.358 -4.255,-1.443 -0.401,-0.037 -1.346,0.625 -1.617,0.449 -0.559,-0.361 0.398,-1.412 -0.939,-2.159 -0.167,-0.096 -1.154,-2.488 -1.119,-2.611 0.428,-1.553 0.947,-3.244 0.702,-4.897 -0.264,-1.771 -2.833,-3.013 -3.606,-4.47 -0.591,-1.109 -0.96,-3.718 -2.051,-4.454 -1.077,-0.729 -2.088,-2.172 -2.676,-3.283 -0.181,-0.344 0.341,-0.915 -0.061,-1.471 -0.447,-0.614 -1.296,-0.856 -1.5,-1.684 -0.163,-0.633 -0.017,-2.813 -0.737,-3.26 -0.878,-0.54 -6.218,-1.148 -7.572,-1.255 -0.505,-0.04 -1.114,-0.014 -1.534,-0.354 -0.282,-0.229 -0.833,-1.269 -0.987,-1.273 -0.46,-0.019 -0.915,0.231 -1.366,0.289 -0.444,0.057 -1.421,-0.199 -1.745,0.024 -1.694,1.162 -2.181,2.736 -3.833,3.999 -1.684,1.284 -3.526,1.239 -5.229,2.741 -1.006,0.891 -1.79,3.236 -2.804,4.284 -0.441,0.46 -1.17,-0.017 -1.348,0.202 -0.884,1.104 -2.117,1.771 -3.003,2.808 -0.176,0.205 -0.123,0.604 -0.352,0.771 -0.061,0.046 -1.752,0.471 -1.891,0.489 -0.556,0.072 -1.304,-0.087 -1.816,0.08 -0.921,0.298 -1,1.255 -3.873,1.84 -0.233,0.048 -0.489,0.197 -0.702,0.301 -0.42,0.205 -0.675,0.648 -1.045,0.901 -0.224,0.151 -0.907,-0.136 -1.282,-0.063 -0.713,0.133 -1.167,0.747 -1.771,0.843 -1.678,0.269 -4.184,-0.761 -5.542,-0.218 -0.878,0.354 -2.716,2.6 -3.569,2.879 -0.359,0.117 -0.716,0.021 -1.029,-0.146 -0.577,0.181 -1.259,2.786 -1.461,3.331 -0.01,0.029 -3.414,2.946 -3.67,3.252 -0.434,0.516 -0.651,1.062 -1.165,1.606 -0.351,0.372 -0.955,0.662 -1.471,0.664 -0.731,0.003 -1.764,-0.534 -2.441,-0.653 -1.477,-0.264 -4.884,-0.418 -6.293,-0.114 -0.771,0.167 -1.649,3.425 -2.287,3.627 -1.011,0.321 -3.437,0.896 -4.444,0.983 -1.151,0.099 -4.298,-0.593 -4.875,0.011 -0.441,0.463 -1.271,0.818 -1.274,1.534 l -0.005,0.723 c 0,0.16 0.364,0.575 0.311,0.639 -0.733,0.88 -2.108,1.894 -2.681,2.933 -0.13,0.239 -0.301,0.534 -0.519,0.702 -0.381,0.29 -2.455,1.066 -2.604,1.428 -0.5,1.226 1.396,2.404 1.244,2.88 -0.516,1.616 -2.646,3.124 -3.332,4.61 -0.267,0.574 0.721,2.742 0.648,3.394 -0.205,1.914 -0.872,4.384 -0.779,6.274 0.021,0.367 0.274,2.295 0.402,2.508 0.218,0.361 0.721,0.588 1.013,0.891 0.313,0.324 2.684,4.948 2.75,5.451 0.469,3.451 -4.484,2.199 -1.633,5.632 0.429,0.516 0.782,1.104 1.271,1.568 0.625,0.602 4.258,3.306 4.301,3.582 0.074,0.489 -2.878,0.946 -3.479,1.537 -0.98,0.957 -3.229,4.85 -4.074,5.517 -1.199,0.949 -1.609,0.021 -2.639,1.941 -0.394,0.739 0.008,2.516 -0.457,3.013 -0.694,0.742 -1.287,-0.231 -1.995,0.085 -0.3,0.136 -0.481,1.011 -0.816,1.29 -0.835,0.702 -7.883,4.491 -8.546,4.164 -0.332,-0.165 -0.733,-1.356 -0.821,-1.726 -0.096,-0.423 -0.551,-1.316 -0.87,-1.599 -1.806,-1.582 -4.611,-1.866 -6.389,0.051 -0.46,0.497 -0.479,1.255 -1.047,1.73 -0.966,0.809 -2.099,1.543 -3.02,2.369 -0.17,0.154 -0.721,0.779 -0.909,0.756 -0.721,-0.091 -2.415,-2.021 -2.878,-2.588 -0.394,-0.489 -2.835,-3.146 -2.904,-3.456"
   inkscape:connector-curvature="0"
   style="fill:none;stroke:#646464;stroke-width:1.5;stroke-linejoin:round;stroke-miterlimit:3.88639998;display:inline" />
	
		<path
   id="path3318"
   sodipodi:nodetypes="cscccccccccccccccccsc"
   display="inline"
   stroke-miterlimit="3.8864"
   d="m 461.469,180.685 c -0.146,0.016 -1.543,-0.545 -2.094,-0.526 -1.542,0.056 -3.832,1.127 -5.426,1.497 -5.764,-2.425 -2.372,-2.638 -10.213,-3.104 -0.968,0.756 -11.114,9.91 -11.551,10.554 -3.434,1.122 -5.75,2.298 -9.432,2.678 -0.901,1.266 -8.069,1.983 -9.705,1.38 -0.909,0.054 -2.223,1.029 -2.957,1.574 -0.642,-0.332 -1.312,-0.614 -1.984,-0.883 0.187,-0.593 -0.869,-1.931 -1.04,-2.638 -1.099,-0.981 -3.718,-1.874 -5.202,-1.909 -1.003,-1.125 -1.761,-1.229 -3.149,-1.38 -1.096,0.332 -1.659,1.343 -2.582,1.941 -2.989,-0.41 -4.059,1.635 -5.163,1.928 l -0.199,0.721 c -0.542,0.648 -1.273,0.811 -1.971,1.218 -0.276,0.457 -0.526,0.938 -0.75,1.425 -1.048,0.489 -1.944,0.032 -2.896,0.806 -0.933,-0.073 -1.853,-0.056 -2.771,0 -1.806,0.109 -3.605,0.361 -5.495,0.349 -8.854,-0.061 -17.81,-0.309 -26.661,-0.271"
   inkscape:connector-curvature="0"
   style="fill:none;stroke:#646464;stroke-width:1.5;stroke-linejoin:round;stroke-miterlimit:3.88639998;display:inline" />
	<path
   id="path4161"
   display="inline"
   stroke-miterlimit="3.8864"
   d="m 142.185,519.493 c 0.577,-0.821 0.996,-0.441 1.246,-0.664 0.163,-0.139 0.359,-0.612 0.665,-0.665 0.562,0.042 0.811,0.305 1.496,0.249 0.559,-0.523 -0.433,-0.694 1.081,-1.412 0.162,0.011 0.79,0.179 0.748,0.415 -0.495,1.173 0.352,2.725 1.745,2.244 0.529,-0.184 0.666,-0.932 1.164,-0.333 0.236,0.691 3.729,0.79 4.072,0.997 0.659,0.401 1.475,1.834 2.493,2.493 0.181,0.119 1.289,-0.713 1.912,-0.665 1.026,0.08 2.246,2.617 2.576,3.407 0.941,0.406 0.937,0.674 1.662,1.163 0.296,0.066 0.61,-0.187 0.831,-0.083 2.009,0.946 3.719,5.32 8.728,3.24 1.588,0.423 3.182,1.641 4.737,1.994 0.774,0.176 1.751,-0.232 2.078,-0.166 0.571,0.117 1.228,0.982 1.828,1.163 1.401,0.434 3.993,-0.408 5.402,-0.581 0.25,0.053 0.415,0.201 0.665,0.249 3.639,-0.856 0.413,-3.122 -0.249,-5.401 0.224,-0.601 2.191,-3.21 2.659,-3.489 0.396,-0.727 -0.956,-0.774 0.167,-2.077 0.483,-0.182 0.88,0.1 1.329,0.249 3.649,1.199 1.713,1.294 3.657,2.575 0.234,-0.019 0.458,0.148 0.665,0.25 0.401,0.729 0.501,0.635 1.413,0.581 0,-0.797 -0.144,-1.694 -0.249,-2.492 -0.117,-0.872 0.288,-3.064 0.498,-4.072 3.112,-0.068 2.552,-3.885 3.74,-4.652 1.221,-0.79 3.119,-0.45 3.574,-0.748 0.694,-1.13 1.732,-1.927 2.41,-3.158 4.984,-1.794 1.372,-2.923 -0.748,-4.736 -0.724,-0.619 -0.175,-1.535 -0.665,-2.16 -0.867,-1.122 -2.186,-1.424 -2.576,-3.157 -0.508,-2.226 3.012,-2.517 3.158,-5.152 0.102,-1.803 -4.599,-5.382 -3.657,-6.647 0.521,-0.699 1.469,-0.859 2.078,-1.412 0.602,-0.548 0.406,-1.796 1.247,-1.496 0.976,0.106 1.619,1.459 2.327,1.828 2.944,0 1.001,0.056 3.407,0.665 5.309,1.34 3.807,1.375 7.397,4.736 0.718,0.67 2.71,1.952 3.657,0.665 1.069,-0.37 1.999,-0.066 1.911,-1.662 1.306,-1.713 3.878,-4.108 4.571,-6.065 0.191,-0.543 -0.483,-1.464 0,-2.41 -0.026,-0.398 0.269,-1.188 0.25,-1.246 -0.099,-0.349 -0.908,-1.25 -0.748,-1.662 0.164,-0.426 0.626,-0.655 0.831,-1.08 0.526,-1.091 -1.233,-2.071 -1.912,-2.908 -1.287,-1.599 -2.857,-4.006 -3.823,-5.816 -0.571,-1.063 -0.59,-2.314 -1.33,-3.407 -0.029,-0.101 0.392,-1.714 0.333,-2.16 -0.657,-0.399 -2.009,-0.565 -2.41,-0.831 -0.312,-0.202 -0.24,-0.951 -0.416,-1.246 -0.455,-0.756 -1.234,-1.351 -1.33,-2.244 -0.023,-0.231 0.021,-1.244 -0.332,-1.329 h -0.416 c -0.42,-0.136 -0.774,-1.205 -1.163,-1.33 -1.16,0.123 -3.361,-1.688 -3.906,-2.908 0.148,-0.898 1.579,-5.982 1.579,-5.982 -0.322,-2.431 -3.344,-4.788 -3.74,-5.567 -0.264,-0.519 -0.105,-1.191 -0.499,-1.662 -0.457,-0.547 -1.034,0.404 -1.662,-1.412 -0.313,-0.912 -0.558,-1.902 -0.914,-2.825 -0.035,-0.093 -0.286,-0.821 -0.166,-0.914 0.151,-0.122 2.396,-0.332 2.742,-0.332 1.551,0 3.271,0.253 4.821,0.415 0.306,0.032 5.143,0.53 5.568,0.415 0.769,-0.207 0.621,-1.045 1.496,-1.329 0.313,-0.104 2.387,-0.442 2.493,-0.498 0.216,-0.114 1.381,-3.182 1.33,-3.49 -0.149,-0.928 -0.542,-0.967 -0.249,-2.16 0.034,-0.142 1.447,-1.563 1.745,-1.911 v -0.333 c 0.947,0.066 0.974,-3.088 1.33,-3.406 0.053,-0.051 0.592,-0.778 0.581,-0.831 -0.037,-0.234 -0.706,-0.874 -0.831,-1.246 -0.162,-0.469 -0.146,-1.084 -0.332,-1.496 0.356,-1.252 2.438,-1.84 2.244,-3.324 1.313,-0.252 6.018,-3.666 7.23,-3.323 0.114,-0.276 0.646,-0.403 0.915,-0.499 0.244,0.162 0.554,0.14 0.831,0.167 1.193,0.098 0.842,0.697 1.496,1.412 0.372,0.102 0.731,0.555 0.997,0.831 0.604,0.199 3.274,0.601 3.407,0.665 1.913,-1.284 1.265,-0.184 2.161,-2.327 1.444,-0.59 2.108,-1.414 2.494,-2.908 h 0.166 c 0.13,0.361 0.455,0.457 0.748,0.665 -0.075,0.224 0.829,0.287 0.997,0.332 0.514,0.139 1.002,0.546 1.579,0.748 0.173,0.062 4.592,3.395 4.737,3.573 0.471,-0.08 0.881,-0.366 1.33,-0.499 0.937,-0.276 2.73,-0.058 3.823,-0.249 1.343,-0.236 2.738,-1.157 4.156,-1.413 0.434,-0.077 0.852,0.441 1.745,0 0.106,-0.053 3.079,-3.334 4.238,-3.655 0.029,-0.139 -0.096,-0.609 0,-0.665 0.229,-1.162 3.009,-1.08 3.657,-0.665 l 0.25,-0.498 c 0.258,-0.114 2.021,0.175 2.742,0 1.452,-0.354 2.965,-1.989 4.239,-1.994 0.354,0.159 0.639,0.425 0.997,0.581 0.431,0.316 0.264,-1.253 0,-1.412 -0.063,-0.691 -0.001,-1.154 0.499,-1.662 0.071,-0.255 0.005,-2.439 -0.083,-2.742 -0.077,-0.276 -0.494,-0.597 -0.25,-1.163 0.066,-0.33 -0.198,-1.032 -0.498,-1.413 0.261,-0.372 1.015,-1.504 1.163,-1.911 0.043,-0.116 0.185,-0.653 0.416,-0.581 0.178,-1.912 0.554,-2.371 2.078,-3.573 0.05,-0.157 0.41,-0.99 0.415,-1.08 -0.234,-0.503 -0.563,-0.645 -1.163,-1.163 -0.529,-0.636 -1.352,-1.002 -1.995,-1.579 -0.011,-0.654 -1.39,-1.584 -0.499,-2.493 0.088,-0.361 -0.189,-0.724 -0.166,-1.08 0.059,-0.888 0.83,-1.587 1.08,-2.326 0.029,-0.085 -0.321,-0.905 -0.664,-1.163 0.042,-1.407 0.918,-0.949 1.745,-1.247 0.196,-0.069 0.739,-0.941 0.997,-1.08 1.327,-0.715 2.315,-0.198 3.491,-1.246 0.346,-0.309 0.95,-2.591 1.163,-3.075 0.412,-0.936 2.707,-1.785 2.494,-3.905 -0.017,-0.154 -0.682,-0.917 -0.748,-1.329 -0.057,-0.354 0.097,-1.646 -0.167,-1.911 -0.079,-0.287 0.843,-2.035 0.25,-3.49 0.108,-0.358 0.277,-0.721 0.166,-1.08 -0.151,-0.489 -4.895,-1.293 -2.078,-7.063 -0.093,-0.383 0.009,-0.791 0.083,-1.163 1.221,-1.109 3.064,-2.653 3.99,-3.906 0.269,-0.358 0.118,-2.604 0.498,-3.24 1.04,-1.752 1.451,-0.442 1.829,-0.748 0.329,-0.266 1.025,-0.506 1.246,-0.831 0.168,0.125 0.292,0.293 0.499,0.333 0.898,-0.612 1.105,0.019 1.496,-1.33 0.332,-0.358 1.409,-0.71 1.579,-1.08 0.005,-0.069 -1.28,-2.511 -1.496,-2.742 0.011,-1.125 2.433,-4.542 3.906,-4.736 h 0.665 c -0.005,0.008 -0.76,-0.513 -0.582,-2.243 0.133,-0.045 0.339,-0.122 0.416,-0.249 0.994,0.329 2.572,-0.796 2.742,-1.745 0.048,-0.253 -0.332,-0.507 -0.332,-0.831 0,-0.979 0.415,-3.68 0.665,-4.653 -0.441,-1.162 -2.162,-6.927 0,-6.979 -0.588,-0.904 0.369,-0.95 -0.333,-1.745 -0.673,-0.758 -2.09,-3.817 -0.249,-4.155 0.13,-0.105 0.297,-0.28 0.499,-0.581 0.705,-0.628 1.146,-0.741 1.911,-1.163 0.852,0.749 1.48,-1.403 2.493,-1.247 0.29,0.136 0.83,0.617 0.998,0.665 l 1.08,-0.499 c 0,-0.343 -0.227,-1.542 -0.083,-1.744 0.188,-0.219 0.877,-0.613 1.164,-0.831 0.313,-1.324 0.822,-2.239 1.08,-3.656 -0.099,-0.141 -0.137,-0.331 -0.166,-0.499 0.271,-0.744 0.817,-1.578 1.413,-2.492 0.013,-0.71 0.134,-0.889 0.748,-1.33 0.156,-0.749 0.546,-1.138 1.08,-0.332 h 1.745 c 0.899,0.372 1.253,1.252 1.912,1.579 0.449,0.221 1.142,0.175 1.413,0.664 h 0.498 c 0.154,-0.175 0.693,-0.554 0.499,-0.83 0.753,-0.131 1.455,0.082 1.995,0 0.886,-0.134 0.197,-1.092 2.078,-0.084 0.324,0.024 0.514,-0.346 0.831,-0.332 0.223,0.122 0.394,0.341 0.665,0.332 0.436,-0.188 0.697,-0.84 1.412,-0.332 0.165,0.184 1.044,0.527 1.081,0.748 l 0.665,0.083 c 0.385,0.358 0.151,0.928 0.332,1.329 0.989,-0.226 0.747,0.673 1.247,0.997 0.074,0.051 0.915,0.017 0.748,0.333 0.175,0.011 0.342,-0.079 0.498,-0.166 0.146,0.114 0.394,0.179 0.582,0.166 0.33,-0.184 1.666,-0.632 1.829,-0.831 0.579,0.481 0.989,-0.526 1.662,-0.249 0.369,-0.309 0.759,-0.512 1.163,-0.748 0.16,-0.094 0.393,-0.01 0.499,-0.166 -1.386,-0.83 0.687,-3.887 1.08,-4.155 1.939,-0.401 1.893,-2.236 1.829,-3.988 -1.623,-0.415 -0.842,-4.818 -0.167,-5.65 0.682,-0.838 0.56,0.717 1.746,-0.166 0.114,-0.264 0.196,-0.547 0.249,-0.831 0.872,-0.654 3.579,-2.803 4.571,-3.074 0.479,-0.431 0.189,-1.322 -0.249,-2.077 0.106,-0.338 1.094,-0.868 0.748,-1.164 0.159,-0.699 0.769,-0.884 0.665,-1.828 l 0.581,0.167 c 0.74,0.526 0.855,-1.22 2.494,-1.164 0.25,0 0.805,-0.213 0.914,-0.083 l 0.582,0.333 c 0.221,0.125 1.396,0.104 1.662,0 0.343,-0.447 1.908,-0.833 1.828,-1.08 -0.165,-0.256 -0.086,-0.432 -0.166,-0.665 0.133,-0.224 0.15,-1.268 0.166,-1.579 0.492,-0.348 1.293,-1.554 0.665,-2.077 l 0.166,-0.914 c -0.566,-1.968 -2.438,-3.787 -0.166,-4.736 0.162,-0.798 0.369,-1.542 0.582,-2.326 -0.144,-0.139 -0.313,-0.339 -0.499,-0.416 0.506,-1.364 -0.104,-1.457 -0.332,-2.659 0.994,-0.526 1.454,-0.631 2.576,-0.831 -0.05,-2.053 -0.923,-3.701 -0.997,-5.068 -0.144,-2.65 0.78,-6.299 1.163,-8.974 -0.898,-1.128 -2.203,-2.715 -2.825,-3.989 -1.654,-3.376 -3.293,-6.41 -5.652,-9.306 -0.311,-0.383 -1.538,-1.454 -1.745,-1.911 -1.835,-1.896 -4.167,-2.197 -5.568,-4.404 -0.441,-0.696 0.565,-2.274 0.249,-3.157 -0.213,-0.585 -0.13,-3.308 -0.665,-3.573 -0.205,-0.102 -1.587,0.058 -1.911,-0.083 -0.932,-0.401 -1.163,-1.568 -1.995,-1.911 -0.389,-0.162 -1.737,-0.176 -1.745,-0.333 2.176,-0.21 6.15,-4.616 6.15,-6.73 v -8.309 c 0,-4.579 -2.322,-16.988 -0.998,-20.192 -0.082,-0.476 -1.137,-1.254 -1.496,-1.578 -1.019,-0.92 -0.185,-3.018 -2.493,-2.244 -0.599,-0.521 -2.146,-3.11 -2.992,-3.323 -0.281,0.003 -0.65,0.063 -0.914,0.166 -0.955,-1.758 -2.391,0.415 -3.324,0.415 -0.873,0 -1.519,-0.534 -2.327,-0.747 -0.713,0.46 -0.946,1.373 -0.915,2.16 -2.401,-0.659 -2.452,-0.222 -4.321,-2.077 -2.941,-0.511 -6.811,-2.616 -9.476,-3.988 -0.758,1.061 -4.105,5.529 -4.238,6.813 -0.051,0.5 0.233,1.865 -0.333,2.243 l -0.083,0.083 -0.582,0.249 -0.498,0.333 -2.66,1.745 h -0.665 l -2.244,-0.665 -0.831,-0.415 -0.415,-0.167 -0.998,-0.249 -0.581,-0.083 h -0.25 l -0.249,0.166 -1.08,-0.415 -0.084,0.083 -2.659,0.332 -0.665,0.083 -0.914,-0.415 -0.582,-0.665 -0.665,-0.083 -3.324,-1.662 -0.083,-0.166 -3.574,-13.129 -2.742,-11.051 -0.416,-2.41 -6.566,-22.269 -8.062,0.249 -0.499,-0.332 -0.332,-0.084 -1.746,-0.166 -3.823,-0.747 -0.415,-0.084 c -0.33,-0.068 -0.684,-0.129 -0.998,-0.249 -0.454,-0.744 -0.398,-1.475 -0.664,-2.243 -0.437,-1.273 -1.72,-1.823 -2.161,-3.158 -0.146,-0.454 0.234,-1.275 0.748,-1.246 0.016,-0.269 0.256,-0.468 0.415,-0.665 v -0.498 l 0.25,-0.249 v -0.167 l -0.25,-0.249 v -0.249 c 0.274,-0.224 1.39,-0.709 1.829,-0.914 0.675,-0.563 -0.612,-1.931 -0.665,-2.326 0.42,-0.623 0.187,-0.662 -0.582,-0.914 -0.021,-0.094 -0.088,-0.271 0,-0.333 0.114,-1.076 -1.558,-2.421 -1.579,-2.492 -0.514,-1.941 0.519,-1.433 -0.997,-3.158 -0.415,0.019 -0.641,-1.074 -0.915,-1.329 0.202,-0.25 -0.979,-0.947 -1.08,-1.08 l 0.083,-0.25 c 0.082,-0.752 -1.992,-2.92 -2.41,-3.489 -0.141,-0.149 0.258,-0.446 0.332,-0.582 0,-0.348 -0.057,-0.712 0.167,-0.997 -0.131,-0.356 -0.14,-0.796 -0.416,-1.08 v -0.332 c -0.071,-0.646 -0.852,0.252 -1.08,0.581 -0.356,-0.114 -1.045,-0.778 -1.247,-0.664 -0.202,-0.378 -0.594,-1.003 -1.08,-0.997 l -0.25,0.083 v 0.498 l -0.831,-0.166 c -0.13,-1.144 -1.975,-1.341 -1.163,-3.074 -0.202,-0.399 -0.801,-2.151 -0.915,-2.659 -0.431,-0.173 -1.377,-1.016 -0.997,-1.579 -0.386,-1.172 -0.48,-1.153 -1.164,-1.911 -0.016,-0.255 -0.291,-0.454 -0.498,-0.581 -0.062,-0.176 0.201,-2.325 0.249,-2.41 -0.516,-0.449 1.954,-1.711 0.499,-2.493 l -0.083,-0.415 c -0.16,-0.266 -0.846,-1.546 -0.915,-1.828 0.149,-0.423 -0.131,-0.732 0.25,-1.163 l -0.25,-0.083 c -0.465,-0.668 -0.751,-3.575 -0.831,-4.487 -0.111,-1.316 2.272,-2.116 -0.249,-3.573 -0.191,-0.372 -0.832,-2.648 0,-2.658 -0.014,-0.227 -0.056,-0.527 0,-0.748 l -0.582,-0.582 0.083,-0.249 h -0.083 c 0.33,-2.659 -1.059,-2.525 -1.662,-4.57 -0.151,-0.526 0.254,-1.14 0.083,-1.579 -0.165,-0.287 -0.576,-0.538 -0.914,-0.498 -0.205,-0.128 -0.759,-0.841 -0.831,-1.08 l 0.499,-0.166 c 0.026,-0.691 0.868,-0.669 1.163,-1.413 -0.122,-0.085 -0.258,-0.202 -0.332,-0.332 -0.106,-0.551 -0.243,-1.516 0.249,-1.911 l 0.831,-0.083 c 0.673,0.446 1.226,0.968 1.912,1.412 0.082,0.306 0.975,1.546 1.246,1.413 l 0.748,-0.416 c 0.112,-0.952 0.957,-1.053 1.247,-1.662 0.032,-0.289 0.071,-0.546 0,-0.83 l 0.166,-0.333 -0.083,-1.578 c 0.593,-0.423 1.604,-0.749 2.078,-1.164 0.096,-0.178 0.166,-0.463 0.166,-0.664 -0.136,-0.194 -0.188,-0.426 -0.166,-0.665 0.218,-0.295 0.775,-1.36 0.914,-1.496 0.569,-0.178 0.889,-0.489 0.997,-1.08 0.189,-0.125 0.361,-0.198 0.582,-0.249 0.367,-0.447 0.836,-1.045 0.748,-1.662 -0.242,-0.548 -1.125,-0.804 -1.33,-1.412 -0.034,-0.165 0.838,-0.61 0.998,-1.164 l 0.166,-0.914 c 0.199,-0.943 0.222,-1.74 0.831,-2.575 0.446,-0.197 0.901,-0.321 1.33,-0.582 l -0.416,-2.659 -0.499,-0.415 0.084,-0.748 c -1.341,-0.59 -2.713,-2.081 -3.99,-2.908 0.338,-0.71 0.536,-1.676 0.167,-2.409 -0.104,-0.134 -0.325,-0.24 -0.748,-0.084 l -1.247,-0.083 -0.499,0.083 c -0.008,-0.188 -0.285,-0.131 -0.415,-0.166 l -0.167,-0.332 -0.415,-0.166 -1.081,0.415 c -0.212,-0.013 -0.582,-0.349 -0.664,-0.332 -0.125,0.021 -0.185,0.27 -0.416,0.166 -0.215,-1.247 -0.929,-1.163 -1.08,-1.828 -0.213,-0.915 0.76,-1.033 0.914,-1.828 L 249.728,29.85 V 29.6 l -0.582,-0.498 c -0.213,-0.554 -0.851,-3.114 -1.247,-3.407 -0.194,-0.491 0.229,-1.947 -0.083,-2.492 0.104,-0.171 -1.105,-2.828 -1.247,-3.158 -1.008,-2.369 -2.136,-1.182 -2.992,-1.828 l -0.332,-0.83 c -0.234,-0.184 -0.445,-0.316 -0.748,-0.25 -0.523,0.306 -1.112,0.904 -1.745,0.333 -0.623,-1.062 1.285,-1.987 1.745,-2.742 -0.319,-1.407 -3.889,0.429 -5.07,-2.161 0.024,-0.521 -0.058,-0.711 -0.249,-1.163 0.141,-3.055 3.221,-2.508 3.989,-3.074 0.585,-1.489 0.236,-1.494 -0.083,-3.24 -0.188,-0.102 -0.582,-0.691 -0.582,-0.914 -0.079,-0.117 -0.969,-0.29 -1.163,-0.333 -0.242,-0.178 -0.093,-0.529 0,-0.748 -0.019,-0.361 -0.76,-0.193 -0.914,-0.332 -1.091,-0.973 1.086,-1.862 1.745,-2.16 0.274,-0.125 0.567,-0.24 0.831,-0.416 0.827,-0.056 1.635,0.189 2.493,0.083 0.227,-0.028 0.515,-0.157 0.748,-0.083 0.152,0.144 0.375,0.298 0.582,0.333 1.588,-1.332 2.308,-0.782 3.491,-1.413 1.269,-0.675 1.61,-0.062 2.908,-0.083 l 0.915,-0.665 h 0.498 c 0.596,-0.67 3.481,-3.309 3.907,-3.489 0.244,-0.102 0.883,0.483 1.662,-0.665 3.156,-0.023 0.015,-3.836 0.582,-4.902 0.646,-1.215 -0.135,-1.798 -1.164,-2.41 -0.312,-0.771 0.043,-1.663 -0.249,-2.243 -0.237,-0.463 -0.818,-0.863 -1.164,-1.579 l 0.499,-0.249 c 0.494,-0.883 -2.851,-3.463 -3.906,-3.739 -0.072,-0.093 -0.167,-0.304 -0.167,-0.415 0,-0.399 0.511,-0.771 0.582,-1.163 0.208,-1.099 -0.203,-2.118 -0.166,-3.158 -0.128,-0.489 -2.31,-2.424 -2.161,-2.908 1.024,-1.226 2.922,-6.16 2.826,-7.562 -0.011,-0.133 -0.234,-0.201 -0.333,-0.249 -0.319,-1.292 0.158,-2.938 -0.249,-4.238 -0.505,-1.611 -2.155,-2.252 -2.41,-4.403 -0.354,-0.304 -0.453,-0.588 -0.166,-0.997 -0.248,-0.354 0.006,-1.617 0.083,-2.077 0.233,-0.25 0.511,-0.329 0.748,-0.582 0,-4.765 0.138,-4.251 2.327,-8.559 0.423,-0.832 1.494,-0.918 1.33,-2.077 -0.216,-0.295 -0.93,-0.637 -0.832,-1.08 0.293,-0.54 1.742,-0.831 2.328,-0.748 1.059,-0.636 1.037,-1.797 0.748,-2.908 2,0.204 6.087,2.842 5.568,-0.997 -0.066,-0.5 0.409,-0.951 0.332,-1.247 -1.867,-1.438 -0.698,-3.553 -1.579,-5.4 -0.396,-0.835 -1.012,-1.14 -1.496,-1.828 -0.061,-1.596 0.943,-3.702 0.914,-5.318 -0.039,-2.438 -1.283,-4.535 -0.498,-7.229 1.181,0.019 1.453,-0.721 2.161,-1.412 1.418,-0.691 3.629,0.723 5.069,0 0,-3.651 -3.222,-8.322 -4.405,-11.883 l 1.746,0.083 c 2.042,-1.409 1.359,-4.72 4.986,-3.406 0.469,-0.63 0.434,-1.274 1.247,-1.745 0.298,-0.17 0.889,-0.369 1.08,-0.665 1.189,-1.824 2.577,-8.884 1.33,-10.719 -1.128,-1.662 -2.205,-1.688 -3.075,-4.321 -0.431,-1.303 0.26,-3.797 -1.08,-4.985 -0.12,-0.681 -0.229,-1.864 -0.665,-2.409 -0.179,-0.227 -0.866,-0.595 -0.914,-0.831 -0.067,-0.316 -0.329,-4.565 -0.167,-4.902 -1.193,-3.346 -5.104,-5.266 -5.402,-5.733 -0.502,-0.793 -0.996,-1.812 -1.496,-2.659 -0.611,-1.034 -0.654,-1.563 -0.997,-2.576 -0.151,-0.452 -0.788,-0.829 -0.831,-1.329 -0.066,-0.854 2.334,-2.607 2.244,-4.155 -0.016,-0.313 -1.51,-2.051 -1.247,-2.825 0.301,-0.883 1.89,-2.822 1.829,-3.822 -0.072,-1.226 -2.442,-4.085 -2.743,-5.4 -0.149,-0.651 0.912,-1.213 0.665,-1.662 -0.399,-0.726 -2.688,-2.7 -3.158,-3.49 -0.293,-0.489 0.901,-1.16 0,-2.077 -0.79,-0.801 -0.08,-0.478 -0.333,-1.163 -0.284,-0.776 -1.14,-1.486 -1.496,-2.327 -0.303,-0.71 -2.481,-8.431 -2.41,-8.891 -0.375,-0.553 -1.019,-0.975 -1.33,-1.496 -0.321,-0.542 -0.394,-1.595 -0.665,-1.994 -0.045,-0.069 -2.448,-0.716 -2.908,-1.412 -0.333,-0.503 -0.404,-2.479 -0.998,-3.407 -0.292,-0.457 -0.81,-0.388 -1.163,-0.664 -0.378,-0.298 -0.257,-0.74 -0.499,-1.081 -0.75,-1.061 -2.086,0.017 -3.075,-3.655 -1.279,-0.91 -2.514,-1.722 -3.657,-2.825 -0.21,-0.202 -0.305,-0.457 -0.581,-0.582 -0.878,-0.391 -2.205,-0.41 -2.992,-1.08 -0.471,0.016 -2.754,-0.074 -3.075,-0.249 -0.279,-0.152 -0.514,-1.218 -0.665,-1.247 -1.259,-0.242 -3.328,-0.146 -4.405,-1.08 -0.859,-0.744 -0.975,-4.314 -2.493,-3.822 -0.171,-0.099 -0.388,-0.112 -0.582,-0.083 -0.892,-1.17 -7.957,-2.372 -7.231,-2.991 0.224,-0.521 0.067,-1.111 0.084,-1.662 -0.724,-0.713 -1.137,-1.592 -1.746,-2.16 -0.936,-0.218 -0.877,-0.489 -1.579,-0.914 -2.151,-0.157 -2.494,0.15 -3.906,1.495 -0.352,0.338 -1.05,0.415 -1.496,0.665 -0.758,0.42 -0.947,1.799 -1.995,1.163 -0.335,-0.202 -0.619,-0.583 -0.914,-0.831 -0.611,-0.513 -0.94,-0.195 -1.246,-1.163 -1.819,-0.994 -6.848,2.396 -8.063,0 -0.838,-0.452 -1.456,0.134 -2.161,-0.581 -0.333,-0.338 0.941,-4.503 -2.66,-6.149 0.844,-0.675 1.69,-1.128 2.494,-1.745 0.21,-0.434 0.005,-1.124 0,-1.578 -0.011,-0.697 0.417,-2.034 0.249,-2.576 -0.154,-0.495 -0.626,-0.865 -0.831,-1.413 -0.208,-0.55 0.051,-1.321 -0.249,-1.994 -0.253,-0.167 -0.869,-0.589 -1.164,-0.581 -0.92,-0.766 -1.915,-1.308 -2.66,-2.244 -0.173,-0.221 -0.345,-0.58 -0.581,-0.747 -0.617,-0.444 -2.853,-1.124 -2.743,-2.161 0.037,-0.351 0.554,-0.34 0.665,-0.664 0.144,-0.418 0.056,-0.96 0.332,-1.33 0.998,-1.348 3.295,-0.812 2.909,-3.406 -0.114,-0.761 -1.415,-3.95 -1.994,-4.487 -2.211,-0.188 -2.001,-2.48 -2.743,-2.991 -0.548,-0.378 -2.497,-0.931 -2.659,-1.33 -0.702,-1.749 1.317,-1.923 1.163,-2.742 -0.247,-1.337 -2.007,-2.188 -2.826,-2.991 -0.409,-0.401 -0.411,-1.146 -0.581,-1.661 -0.25,-0.764 -0.067,-1.481 -0.416,-2.327 -0.633,-0.662 -1.514,-1.025 -2.078,-1.828 -0.154,-0.215 -0.502,-1.296 -0.665,-1.745 0.5,-0.385 0.144,-1.065 0,-1.578 -0.311,-0.309 -0.945,-0.217 -1.163,-0.416 -2.157,-1.976 -4.741,-2.807 -7.48,-3.905 -0.75,-0.301 -0.555,-0.868 -1.163,-1.163 -1.08,-0.524 -2.236,-0.602 -3.242,-1.413 -0.606,-0.489 -1.476,-0.467 -1.579,-0.581 -0.111,-0.12 -0.764,-2.114 -1.08,-2.659 -0.191,-0.332 -1.094,-0.822 -1.081,-1.08 0.112,-2.266 -2.761,-2.721 -4.404,-2.991 -0.309,0.144 -2.016,-0.585 -2.577,-0.665 -0.21,-0.029 -1.113,1.904 -1.163,1.994 -0.115,0.213 -0.382,0.369 -0.499,0.582 -1.202,0.519 -2.621,0.623 -3.823,1.163 -0.447,0.202 -0.667,0.687 -1.247,0.748 -0.622,0.063 -1.209,-0.298 -1.828,0 -0.423,0.553 -0.302,1.016 -0.499,1.661 0.614,2.159 0.441,1.387 -0.332,3.158 -0.051,0.883 -1.158,4.472 -2.161,4.57 -1.176,-0.639 -6.54,-1.787 -7.314,-0.333 -0.194,0.112 -3.162,-0.325 -3.324,-0.415 -0.412,-0.609 -0.705,-0.47 -1.33,-1.163 -0.609,-0.452 -1.118,-1.055 -1.828,-0.167 -0.386,0.08 -0.778,0.144 -1.164,0.25 -0.148,0.446 -4.3,2.759 -5.236,2.492 -0.101,-0.106 -0.254,-0.156 -0.498,0.083 0.162,0.474 -0.054,0.861 -0.333,1.247 0.014,0.8 0.295,1.847 0.25,2.575 -0.019,0.301 -1.739,2.188 -1.912,2.161 -1.949,-1.474 -2.335,-3.288 -4.322,-2.825 -0.218,0.369 -0.221,0.971 0,1.329 -0.202,0.144 -0.497,0.05 -0.665,0.249 -0.151,0.312 0.021,0.866 -0.083,1.247 -2.641,1.803 -1.452,0.261 -4.072,0.415 -0.412,0.306 -0.302,1.426 -1.164,1.33 -0.497,-0.057 -1.012,-0.125 -1.495,-0.25 -1.37,-0.356 -0.717,0.982 -0.499,1.496 -0.141,0.404 -1.263,2.018 -1.579,2.243 -0.415,-0.019 -1.563,-0.557 -2.078,-0.748 -0.412,-0.135 -0.88,-0.272 -1.247,-0.498 -0.891,-1.157 -3.74,-2.613 -5.152,-3.241 -0.687,-1.351 -1.677,-2.563 -2.411,-3.905 -4.215,-1.486 -4.227,-2.086 -4.404,-6.564 -0.208,-0.223 -0.338,-0.61 -0.333,-0.914 -0.148,-0.223 -0.42,-0.395 -0.665,-0.498 -0.136,-0.563 -0.55,-0.833 -0.581,-1.413 -0.019,-0.284 0.363,-0.374 0.249,-0.581 -0.093,-0.106 -0.678,-1.062 -1.247,-0.997 0.008,-0.463 0,-0.9 -0.415,-1.163 0.045,-0.681 -0.536,-0.878 -0.499,-1.33 0.104,-1.223 0.695,-0.773 1.08,-1.329 0.479,-0.691 -0.057,-0.609 0.167,-1.33 -0.16,-0.233 -0.131,-0.572 -0.083,-0.83 0.144,-0.099 0.218,-0.193 0.332,-0.499 0.236,-0.601 1.102,-1.445 0.665,-2.16 -1.051,-0.521 -1.769,-2.575 -0.249,-3.074 -0.873,-1.562 1.271,-0.288 1.579,-0.998 0.156,-0.273 0.506,-0.505 1.08,-0.332 0.604,-0.119 1.514,0.343 2.078,0 0.119,-0.221 0.043,-0.555 0.083,-0.831 0.099,-0.335 0.028,-0.624 -0.166,-0.914 0.417,-1.613 -3.255,-4.574 -3.242,-5.068 l 0.167,-0.831 c -0.296,-0.335 -1.321,-0.604 -1.829,-0.997 0.037,-0.577 0.146,-1.197 0.333,-1.745 -0.396,-0.946 -1.286,-1.607 -0.499,-2.825 0.287,-0.438 1.405,-0.903 1.413,-1.578 0.014,-1.234 -3.489,-1.399 -4.239,-2.078 0.054,-0.309 0.062,-1.601 -0.332,-1.661 -0.04,-0.253 -0.155,-0.469 -0.166,-1.081 -0.715,-1.536 -1.26,-2.06 -1.912,-2.077 -0.652,-0.017 -1.382,0.507 -2.576,0.997 0.133,0.25 -0.24,0.416 -0.416,0.499 -0.641,-0.102 -0.681,0.246 -1.662,-0.166 -0.162,0.085 0.32,1.27 -1.247,1.911 0.394,0.519 0.223,0.763 0.167,1.329 -1.583,0.109 -0.874,0.998 -1.496,1.413 -0.256,0.116 -0.594,0.173 -0.998,0 -0.526,0.441 -0.065,0.951 -0.581,1.246 -0.006,0.244 -0.247,0.384 0.083,0.831 0,0.511 0.448,0.819 -0.083,1.08 -0.373,0.037 -0.284,0.344 -1.164,0.083 h -0.831 c -0.316,-0.38 -0.859,-0.511 -1.33,-0.665 -0.361,0.181 -0.858,0.045 -1.246,0.25 -0.506,0.266 -0.453,0.898 -0.748,1.329 -1.444,2.105 -2.97,4.18 -4.488,6.232 -0.66,0.891 -1.643,1.85 -2.494,2.575 -0.787,2.167 -4.313,3.826 -3.241,6.315 -0.099,0.604 -0.308,1.194 -0.582,1.745 0.168,1.632 0.579,2.294 1.247,3.656 -0.122,0.613 0.316,0.747 0.332,1.08 -0.09,0.287 -0.132,0.554 -0.249,0.831 0.099,0.181 0.375,0.441 0.333,0.664 -0.389,0.83 -1.419,0.721 -2.078,0.997 -0.279,0.117 -0.2,0.57 -0.416,0.748 -1.224,0.463 0.348,0.626 -0.831,1.496 -0.724,0.531 -7.8,4.357 -8.561,4.32 0.202,0.309 -0.284,5.236 -0.582,5.733 -0.205,0.341 -0.468,0.484 -0.665,0.997 -0.361,0.327 -0.955,0.279 -1.33,0.582 -0.361,0.292 -0.395,0.696 -0.831,0.914 -0.236,0.894 -1.116,2.245 -1.579,3.074 -0.085,0.151 -0.213,1.748 -0.332,2.16 -0.506,0.521 -0.808,1.771 -1.247,2.078 -0.854,0.598 -2.81,1.659 -2.493,3.074 -0.306,0.425 -0.048,1.062 -0.332,1.412 -0.189,0.231 -2.966,0.926 -3.242,1.33 -0.229,0.638 -0.171,0.925 -0.831,1.329 -0.202,0.681 -0.166,2.825 -0.166,2.825 -0.149,0.197 -0.801,-0.231 -0.997,0 -0.737,0.878 -0.797,2.464 -1.164,3.49 -0.133,0.369 -0.386,0.647 -0.665,0.914 -1.244,1.181 -1.803,2.946 -2.576,4.403 -0.404,0.237 -0.504,0.267 -0.748,0.665 -0.742,0.364 -2.384,1.296 -3.075,1.413 -0.519,0.087 -1.322,-0.139 -1.662,0 -6.506,2.65 -4.715,7.463 -4.821,7.645 -0.441,0.744 -2.225,1.599 -2.161,2.077 0.152,1.105 0.134,2.627 0.416,3.656 0.226,0.816 1.096,1.459 0.997,2.575 -2.641,2.896 -5.623,5.615 -7.729,8.892 -0.542,0.843 0.433,2.902 -0.166,3.572 -2.269,2.545 -4.586,5.646 -6.067,8.726 -0.173,0.354 -1.197,2.596 -1.33,2.742 -4.934,5.506 -9.798,11.099 -14.628,16.701 4.378,3.98 9.228,7.619 13.797,11.384 4.037,3.326 7.979,7.171 12.218,10.221 -0.824,1.67 -3.658,7.473 -5.153,8.725 -0.019,0.332 0.213,0.613 0.333,0.914 -0.296,2.574 -0.952,2.3 0,4.902 -1.314,1.287 -1.422,3.29 -2.161,4.736 0.481,0.566 0.317,0.641 0.166,1.247 0.202,0.641 0.572,1.205 0.748,1.744 0.112,0.33 -0.746,3.061 0.499,4.986 1.931,0.96 0.994,1.648 0.665,3.074 -0.182,0.79 0,1.352 0,2.077 0,0.67 -1.081,1.943 -1.081,2.991 0,0.782 2.759,1.453 2.743,2.493 -0.426,2.888 -6.669,0.796 -8.063,2.742 -0.358,0.5 0.08,1.216 0,1.828 -0.101,0.768 -0.425,1.427 -0.332,2.243 0.244,2.159 4.988,3.113 4.571,5.318 -0.492,2.605 -6.525,1.899 -6.067,4.154 0.053,0.264 0.018,0.645 0.249,0.831 1.734,1.414 4.063,1.193 4.737,1.911 0.477,0.502 0.218,2.205 0.582,2.492 0.644,0.314 2.878,0.162 2.992,0.914 -0.029,0.458 -1.262,2.084 -1.496,2.576 -0.231,0.479 -0.024,2.608 -0.083,3.324 -0.088,1.087 -0.891,2.038 -0.582,3.157"
   inkscape:connector-curvature="0"
   style="fill:none;stroke:#646464;stroke-width:1.5;stroke-miterlimit:3.88639998;display:inline" />
	<path
   id="path4790"
   display="inline"
   d="m 216.75,-354.314 c 0,0 5.635,0.268 8.318,-1.342 2.683,-1.61 4.563,-1.878 7.782,-1.878 3.219,0 6.709,-2.951 9.66,-5.365 2.952,-2.415 8.319,-3.488 10.466,-5.098 2.147,-1.61 1.878,-4.829 1.878,-4.829"
   inkscape:connector-curvature="0"
   style="fill:none;stroke:#646464;stroke-width:1.5;stroke-dasharray:3, 3;display:inline" />
	<path
   id="path4792"
   display="inline"
   d="m 427.401,-373.093 c 0,0 1.074,3.219 2.684,4.023 1.61,0.805 5.904,-0.268 7.782,-1.073 1.879,-0.805 3.488,-1.609 4.83,-0.805 1.342,0.804 2.415,3.756 1.61,6.171 -0.805,2.414 -2.146,6.438 -2.146,8.048 0,1.61 0.536,7.243 0,8.854 -0.537,1.609 -1.342,4.829 -2.952,6.438 -1.61,1.609 -1.342,4.561 -1.342,4.561 0,0 1.61,1.342 4.562,1.342 2.952,0 4.563,-2.683 6.978,-1.878 2.415,0.805 1.878,0.805 4.562,0.805 2.684,0 4.83,0.536 4.83,0.536 l 4.83,3.756"
   inkscape:connector-curvature="0"
   style="fill:none;stroke:#646464;stroke-width:1.5;stroke-dasharray:3, 3;display:inline" />
</g>

</svg>