<?xml version="1.0" encoding="UTF-8" standalone="no"?>
<!-- Creator: CorelDRAW X7 -->

<svg
   xmlns:dc="http://purl.org/dc/elements/1.1/"
   xmlns:cc="http://creativecommons.org/ns#"
   xmlns:rdf="http://www.w3.org/1999/02/22-rdf-syntax-ns#"
   xmlns:svg="http://www.w3.org/2000/svg"
   xmlns="http://www.w3.org/2000/svg"
   xmlns:sodipodi="http://sodipodi.sourceforge.net/DTD/sodipodi-0.dtd"
   xmlns:inkscape="http://www.inkscape.org/namespaces/inkscape"
   xml:space="preserve"
   width="2262.3792"
   height="2284.9451"
   version="1.0"
   style="fill-rule:evenodd"
   viewBox="0 0 2262.3792 2284.2937"
   id="svg2"
   inkscape:version="0.48.4 r9939"
   sodipodi:docname="Armenia_regions_map.svg"><metadata
   id="metadata98"><rdf:RDF><cc:Work
       rdf:about=""><dc:format>image/svg+xml</dc:format><dc:type
         rdf:resource="http://purl.org/dc/dcmitype/StillImage" /></cc:Work></rdf:RDF></metadata><sodipodi:namedview
   pagecolor="#ffffff"
   bordercolor="#666666"
   borderopacity="1"
   objecttolerance="10"
   gridtolerance="10"
   guidetolerance="10"
   inkscape:pageopacity="0"
   inkscape:pageshadow="2"
   inkscape:window-width="1366"
   inkscape:window-height="705"
   id="namedview96"
   showgrid="false"
   fit-margin-top="0"
   fit-margin-left="0"
   fit-margin-right="0"
   fit-margin-bottom="0"
   inkscape:zoom="0.0672748"
   inkscape:cx="1105.6579"
   inkscape:cy="2428.4126"
   inkscape:window-x="-8"
   inkscape:window-y="-8"
   inkscape:window-maximized="1"
   inkscape:current-layer="svg2" />
 <defs
   id="defs4">
  <style
   type="text/css"
   id="style6">
   
    .str0 {stroke:#181818;stroke-width:2.99844}
    .fil5 {fill:none}
    .fil4 {fill:#060606}
    .fil0 {fill:#181818}
    .fil3 {fill:#C8EBFF}
    .fil1 {fill:#E0E0E0}
    .fil2 {fill:#FDFDE8}
   
  </style>
 </defs>
 <g
   id="Layer_x0020_1"
   transform="translate(-134.34209,-113.73866)">
  <metadata
   id="CorelCorpID_0Corel-Layer" />
  <path
   class="fil0"
   d="m 2143,2193 c 7,6 9,7 17,11 14,9 50,47 64,52 15,6 7,8 19,12 11,4 11,3 21,9 14,8 11,4 24,8 5,11 28,59 28,67 -10,-2 2,-2 -32,-8 -39,-6 -14,-1 -37,-2 -21,-1 -40,-26 -64,-16 -26,10 -37,9 -60,27 -12,9 -42,32 -56,32 -7,-7 -8,-16 -14,-25 -5,-7 -11,-14 -16,-21 -13,-19 -20,-29 -27,-51 -7,-20 -39,-102 -39,-115 10,-5 15,-1 26,-11 9,-7 8,-13 19,-21 19,-13 23,-31 52,-14 22,12 20,-3 66,11 12,4 16,10 15,23 0,16 -8,8 -6,32 z m -15,-240 c 30,-5 28,-6 31,-33 1,-17 21,-29 37,-29 17,0 32,8 47,16 27,15 21,11 50,16 14,25 8,43 28,68 11,14 14,2 31,19 8,9 22,14 21,26 -16,2 -19,-2 -33,9 -8,6 -14,17 -21,18 l -15,-18 c -14,3 -5,4 -15,8 -15,-9 -37,-26 -55,-8 -6,6 -9,23 -8,32 0,18 12,16 19,23 11,13 -4,12 23,17 10,2 22,7 24,17 2,5 7,27 8,33 3,23 -4,14 9,34 -2,6 -10,35 -12,38 -11,18 -6,29 -12,40 -14,-1 -23,-7 -41,-15 -11,-5 -5,-7 -17,-12 -22,-8 -20,-16 -48,-37 l -33,-25 c 0,-23 9,-12 7,-33 -1,-14 -4,-19 -17,-22 -15,-5 -15,-8 -32,-8 -61,0 -31,-20 -64,-9 -13,4 -34,28 -42,38 -10,12 -17,9 -29,13 -11,-12 -21,-32 -32,-47 -13,-17 -28,-31 -25,-54 3,-22 26,-29 29,-50 3,-24 3,-48 6,-72 25,-3 83,-8 105,3 26,13 51,33 82,29 2,-8 -1,-18 -6,-25 z m 169,-159 c -25,2 -7,-13 -33,11 -15,13 -15,16 -36,17 -17,2 -26,12 -26,30 1,21 11,25 15,39 -17,1 -6,-7 -22,-5 -50,9 -32,29 -43,54 l -29,10 c 1,13 7,8 8,24 l -23,-3 c 10,-62 -28,-46 -38,-88 -4,-17 4,3 2,-25 -1,-14 6,-9 7,-23 2,-10 0,-22 0,-33 1,-16 8,-14 5,-26 -14,-11 -30,-2 -30,-32 1,-16 4,-12 10,-22 4,-7 3,-20 4,-29 11,1 22,14 57,-1 17,-7 37,-21 52,-24 14,6 4,8 24,10 17,38 10,24 66,32 14,2 20,-12 37,3 9,7 16,24 15,35 -45,18 -21,18 -22,46 z M 1215,1545 c -29,16 -46,-21 -29,-38 7,-7 22,-8 28,2 5,9 5,27 1,36 z m 865,234 c 0,10 -4,13 -4,26 0,9 2,23 -1,32 -4,14 -8,3 -7,23 1,12 -5,17 -2,25 8,30 61,52 34,85 -61,-25 -37,-39 -157,-28 -3,18 4,42 -5,59 -15,-10 -18,-18 -38,-25 -14,-5 -27,-11 -39,-21 -16,-12 -19,-25 -29,-33 -13,-11 -34,-7 -50,-13 -12,-27 6,-36 21,-57 24,-33 4,-30 1,-66 -3,-34 25,-54 -49,-75 -26,-7 -19,3 -35,3 -11,-14 6,-30 -18,-47 -16,-12 -5,-36 -1,-54 6,-22 12,-32 8,-58 -4,-18 -22,-34 -1,-51 20,-16 12,-26 27,-40 9,-9 22,-31 33,-35 22,-8 25,15 35,30 13,17 18,23 34,37 9,9 29,21 42,26 17,8 44,9 53,15 21,13 30,66 54,83 32,22 42,-5 75,64 13,28 -10,41 -11,55 -3,38 19,28 30,40 z m -298,-358 c -13,11 -5,-9 -33,19 -44,46 -15,37 -48,65 -13,11 -4,29 1,41 12,31 -4,68 -13,96 -7,26 11,23 19,35 7,11 7,36 2,47 -16,5 -34,-2 -52,5 -16,6 -19,18 -36,22 -25,6 -53,43 -78,36 -11,-3 -20,-22 -30,-29 -27,-23 -75,15 -69,-49 1,-8 4,-17 4,-26 -1,-15 -7,-11 -7,-23 l 20,-9 c 5,-13 -1,-20 9,-28 11,-10 9,-4 17,-20 12,-24 29,-20 47,-25 7,-7 9,-18 14,-26 10,-15 14,-7 28,-13 8,-16 -5,-12 -9,-25 7,-12 15,-5 18,-19 3,-17 -5,-18 -9,-30 2,-7 17,-26 22,-34 3,-4 13,-39 13,-43 -2,-14 -18,-20 -20,-38 -3,-44 28,-47 43,-30 6,8 -3,14 5,26 7,12 45,13 59,14 90,10 68,26 78,49 2,6 4,3 5,12 z m -218,86 c -2,22 11,10 11,28 -13,8 -16,-3 -27,13 -8,10 -8,18 -14,26 -12,3 -15,-7 -28,5 -5,4 -17,14 -19,18 -8,13 -2,11 -16,22 -13,9 -9,14 -12,28 l -20,8 c -6,16 16,23 2,43 -8,-2 -16,-17 -32,-18 -28,-3 -24,7 -32,22 -8,13 -27,16 -37,5 -10,-11 -1,-31 3,-43 11,-35 -1,-52 -22,-76 -7,-9 -16,-21 -24,-31 -7,-8 -21,-21 -23,-31 10,-5 14,0 26,-1 1,-13 -5,-7 -4,-22 1,-9 5,-14 2,-25 -5,-17 -5,-3 -2,-23 3,-22 -6,-35 15,-44 16,-6 3,-4 16,-13 39,-28 -17,-47 79,-47 29,0 36,-1 54,-11 8,6 5,7 14,11 8,-5 7,-10 14,-10 13,0 3,10 18,6 13,-4 8,-14 35,-10 7,-5 12,-15 20,-20 8,5 8,9 18,9 8,-11 1,-38 24,-30 9,23 -19,12 -15,55 3,21 5,10 14,26 9,16 5,13 1,29 -10,40 -20,36 -28,52 -9,18 30,33 -11,49 z M 745,1212 c 10,-8 14,-8 27,-6 5,-9 0,-6 7,-10 l 10,6 c 18,-13 16,-6 36,-6 12,-9 9,-14 13,-25 17,-3 22,-3 25,13 3,16 10,7 25,14 25,13 19,3 27,13 3,5 4,12 6,15 8,18 3,-5 11,12 -11,22 -45,18 -69,21 -19,3 -16,4 -26,18 -15,22 -5,14 -5,31 -8,7 -11,11 -18,19 -36,-27 -48,-25 -63,-36 1,-6 8,-13 8,-21 1,-14 -10,-9 -5,-22 3,-8 13,-7 4,-18 -6,-8 -13,-4 -13,-18 z m 507,61 -1,32 c 19,2 20,3 36,12 3,20 -15,26 -6,53 2,8 8,13 8,23 0,11 -7,11 -2,22 7,14 7,2 6,24 0,4 1,10 0,14 -2,9 -3,3 -4,12 -1,15 8,6 6,26 -2,18 -4,7 -1,29 -30,3 -9,-3 -29,9 -28,-12 -27,4 -44,13 -1,-25 5,-28 -14,-44 -19,0 -31,7 -32,28 0,24 20,25 37,27 -3,4 -21,17 -28,20 -17,9 -25,7 -40,0 -18,-8 -60,15 -82,14 -10,-5 -24,-21 -31,-30 -6,-9 -7,-15 -10,-20 -7,-10 -9,-2 -16,-15 -9,-17 -18,-11 -39,-23 -29,-17 8,-17 -35,-27 -3,-11 0,-14 -7,-24 -6,-7 -29,-18 -6,-33 15,-10 7,-5 8,-18 0,-5 18,-32 28,-32 10,-1 14,4 25,-2 8,-5 8,-12 15,-18 6,-1 12,0 16,0 9,-2 4,-4 11,-7 10,-5 16,-1 28,-7 11,-6 13,-8 26,-10 20,-4 11,-5 24,-13 19,6 12,17 30,-3 4,7 -1,4 8,8 7,-4 12,-10 19,-17 15,-15 5,-15 12,-25 12,-15 32,-14 28,-44 -15,-16 -28,-6 -42,-13 -2,-17 2,2 9,-22 19,-1 16,1 29,-9 8,-6 26,-5 36,-4 2,17 -8,15 -8,26 0,8 2,4 3,12 2,28 -16,22 29,56 z m -266,-48 c 14,3 14,-3 22,-3 9,0 7,9 19,-2 17,-16 25,-2 41,2 4,1 45,-7 47,-8 17,-10 11,-22 41,-19 -3,13 -8,4 -6,22 16,6 26,-1 41,11 4,33 -17,27 -27,42 -2,4 -3,25 -28,39 l -3,-12 c -12,4 -7,7 -16,15 -12,-2 -10,-8 -20,-11 -8,8 -4,12 -19,16 -14,2 -16,2 -28,9 -14,8 -16,2 -28,7 -8,4 -5,5 -12,7 -6,2 -10,0 -18,1 -5,6 -11,17 -16,19 -13,6 -20,-4 -31,3 -10,6 -8,13 -16,21 -18,17 -4,4 -8,24 l -14,10 c -7,-13 -2,-19 -17,-30 -9,-7 -16,-11 -23,-21 -10,-14 -6,-14 -22,-22 -10,-5 -23,-11 -27,-19 l 19,-18 c -1,-12 -6,-14 1,-27 21,-32 39,-11 77,-24 31,-10 12,-23 31,-35 3,-2 17,-12 19,-14 13,-14 8,-7 19,-15 2,-13 -3,-27 5,-34 9,8 2,7 3,18 2,10 8,6 8,16 0,14 -19,6 -14,32 z m -681,-92 c 3,-3 38,-15 42,-15 9,10 5,10 10,19 23,0 37,-16 53,-15 11,1 19,6 29,-1 9,-6 17,-10 27,-8 7,10 4,17 15,24 0,0 13,0 11,28 -2,35 -32,39 -34,43 -2,20 10,17 20,25 -5,4 -3,2 -9,4 -10,4 -2,2 -14,4 -37,5 -19,16 -33,34 -12,0 -27,-16 -40,-21 -13,-6 -31,-12 -45,-16 -21,-6 -77,-20 -71,-49 16,-19 35,-11 51,-22 3,-23 -14,-17 -12,-34 z m 621,-60 c 29,4 18,16 54,35 9,5 12,2 16,15 -3,4 -8,8 -9,11 -5,10 1,12 -1,19 -1,8 -5,3 -5,17 -1,18 8,14 -24,40 -12,10 -17,11 -29,19 -12,-14 2,-27 -60,-39 0,-2 -4,-17 -5,-19 -3,-16 4,-8 3,-18 -14,-6 -16,4 -34,-7 -1,-8 0,-16 -2,-21 -3,-6 -10,-5 -6,-18 3,-9 8,-9 17,-7 11,3 7,4 22,3 32,-1 52,7 63,-30 z m -278,20 c 12,-2 17,12 35,15 27,4 12,-35 49,-19 18,8 3,-4 41,11 27,10 -10,12 43,12 9,14 -2,4 12,15 l 0,21 c 17,10 17,4 32,8 -2,19 -9,7 -26,13 -5,14 1,11 -11,24 -17,-2 -18,-7 -33,4 -9,-3 0,-5 -11,-4 -8,1 -3,1 -10,5 -10,6 -16,1 -28,12 0,17 8,14 16,25 -5,14 -13,9 -5,26 6,12 0,18 -6,29 -24,0 -18,-7 -33,-16 -12,0 -25,0 -36,5 -21,12 -13,2 -32,3 -23,15 -20,27 -48,8 -21,-14 -35,-1 -53,11 -16,9 -14,3 -29,1 -25,-4 -46,9 -91,-22 2,-5 5,-7 7,-13 4,-12 -2,-19 26,-23 7,0 21,-4 24,-8 2,-16 -18,-4 -19,-27 15,-6 19,-5 27,-22 7,-15 10,-26 4,-43 7,0 17,4 26,4 16,0 40,1 54,-5 18,-9 8,-1 18,-15 l 47,-2 c 9,12 6,2 7,18 2,17 2,5 6,19 -3,10 -5,6 -8,16 -6,16 0,5 2,19 -12,16 -13,18 -5,39 13,1 21,-4 29,-1 7,3 4,4 10,7 5,2 12,1 17,2 5,9 7,17 12,26 3,-6 -4,-25 -12,-30 -22,0 -10,0 -24,-7 -8,-5 -17,-1 -27,-1 -12,-21 -4,-20 7,-38 -8,-12 -8,-11 -1,-24 8,-13 0,-13 -2,-25 6,-10 14,-11 10,-28 -3,-9 -16,-12 -11,-25 z M 963,991 c 43,-16 48,11 51,13 26,5 15,-14 46,1 30,14 19,4 37,-8 19,-2 10,3 24,6 15,2 16,-4 28,-6 8,7 5,12 13,19 6,5 15,4 24,9 9,19 7,24 -3,40 -14,21 7,25 13,36 4,9 0,14 7,18 8,6 14,-2 19,10 3,4 1,5 4,10 4,8 10,2 6,35 -10,1 -23,-1 -34,2 -12,3 -6,9 -22,11 -21,3 -39,0 -55,16 -15,15 -7,7 -25,10 -11,2 -16,8 -28,5 -6,-2 -5,-4 -11,-6 -27,-9 -26,0 -37,9 -10,-1 -6,-4 -14,-3 -12,1 -1,7 -16,2 -5,-17 11,-9 14,-29 -4,-15 -7,-3 -8,-19 -1,-17 1,-8 -5,-23 -10,-24 22,-19 3,-38 -2,-1 -28,-16 -34,-20 -11,-7 -6,-9 -12,-14 -8,-9 -11,1 -18,-11 8,-11 16,-2 23,-8 13,-11 -23,-21 -1,-46 12,-14 4,-9 11,-21 z m -13,63 c -19,11 -22,-6 -30,25 -4,18 -19,22 -36,21 -11,-1 -19,1 -28,0 -13,-1 -14,-7 -23,-5 -16,3 1,16 -43,13 -2,-2 -13,-13 -15,-15 2,-4 15,-22 18,-25 14,-4 36,-1 47,-7 3,-13 0,-24 2,-36 l 29,-47 c 18,-19 27,-54 34,-77 7,-23 13,-6 21,-18 6,-8 -1,-21 11,-28 8,-4 21,1 25,9 12,25 -32,57 -20,83 6,13 13,11 12,25 0,8 -2,7 0,16 1,8 4,5 1,14 -2,8 -12,10 -14,23 -3,25 7,15 9,29 z M 771,926 c 19,-6 7,-16 26,-18 l 13,35 c 14,5 4,-1 32,-18 3,8 0,10 5,15 11,11 7,-14 37,9 -18,34 -22,31 -30,48 -4,9 -12,15 -15,25 -3,11 0,24 -2,37 -7,1 -41,3 -45,5 -4,2 -19,24 -23,29 -10,-2 -7,-4 -21,-5 -17,-1 -11,-3 -22,-6 -22,-5 -25,12 -32,21 -27,6 -35,-23 -48,-12 -15,16 15,15 8,43 -7,-1 -9,-6 -14,-12 l -33,1 c -4,-9 1,-7 -6,-12 -2,-2 -28,-4 -13,-44 6,-16 -6,-22 9,-39 22,-27 -18,-37 19,-72 3,-19 4,-32 -8,-44 0,-15 4,-13 -1,-31 -3,-12 -4,-20 12,-22 27,-3 38,-5 48,23 4,11 29,31 39,33 10,2 27,1 37,0 23,-1 14,5 28,11 z M 597,869 c 12,12 8,29 6,42 9,15 10,4 10,27 0,17 -1,13 -10,26 -19,28 4,35 -5,56 -4,8 -12,9 -13,21 -1,15 5,11 -3,28 -4,10 -2,20 0,30 5,19 10,6 19,19 -6,11 -5,3 -12,7 -10,6 -2,17 -45,18 -12,0 -24,2 -36,0 -37,-8 -30,-16 -40,-35 -30,-3 -20,14 -53,10 -25,-2 -33,14 -54,15 -3,-5 -7,-13 -11,-19 -14,0 -45,15 -52,16 -29,-36 16,-15 -6,-59 -6,-13 -13,-9 -22,-20 -48,-63 -39,-41 -28,-85 2,-7 5,-28 9,-34 6,-9 6,-3 12,-9 5,-4 2,-6 10,-13 15,-3 23,3 35,0 8,-10 9,-28 15,-36 14,-2 7,3 20,7 11,-2 30,-17 44,-16 10,8 5,20 24,23 17,1 16,-12 32,-16 21,10 4,26 47,27 37,1 33,-36 35,-39 16,-7 12,2 24,7 l 13,-11 c 19,11 -4,18 12,26 16,8 13,-9 23,-13 z M 476,782 c 3,21 4,15 20,28 8,8 17,16 25,24 18,1 28,-3 44,8 -2,7 -10,15 -16,21 -7,-5 -19,-19 -28,-3 -2,4 1,49 -51,33 -10,-3 -16,-18 -22,-26 -20,1 -37,36 -51,5 -9,-19 -16,-12 -39,-3 -8,3 -5,4 -13,8 -12,-2 -4,-8 -23,-9 -10,14 -8,26 -17,39 l -34,-2 c -11,13 -14,36 -40,-5 -9,-14 -14,-8 -25,-18 2,-17 17,-24 28,-35 13,-13 6,-5 20,-10 7,-2 10,-9 19,-14 2,-36 1,-10 38,-65 13,-20 24,-56 37,-69 7,6 16,20 20,21 12,6 15,-6 31,-8 4,4 6,9 9,11 7,7 6,2 15,6 2,39 -11,39 3,53 10,9 16,3 24,4 14,0 -3,2 26,6 z m 1064,165 -8,4 8,2 c 8,-8 20,-15 27,-23 5,-7 19,-27 25,-30 35,41 95,78 140,105 13,8 26,15 39,23 14,8 35,13 43,19 12,9 14,26 28,33 19,10 33,-7 51,-6 5,10 4,17 15,24 13,9 16,7 14,26 -11,9 -14,-1 -11,21 3,11 -1,19 -2,32 -2,29 8,38 -22,47 -25,7 -19,27 -22,48 -2,16 -13,40 -23,48 -13,-5 -3,-14 -42,-20 -26,-4 -92,-5 -118,-2 -32,4 -24,12 -44,19 -5,-2 -26,-14 -28,-16 8,-34 72,-7 28,-91 -18,-34 -5,-53 -4,-65 -8,3 -2,2 -7,11 -3,15 -6,13 -1,28 4,11 3,16 8,27 11,21 17,31 12,56 -6,5 -10,4 -19,11 -6,4 -13,12 -19,13 -7,1 -16,-3 -24,5 -7,8 -2,15 -7,25 -13,-1 -6,-6 -18,-8 -12,7 -9,16 -24,19 -22,4 -18,8 -33,12 -20,-11 -8,-12 -28,2 -8,-3 -7,-6 -14,-12 -13,7 0,7 -20,11 -37,6 -49,-3 -87,8 -24,6 -3,26 -24,39 -7,5 -26,26 -39,23 -1,-11 9,-14 0,-35 -7,-13 -10,-23 -5,-38 9,-27 18,-19 -12,-37 -12,-6 -8,0 -18,-6 l 1,-30 c -12,-8 -15,-3 -24,-16 -12,-17 -5,-19 -5,-34 0,-21 -8,-5 4,-30 8,-16 3,-25 9,-35 14,4 11,16 29,0 14,-11 0,-17 27,-18 24,-1 18,-6 36,-9 10,-1 10,2 19,-3 7,-3 8,-9 17,-1 0,-8 4,-4 -4,-8 -16,0 -7,7 -28,8 -16,2 -18,7 -28,9 -11,1 -25,-3 -32,6 -11,12 1,7 -20,20 -6,-2 -22,-14 -26,-21 -5,-7 0,-8 -8,-15 -6,-7 -10,-4 -19,-7 -4,-30 -12,-16 -20,-35 1,-23 20,-19 8,-52 -12,-33 19,-17 -2,-50 10,-6 11,1 14,-11 2,-7 0,-13 3,-22 10,-6 6,1 17,-10 30,-32 38,-4 53,-33 -4,-3 -1,-2 -7,4 -19,18 -24,0 -45,22 -10,11 -17,10 -21,15 -7,7 -1,18 -7,28 -17,0 -11,-1 -17,-13 -3,-7 -8,-9 -12,-15 -21,-26 -2,-25 -8,-42 -6,-17 -23,-5 -19,-36 2,-16 4,-7 -5,-20 -6,-9 -2,-14 -4,-26 -11,-8 -12,-2 -18,-15 -7,-16 -6,-9 -16,-19 -1,-14 3,-14 2,-23 -1,-12 -5,-6 -10,-17 9,-8 15,0 17,-19 2,-21 -6,-14 -7,-28 23,-8 19,10 39,2 18,-7 23,-1 36,8 18,12 22,4 42,9 23,6 2,11 40,12 l 5,14 c -8,6 -5,-1 -14,7 l 0,6 4,-2 14,-4 c 2,-9 -4,-16 -4,-28 11,-11 7,-4 16,-19 10,-16 12,-7 23,-15 6,-9 8,-27 15,-34 5,-4 10,-5 14,-12 7,-9 2,-9 7,-18 14,-1 18,6 29,13 13,7 24,4 39,5 21,15 8,27 42,29 18,1 10,4 21,13 8,6 15,6 23,13 0,10 -4,7 -3,17 2,16 12,39 22,53 12,17 14,11 27,22 12,9 5,26 11,40 5,12 17,13 25,25 4,6 11,29 12,37 2,17 -28,48 -44,56 z M 1092,692 c 2,3 15,31 8,42 -7,9 -12,-2 -15,10 -2,6 6,10 10,15 0,21 -12,17 8,36 9,8 4,9 10,17 4,6 9,5 15,11 0,12 -3,16 4,25 10,13 4,8 4,24 -1,28 24,17 20,39 -1,3 -13,14 13,39 12,12 6,8 9,22 3,9 8,6 14,19 -1,9 -6,22 -13,27 -26,-4 -14,-15 -29,-25 -15,-1 -13,14 -36,3 -22,-11 -20,2 -32,10 -15,2 -19,-6 -31,-10 -14,-5 -17,5 -33,5 -12,-8 -5,-15 -22,-18 -13,-2 -29,3 -37,1 -4,-14 4,-12 -2,-23 -3,-6 -9,-8 -12,-17 -6,-20 8,-24 14,-39 25,-71 -12,-39 -23,-67 3,-11 7,-5 8,-18 2,-11 -3,-19 -2,-28 0,-8 22,-31 -7,-32 -5,-1 -23,6 -45,-14 -19,-17 -25,-11 -39,-22 -1,-13 3,-9 -3,-21 -4,-7 -6,-7 -3,-18 5,-20 20,-7 27,-10 12,-4 9,-13 33,-14 33,-3 15,15 34,11 14,-2 18,-18 35,-6 10,7 66,25 69,26 15,2 33,-2 49,0 z M 463,673 c 10,2 14,14 24,16 19,-11 5,-29 34,-36 17,3 2,8 26,4 14,-2 17,2 28,5 26,7 26,21 42,30 14,-5 -1,-8 17,-6 17,1 9,-1 22,-3 17,12 22,8 16,62 -11,3 -13,-1 -22,5 -7,23 27,9 35,30 -3,11 -15,13 -20,25 -10,26 5,23 3,36 -7,4 -6,1 -13,4 -5,2 -3,3 -10,6 -9,4 -36,1 -52,14 -9,7 -2,19 -19,12 -4,-11 3,-2 -2,-17 -5,-14 -1,-6 -3,-20 -20,-14 -25,-8 -46,-9 -6,-6 -18,-18 -25,-23 -26,-20 -9,-14 -20,-29 -2,-1 -30,-8 -31,-8 -16,3 -14,4 -25,-12 7,-14 4,-21 6,-37 7,-7 19,-12 28,-21 15,-13 15,-11 7,-28 z m 280,-31 c 17,0 13,-1 27,6 15,7 13,0 24,-5 10,-3 15,1 24,6 16,10 17,1 28,8 9,16 -6,17 -6,35 0,13 4,10 6,17 4,11 -1,9 0,18 0,1 1,1 2,2 l 1,0 c 0,0 0,-1 0,-1 l -1,1 1,-1 c 0,0 0,1 0,1 6,3 17,6 22,8 11,4 34,25 42,28 12,4 15,-5 30,1 6,13 1,9 -4,19 -4,10 0,14 1,24 5,33 -16,8 -5,42 -14,21 -5,9 -13,31 -21,6 -16,6 -23,26 -4,12 -5,25 -16,34 l -21,-10 -10,7 c -9,-12 1,-12 -11,-20 -7,3 -18,19 -27,21 l -13,-36 c -18,-3 -16,10 -27,17 -18,-3 -3,-10 -38,-9 -14,1 -29,3 -40,-7 -11,-9 -20,-9 -25,-22 -8,-22 -16,-21 -20,-30 10,-11 16,-1 22,-12 0,0 0,0 0,0 5,-11 -6,-5 -6,-23 1,-30 24,-19 22,-44 -3,-1 -16,-10 -18,-10 -11,-4 -13,3 -19,-9 12,-11 35,16 24,-64 43,-27 20,-16 27,-29 4,-8 18,-4 26,-5 10,-2 9,-8 14,-15 z m -70,199 0,0 0,0 c 0,0 0,0 0,0 z M 565,531 c 4,-7 8,-9 12,-15 8,-11 1,-13 5,-26 6,-1 11,0 15,-2 8,-3 2,-3 9,-7 7,-5 20,-3 28,-2 10,12 14,32 29,39 16,9 20,19 43,28 13,5 11,-1 26,6 9,4 19,1 30,1 19,1 17,-2 31,-4 18,-3 6,5 23,-8 3,18 -18,10 -15,36 11,9 28,19 20,37 -11,-5 -1,-10 -12,-21 -18,-5 -36,-2 -34,20 9,6 16,1 19,14 2,8 -3,17 -12,19 -15,3 -33,-23 -46,0 -7,12 -12,6 -26,8 -17,1 -10,8 -12,16 -2,7 -28,26 -40,9 -17,-24 22,-28 3,-46 -10,-10 -29,-3 -45,-21 -4,-4 -16,-14 -16,-16 -5,-10 2,-15 -9,-24 -17,-14 -4,-6 -11,-22 -3,-8 -10,-7 -15,-19 z M 441,469 c 35,1 25,24 38,29 11,-5 -4,-9 11,-8 10,0 2,5 14,6 9,-10 3,-20 5,-34 l 10,-7 c 6,4 5,6 10,10 8,8 5,2 16,5 5,9 0,12 9,14 4,1 17,0 23,1 0,8 2,21 -3,28 -10,19 -24,9 -2,33 9,10 3,9 7,19 4,9 9,6 13,13 5,9 -1,12 5,21 2,3 28,29 46,31 10,1 11,0 19,9 -3,16 -3,8 -9,18 -6,9 -1,13 -5,24 -20,7 -10,-9 -31,6 -9,-5 -16,-17 -28,-24 -6,-4 -32,-11 -40,-10 -19,2 -5,3 -20,-3 -27,-10 -33,28 -41,34 -16,-3 -15,-19 -29,-15 -4,15 4,6 6,20 -5,5 -23,19 -30,23 -19,11 -26,-7 -34,-14 -19,0 -14,10 -30,10 -14,-11 -35,-36 -30,-56 4,-16 11,-16 6,-38 -2,-11 -11,-20 -13,-30 13,-12 42,-2 39,-21 -3,-13 -10,0 -11,-21 0,-11 2,-20 1,-31 -3,-29 16,-12 39,-18 4,-1 17,-7 22,-9 15,-7 8,-8 17,-15 z m 609,114 c 7,5 7,2 13,6 1,1 24,21 19,35 -6,18 -9,6 0,26 10,22 6,8 19,18 l 0,19 c -10,3 -40,2 -51,2 l -59,-18 c -14,-5 -7,-2 -17,-9 -16,-11 -24,3 -39,7 -5,-3 -9,-20 -42,-11 -9,3 -12,6 -18,11 -11,8 -7,0 -22,-1 -4,-26 -5,-9 -40,-26 -15,-7 -11,-2 -16,-17 -5,-17 -8,-7 -18,-16 1,-17 14,-15 29,-12 l 6,21 c 16,3 15,-11 10,-22 -6,-16 -10,-12 -20,-22 2,-15 7,-15 17,-23 0,-16 -3,-6 -6,-28 -2,-14 -5,-10 -13,-19 18,-20 11,-31 18,-44 4,1 24,6 27,7 14,5 63,29 73,24 13,-12 2,-11 12,-23 12,-15 0,-3 11,-24 29,-3 12,-5 30,-11 14,-6 18,-13 32,-8 7,14 -5,27 10,39 12,3 37,2 47,6 -1,19 -13,8 -19,19 -6,12 5,17 9,25 8,21 -4,33 -4,51 0,6 0,12 2,18 z M 662,513 c -12,-7 -16,-29 -27,-38 -11,-1 -24,2 -34,-3 l -1,-11 c 11,-6 21,3 22,-13 0,-16 -7,-6 6,-21 6,2 14,7 16,7 8,3 13,0 22,1 11,2 4,3 19,5 17,1 21,9 46,23 13,7 15,2 31,13 21,-5 25,-9 47,4 -2,15 -8,15 -11,24 7,14 22,10 9,40 -10,3 -5,-1 -14,1 -6,0 -6,2 -12,4 -11,3 -18,0 -28,0 -22,1 -10,1 -25,-4 -12,-3 -11,2 -27,-6 -8,-4 -15,-6 -21,-12 -11,-13 -6,-6 -18,-14 z m 834,179 c -23,-3 -31,-21 -41,-24 -32,-8 -16,10 -41,-22 -13,-18 -28,-1 -49,-14 -22,-13 -24,-11 -41,-25 1,-18 3,-8 -2,-23 10,-6 18,-15 25,-22 11,-9 26,-1 43,-7 4,-8 3,-14 4,-23 15,-11 10,0 13,-22 9,-5 15,-7 18,-18 -6,-18 -16,-8 -28,-14 -1,-21 21,-14 37,-31 8,-8 7,-12 12,-20 8,-15 11,-8 23,-13 6,-9 -1,-5 8,-13 20,-15 31,-25 50,-18 7,24 -18,45 -2,58 16,14 17,-11 49,28 12,15 22,31 36,42 26,21 48,-15 42,30 -6,54 -27,61 -74,79 -86,33 -53,28 -82,72 z M 1231,336 c 9,-2 21,1 33,1 19,-1 11,2 24,11 6,4 19,7 26,2 9,-8 0,-15 9,-26 18,2 4,20 28,29 29,12 16,17 29,30 10,10 36,1 52,6 9,3 32,15 35,21 -11,6 -14,-3 -24,14 -5,8 -5,14 -13,22 -12,12 -42,10 -37,33 13,10 16,-2 27,10 1,12 -2,9 -10,14 -10,6 -4,5 -8,15 -4,9 -8,5 -11,13 -4,8 0,10 -4,20 -13,8 -23,-1 -35,4 -6,2 -15,13 -20,17 -13,10 -14,6 -13,24 2,23 4,11 12,25 1,29 -18,20 -26,42 -14,40 -15,15 -30,36 -34,51 -36,17 -63,13 -10,-1 -19,1 -29,-3 -24,-10 -13,-22 -46,-13 -7,2 -18,0 -25,-3 -14,-7 -4,-16 -7,-26 -2,-4 -31,-14 -21,-38 12,-30 -16,-22 -12,-44 9,-6 12,-2 18,-6 7,-5 2,-7 8,-13 2,-3 16,-9 25,-17 20,-19 37,-15 38,-47 0,-28 8,-40 25,-61 27,-32 -17,-34 -23,-43 2,-18 18,-8 32,-14 8,-11 3,-19 9,-30 9,-1 7,4 17,2 7,-9 1,-12 10,-20 z M 804,307 c 29,-13 10,-9 21,-26 12,3 6,6 17,11 14,7 5,0 18,11 11,10 11,4 20,8 7,3 5,8 9,16 12,3 18,-1 25,6 8,8 5,22 19,40 5,7 8,6 12,16 -1,13 -12,16 -2,28 9,11 14,-3 16,21 -23,3 -18,-2 -26,19 -5,13 -4,2 -8,13 -4,8 2,7 -5,16 -11,8 -82,-34 -106,-28 -5,11 3,4 -2,16 -13,-1 -18,-7 -34,-6 -28,3 -6,2 -28,-3 -22,-6 -30,-14 -49,-25 -15,-9 -3,0 -29,-8 -15,-4 -17,4 -31,-4 -15,-8 -44,-12 -54,-19 -1,-8 -2,-19 2,-27 3,-5 3,-3 6,-8 2,-6 0,-4 3,-11 13,1 5,2 14,11 11,-1 26,-9 38,-11 27,-5 15,1 32,-18 11,4 11,9 28,6 10,-2 12,-9 25,-4 14,5 22,23 39,22 7,-8 4,-8 7,-15 4,-10 2,-3 12,-11 13,-11 9,-21 11,-36 z M 148,288 c 14,-4 13,5 30,-5 48,-31 40,-13 93,-2 24,5 50,0 75,7 10,3 37,30 42,40 0,0 -13,57 0,81 16,3 11,-10 26,-5 7,2 15,13 16,20 2,13 -3,19 -7,29 -6,16 3,11 9,20 -4,5 -27,15 -33,16 -17,3 -29,-4 -42,8 1,17 2,21 2,40 -1,29 10,14 9,32 -5,3 -16,4 -24,6 -15,4 -15,3 -21,-9 -55,-105 1,-80 -54,-143 -5,-6 -27,-33 -30,-34 -11,-4 -18,2 -28,-4 -10,-6 -7,-8 -21,-12 -26,-8 -30,-5 -32,-33 -2,-19 -16,-34 -10,-52 z m 212,1 c 35,-13 28,-8 55,-34 22,-20 72,-2 113,-15 11,-4 20,-10 30,-15 33,-15 38,14 74,-1 43,-17 3,-50 46,-39 30,8 35,26 56,33 23,9 27,-31 64,-13 24,11 26,30 60,22 25,35 33,28 40,42 -7,4 -6,-2 -18,6 -13,8 -5,6 -14,14 -27,8 -24,-6 -40,-14 -14,11 -2,16 -13,24 -15,11 -12,-2 -14,22 -1,13 -3,16 -14,23 -15,9 -2,9 -14,22 -13,-1 -26,-22 -37,-24 -16,-3 -16,3 -26,5 -18,3 -13,-4 -26,-5 -17,9 1,13 -30,17 -14,2 -24,6 -38,11 -19,-21 -12,-1 -38,-25 0,-18 5,-21 -9,-33 -13,-11 -18,-4 -29,-11 -22,-13 -12,-42 -4,-57 -18,5 -16,46 0,59 13,9 19,1 32,13 13,11 6,15 7,31 7,6 14,7 19,16 0,18 -13,17 -7,49 10,7 25,6 37,14 -5,12 -5,1 -5,14 0,6 2,4 1,14 l -20,3 c -5,16 3,13 0,28 -18,2 -10,-2 -22,-4 -6,-1 -15,0 -23,0 -9,-20 2,-9 -17,-16 -7,-2 -11,-10 -18,-16 l -13,10 c -1,13 3,23 -1,32 -14,-1 -3,-13 -27,-1 -20,-30 -14,-22 -52,-26 0,-16 16,-33 5,-50 -15,-23 -20,-14 -39,-7 -14,-26 2,-80 0,-83 -8,-8 -29,-25 -31,-35 z m 760,-53 c -1,14 0,20 4,33 4,14 -2,15 2,27 33,2 24,-1 33,17 5,10 6,4 9,15 -6,6 -9,5 -17,12 -11,11 -7,4 -19,11 -15,9 -22,21 -14,38 12,26 97,11 68,45 -5,6 -19,26 -24,34 -8,16 2,39 -9,52 -7,10 -23,17 -34,27 -13,12 -4,6 -19,12 -10,4 -6,9 -12,17 -10,2 -10,0 -19,4 -9,5 -1,6 -16,0 -4,-27 14,-47 1,-69 -5,-9 -8,-5 -8,-19 13,-11 26,-6 17,-27 -2,-1 -45,-3 -48,-6 -9,-11 0,-24 -7,-37 -16,-10 -23,6 -42,7 -4,-3 -6,-7 -10,-9 -9,-7 -5,2 -11,-8 -4,-16 10,-15 2,-30 -6,-10 -8,-6 -16,-22 -3,-6 -4,-4 -6,-12 -9,-26 -7,-19 -33,-24 -15,-34 -14,-7 -32,-27 5,-4 7,-3 10,-6 7,-5 2,-4 9,-10 12,-11 13,-2 23,-7 0,-19 -30,-24 -38,-45 5,-7 9,-6 16,-13 9,-7 7,-11 19,-9 6,11 0,11 9,21 45,13 26,-59 85,-31 27,13 97,6 130,6 5,8 11,17 11,27 l -14,6 z m 19,-46 c -9,-13 -33,-24 -36,-32 -11,-29 28,-13 39,-8 17,7 34,18 53,9 16,-6 27,-25 40,-29 4,9 1,19 7,30 5,11 12,9 17,18 -7,12 -22,28 0,39 16,9 35,-1 54,0 21,1 57,38 56,60 -21,30 -80,-7 -98,17 -7,16 2,23 2,38 -17,2 -24,0 -40,-2 -2,-15 0,-30 -21,-30 -14,10 -7,23 -8,40 -1,3 -10,37 -11,39 -9,2 -20,0 -27,4 -7,4 -8,12 -13,18 -22,-2 -33,-6 -35,-29 3,-17 34,-21 54,-42 -1,-13 0,-6 -7,-14 -16,-23 5,-20 -37,-24 0,-13 4,-9 -1,-27 -3,-12 -4,-13 -3,-26 30,-15 11,-15 5,-36 l 10,-13 z m 223,109 6,-2 c 8,-17 35,-27 -21,-74 -12,-11 -23,-21 -40,-19 -16,3 -37,14 -47,-1 0,-16 10,-11 12,-28 -6,-13 -16,-11 -20,-21 -6,-12 1,-28 -5,-39 -23,-11 -36,33 -63,36 -27,2 -52,-28 -84,-20 -35,28 15,47 25,60 -14,4 -113,3 -125,-3 -17,-7 -34,-17 -50,-3 -11,10 -24,31 -34,35 -8,-11 -6,-46 -42,-12 -21,19 -40,9 -57,-5 -16,-13 -44,-19 -61,-6 -11,9 -12,16 -26,6 -8,-5 -15,-13 -24,-18 -12,-8 -48,-23 -58,-9 -7,10 -2,25 -10,33 -18,19 -42,0 -66,1 -14,1 -19,5 -31,12 -21,10 -44,17 -68,12 -69,-15 -71,43 -116,43 -12,0 -24,-3 -36,-4 -14,-1 -25,0 -40,-2 -39,-7 -63,-27 -99,-5 -17,10 -9,10 -29,9 -33,-1 -13,40 -9,54 8,28 -9,38 32,51 19,6 13,5 28,14 10,6 23,6 34,8 9,13 41,48 46,57 7,17 -9,26 18,89 10,23 28,45 34,68 6,19 -5,23 -7,41 -3,24 15,15 1,40 -25,42 -24,56 -61,94 -12,12 -5,25 -21,33 -11,5 -6,-2 -16,10 -12,13 -32,21 -37,40 -8,22 16,11 45,57 l -9,33 c -3,13 -11,21 -9,34 2,22 24,36 35,54 12,19 9,9 21,20 18,16 1,25 -1,27 -13,17 20,42 27,59 -8,6 -94,20 -27,68 31,21 70,24 103,40 36,17 52,39 96,47 7,1 60,4 65,3 17,-5 28,-27 49,-17 24,11 22,23 49,0 12,-9 14,-1 27,-2 11,-1 11,-8 26,-9 10,-1 16,-1 25,4 17,12 41,10 74,33 13,9 30,20 44,27 20,11 19,23 36,37 39,30 5,25 41,64 9,10 4,16 9,28 10,6 14,1 21,8 6,6 1,9 12,16 10,7 35,16 38,19 7,5 1,7 12,15 10,8 12,21 39,48 22,21 18,14 82,-3 29,-8 26,26 83,-12 24,-16 37,-52 65,-25 13,12 41,47 52,63 27,39 -11,65 2,98 5,13 25,20 38,16 25,-9 18,-16 28,-31 68,-11 11,65 81,70 46,3 23,-4 51,24 34,35 67,-16 101,-24 23,-5 19,-22 52,-26 16,-2 22,5 35,-2 8,-3 17,-12 24,-14 13,-3 47,10 55,21 4,22 -4,34 2,59 7,27 17,23 -3,47 -9,11 -24,25 -26,39 -3,22 11,35 31,37 37,5 21,3 40,25 9,10 26,22 38,28 14,7 33,12 43,22 20,19 12,24 -3,42 -36,42 7,75 40,129 17,28 36,113 55,145 9,14 17,26 26,40 8,12 18,36 25,43 13,1 23,-2 33,-11 9,-9 17,-9 28,-19 24,-20 36,-19 61,-30 26,-11 45,18 70,16 49,-4 57,18 78,10 5,-28 -37,-64 -29,-107 3,-11 6,-4 9,-18 3,-9 2,-14 5,-24 13,-33 0,-17 -3,-32 0,-3 -1,-16 -2,-22 -1,-8 -4,-12 -4,-21 -1,-10 1,-12 -6,-19 -14,-13 -19,-11 -35,-16 -13,-4 -3,-4 -12,-13 -5,-5 -7,-3 -15,-11 -2,-10 0,-21 6,-28 15,-5 25,-3 36,8 22,21 11,12 28,9 l 9,9 c 19,-6 17,-24 38,-28 14,-3 47,-3 41,-25 -9,-5 -8,1 -18,-8 l -30,-26 c -10,-8 -11,-2 -19,-9 -18,-16 -14,-62 -34,-79 -17,13 -27,4 -45,-6 -16,-8 -27,-14 -33,-32 -13,-36 10,-27 27,-33 14,-5 27,-22 38,-30 12,5 11,10 24,5 12,-16 -2,-23 -2,-38 15,-16 15,-2 27,-12 9,-17 -14,-52 -29,-59 -23,-11 -21,2 -37,-1 -13,-3 -37,-2 -44,-5 -9,-10 -2,-14 -8,-23 -6,-8 -14,-3 -23,-8 -13,-6 -9,-14 -42,6 -23,15 -67,35 -85,0 -7,-13 -9,-28 -23,-38 -13,-10 -30,-8 -46,-18 -15,-9 -35,-58 -47,-77 -14,-22 -33,-3 -88,-36 -32,-19 -53,-52 -68,-86 -11,-24 6,-37 -35,-54 -25,-11 -96,-12 -108,-19 -6,-40 72,-33 98,-32 13,0 49,2 60,5 31,9 19,26 41,26 1,-2 23,-40 25,-43 6,-16 4,-46 11,-58 14,-9 30,-2 36,-29 2,-10 2,-20 2,-30 1,-45 24,-55 8,-78 -5,-7 -13,-9 -18,-15 -7,-8 -3,-13 -11,-22 -21,-9 -36,16 -56,5 -11,-7 -7,-26 -36,-37 -33,-12 -62,-32 -93,-50 -21,-11 -109,-73 -120,-95 -8,-19 -3,-34 -23,-49 -31,-24 -8,-24 -21,-50 -8,-14 -24,-11 -37,-35 -31,-57 -8,-42 2,-72 3,-11 2,-16 12,-25 15,-14 74,-33 98,-45 29,-15 48,-74 33,-102 -21,-8 -30,4 -41,-6 -8,-6 -18,-19 -25,-27 -39,-52 -32,-31 -62,-44 -2,-15 17,-32 7,-53 -8,-16 -34,-11 -46,-3 -17,12 -21,26 -44,9 -18,-15 -36,-6 -58,-9 -6,-7 -5,-14 -13,-21 -8,-9 -14,-8 -23,-13 -12,-7 -13,-40 -39,-28 -10,7 -5,16 -10,25 -23,1 -26,-21 -23,-41 28,-2 52,4 80,1 z"
   id="path10"
   inkscape:connector-curvature="0"
   style="fill:#181818" />
  <path
   class="fil1"
   d="m 1208,348 c 0,-11 0,-15 -1,-25 -3,-24 19,-23 19,-11 -1,2 3,7 3,16 0,10 -5,7 -8,18 -2,5 -13,11 -13,3 l 0,-1 z"
   id="path12"
   inkscape:connector-curvature="0"
   style="fill:#e0e0e0" />
  <path
   class="fil2"
   d="m 1879,1522 c -13,-5 -33,-17 -42,-26 -16,-14 -21,-20 -34,-37 -10,-15 -13,-38 -35,-30 -11,4 -24,26 -33,35 -15,14 -7,24 -27,40 -21,17 -3,33 1,51 4,26 -2,36 -8,58 -4,18 -15,42 1,54 24,17 7,33 18,47 16,0 9,-10 35,-3 74,21 46,41 49,75 3,36 23,33 -1,66 -15,21 -33,30 -21,57 16,6 37,2 50,13 10,8 13,21 29,33 12,10 25,16 39,21 20,7 23,15 38,25 9,-17 2,-41 5,-59 120,-11 96,3 157,28 27,-33 -26,-55 -34,-85 -3,-8 3,-13 2,-25 -1,-20 3,-9 7,-23 3,-9 1,-23 1,-32 0,-13 4,-16 4,-26 -11,-12 -33,-2 -30,-40 1,-14 24,-27 11,-55 -33,-69 -43,-42 -75,-64 -24,-17 -33,-70 -54,-83 -9,-6 -36,-7 -53,-15 z"
   id="path14"
   inkscape:connector-curvature="0"
   style="fill:#fdfde8" />
  <path
   class="fil2"
   d="m 2297,2239 c 2,-3 10,-32 12,-38 -13,-20 -6,-11 -9,-34 -1,-6 -6,-28 -8,-33 -2,-10 -14,-15 -24,-17 -27,-5 -12,-4 -23,-17 -7,-7 -19,-5 -19,-23 -1,-9 2,-26 8,-32 18,-18 40,-1 55,8 10,-4 1,-5 15,-8 l 15,18 c 7,-1 13,-12 21,-18 14,-11 17,-7 33,-9 1,-12 -13,-17 -21,-26 -17,-17 -20,-5 -31,-19 -20,-25 -14,-43 -28,-68 -29,-5 -23,-1 -50,-16 -15,-8 -30,-16 -47,-16 -16,0 -36,12 -37,29 -3,27 -1,28 -31,33 5,7 8,17 6,25 -31,4 -56,-16 -82,-29 -22,-11 -80,-6 -105,-3 -3,24 -3,48 -6,72 -3,21 -26,28 -29,50 -3,23 12,37 25,54 11,15 21,35 32,47 12,-4 19,-1 29,-13 8,-10 29,-34 42,-38 33,-11 3,9 64,9 17,0 17,3 32,8 13,3 16,8 17,22 2,21 -7,10 -7,33 l 33,25 c 28,21 26,29 48,37 12,5 6,7 17,12 18,8 27,14 41,16 6,-12 1,-23 12,-41 z"
   id="path16"
   inkscape:connector-curvature="0"
   style="fill:#fdfde8" />
  <path
   class="fil3"
   d="m 1269,906 c 6,-6 3,-7 7,-4 13,-2 6,25 10,34 11,2 55,-1 61,-3 28,-5 3,-4 12,18 7,15 5,6 6,24 0,8 4,15 2,22 -3,9 -6,8 -7,21 0,10 3,14 3,24 -1,4 -4,9 -3,17 1,14 7,7 4,56 8,4 4,0 4,8 10,7 5,9 5,21 11,0 11,-1 18,-2 10,17 10,20 30,24 32,7 54,6 88,-8 18,-8 -16,-10 28,-19 0,12 -1,18 11,22 8,2 21,3 27,-3 8,-8 -5,-10 24,-6 11,2 15,-4 27,-5 l 1,9 c 5,-9 -1,-8 7,-11 1,1 -6,4 7,0 9,-3 9,-7 13,-23 2,-15 4,-28 3,-43 -1,-11 -14,-44 -17,-48 -9,-8 -12,-6 -21,-18 -7,-10 -11,-20 -19,-28 -12,-14 -44,-11 -60,-32 l -8,-2 8,-4 c -11,-2 -13,-13 -20,-20 -31,-33 -4,-31 -37,-50 -12,-8 -20,-13 -32,0 -4,16 0,15 2,27 -22,0 -33,-33 -48,-13 2,-17 1,-18 -2,-35 -15,0 -14,1 -20,-12 -7,-18 -9,-5 -18,-15 -4,-6 -1,-6 -6,-12 -8,-8 -13,-15 -26,-20 -24,-10 -6,8 -46,-21 -22,-17 -19,-2 -36,-22 l -4,2 0,-6 c -6,8 -5,10 -13,4 -6,-5 -33,-24 -43,-13 -5,8 -6,30 -5,40 26,13 26,18 10,43 -16,1 -25,2 -21,21 19,0 30,2 49,0 6,10 4,18 18,9 -1,16 -1,31 15,44 8,7 4,-2 12,8 z"
   id="path18"
   inkscape:connector-curvature="0"
   style="fill:#c8ebff" />
  <path
   class="fil2"
   d="m 1252,1273 c -45,-34 -27,-28 -29,-56 -1,-8 -3,-4 -3,-12 0,-11 10,-9 8,-26 -10,-1 -28,-2 -36,4 -13,10 -10,8 -29,9 -7,24 -11,5 -9,22 14,7 27,-3 42,13 4,30 -16,29 -28,44 -7,10 3,10 -12,25 -7,7 -12,13 -19,17 -9,-4 -4,-1 -8,-8 -18,20 -11,9 -30,3 -13,8 -4,9 -24,13 -13,2 -15,4 -26,10 -12,6 -18,2 -28,7 -7,3 -2,5 -11,7 -4,0 -10,-1 -16,0 -7,6 -7,13 -15,18 -11,6 -15,1 -25,2 -10,0 -28,27 -28,32 -1,13 7,8 -8,18 -23,15 0,26 6,33 7,10 4,13 7,24 43,10 6,10 35,27 21,12 30,6 39,23 7,13 9,5 16,15 3,5 4,11 10,20 7,9 21,25 31,30 22,1 64,-22 82,-14 15,7 23,9 40,0 7,-3 25,-16 28,-20 -17,-2 -37,-3 -37,-27 1,-21 13,-28 32,-28 19,16 13,19 14,44 17,-9 16,-25 44,-13 20,-12 -1,-6 29,-9 -3,-22 -1,-11 1,-29 2,-20 -7,-11 -6,-26 1,-9 2,-3 4,-12 1,-4 0,-10 0,-14 1,-22 1,-10 -6,-24 -5,-11 2,-11 2,-22 0,-10 -6,-15 -8,-23 -9,-27 9,-33 6,-53 -16,-9 -17,-10 -36,-12 l 1,-32 z"
   id="path20"
   inkscape:connector-curvature="0"
   style="fill:#fdfde8" />
  <path
   class="fil2"
   d="m 1231,336 c -9,8 -3,11 -10,20 -10,2 -8,-3 -17,-2 -6,11 -1,19 -9,30 -14,6 -30,-4 -32,14 6,9 50,11 23,43 -17,21 -25,33 -25,61 -1,32 -18,28 -38,47 -9,8 -23,14 -25,17 -6,6 -1,8 -8,13 -6,4 -9,-1 -18,6 -4,22 24,14 12,44 -10,24 19,34 21,38 3,10 -7,19 7,26 7,3 18,5 25,3 33,-9 22,3 46,13 10,4 19,2 29,3 27,4 29,38 63,-13 15,-21 16,4 30,-36 8,-22 27,-13 26,-42 -8,-14 -10,-2 -12,-25 -1,-18 0,-14 13,-24 5,-4 14,-15 20,-17 12,-5 22,4 35,-4 4,-10 0,-12 4,-20 3,-8 7,-4 11,-13 4,-10 -2,-9 8,-15 8,-5 11,-2 10,-14 -11,-12 -14,0 -27,-10 -5,-23 25,-21 37,-33 8,-8 8,-14 13,-22 10,-17 13,-8 24,-14 -3,-6 -26,-18 -35,-21 -16,-5 -42,4 -52,-6 -13,-13 0,-18 -29,-30 -24,-9 -10,-27 -28,-29 -9,11 0,18 -9,26 -7,5 -20,2 -26,-2 -13,-9 -5,-12 -24,-11 -12,0 -24,-3 -33,-1 z"
   id="path22"
   inkscape:connector-curvature="0"
   style="fill:#fdfde8" />
  <path
   class="fil2"
   d="m 597,869 c -10,4 -7,21 -23,13 -16,-8 7,-15 -12,-26 l -13,11 c -12,-5 -8,-14 -24,-7 -2,3 2,40 -35,39 -43,-1 -26,-17 -47,-27 -16,4 -15,17 -32,16 -19,-3 -14,-15 -24,-23 -14,-1 -33,14 -44,16 -13,-4 -6,-9 -20,-7 -6,8 -7,26 -15,36 -12,3 -20,-3 -35,0 -8,7 -5,9 -10,13 -6,6 -6,0 -12,9 -4,6 -7,27 -9,34 -11,44 -20,22 28,85 9,11 16,7 22,20 22,44 -23,23 6,59 7,-1 38,-16 52,-16 4,6 8,14 11,19 21,-1 29,-17 54,-15 33,4 23,-13 53,-10 10,19 3,27 40,35 12,2 24,0 36,0 43,-1 35,-12 45,-18 7,-4 6,4 12,-7 -9,-13 -14,0 -19,-19 -2,-10 -4,-20 0,-30 8,-17 2,-13 3,-28 1,-12 9,-13 13,-21 9,-21 -14,-28 5,-56 9,-13 10,-9 10,-26 0,-23 -1,-12 -10,-27 2,-13 6,-30 -6,-42 z"
   id="path24"
   inkscape:connector-curvature="0"
   style="fill:#fdfde8" />
  <path
   class="fil2"
   d="m 360,289 c 2,10 23,27 31,35 2,3 -14,57 0,83 19,-7 24,-16 39,7 11,17 -5,34 -5,50 38,4 32,-4 52,26 24,-12 13,0 27,1 4,-9 0,-19 1,-32 l 13,-10 c 7,6 11,14 18,16 19,7 8,-4 17,16 8,0 17,-1 23,0 12,2 4,6 22,4 3,-15 -5,-12 0,-28 l 20,-3 c 1,-10 -1,-8 -1,-14 0,-13 0,-2 5,-14 -12,-8 -27,-7 -37,-14 -6,-32 7,-31 7,-49 -5,-9 -12,-10 -19,-16 -1,-16 6,-20 -7,-31 -13,-12 -19,-4 -32,-13 -16,-13 -18,-54 0,-59 -8,15 -18,44 4,57 11,7 16,0 29,11 14,12 9,15 9,33 26,24 19,4 38,25 14,-5 24,-9 38,-11 31,-4 13,-8 30,-17 13,1 8,8 26,5 10,-2 10,-8 26,-5 11,2 24,23 37,24 12,-13 -1,-13 14,-22 11,-7 13,-10 14,-23 2,-24 -1,-11 14,-22 11,-8 -1,-13 13,-24 16,8 13,22 40,14 9,-8 1,-6 14,-14 12,-8 11,-2 18,-6 -7,-14 -15,-7 -40,-42 -34,8 -36,-11 -60,-22 -37,-18 -41,22 -64,13 -21,-7 -26,-25 -56,-33 -43,-11 -3,22 -46,39 -36,15 -41,-14 -74,1 -10,5 -19,11 -30,15 -41,13 -91,-5 -113,15 -27,26 -20,21 -55,34 z"
   id="path26"
   inkscape:connector-curvature="0"
   style="fill:#fdfde8" />
  <path
   class="fil2"
   d="m 1564,1507 c 41,-16 2,-31 11,-49 8,-16 18,-12 28,-52 4,-16 8,-13 -1,-29 -9,-16 -11,-5 -14,-26 -4,-43 24,-32 15,-55 -23,-8 -16,19 -24,30 -10,0 -10,-4 -18,-8 -8,4 -13,14 -20,19 -27,-4 -22,6 -35,10 -15,4 -5,-6 -18,-6 -7,0 -6,5 -14,10 -9,-4 -6,-5 -14,-11 -18,10 -25,11 -54,11 -96,0 -40,19 -79,47 -13,9 0,7 -16,13 -21,9 -12,22 -15,44 -3,20 -3,6 2,23 3,11 -1,16 -2,25 -1,15 5,9 4,22 -12,1 -16,-4 -26,1 2,10 16,23 23,31 8,10 17,22 24,31 21,24 33,41 22,76 -4,12 -13,32 -3,43 10,11 29,8 37,-5 8,-15 4,-25 32,-22 16,1 24,16 32,18 14,-20 -8,-27 -2,-43 l 20,-8 c 3,-14 -1,-19 12,-28 14,-11 8,-9 16,-22 2,-4 14,-14 19,-18 13,-12 16,-2 28,-5 6,-8 6,-16 14,-26 11,-16 14,-5 27,-13 0,-18 -13,-6 -11,-28 z"
   id="path28"
   inkscape:connector-curvature="0"
   style="fill:#fdfde8" />
  <path
   class="fil2"
   d="m 1782,1421 c -1,-9 -3,-6 -5,-12 -10,-23 12,-39 -78,-49 -14,-1 -52,-2 -59,-14 -8,-12 1,-18 -5,-26 -15,-17 -46,-14 -43,30 2,18 18,24 20,38 0,4 -10,39 -13,43 -5,8 -20,27 -22,34 4,12 12,13 9,30 -3,14 -11,7 -18,19 4,13 17,9 9,25 -14,6 -18,-2 -28,13 -5,8 -7,19 -14,26 -18,5 -35,1 -47,25 -8,16 -6,10 -17,20 -10,8 -4,15 -9,28 l -20,9 c 0,12 6,8 7,23 0,9 -3,18 -4,26 -6,64 42,26 69,49 10,7 19,26 30,29 25,7 53,-30 78,-36 17,-4 20,-16 36,-22 18,-7 36,0 52,-5 5,-11 5,-36 -2,-47 -8,-12 -26,-9 -19,-35 9,-28 25,-65 13,-96 -5,-12 -14,-30 -1,-41 33,-28 4,-19 48,-65 28,-28 20,-8 33,-19 z"
   id="path30"
   inkscape:connector-curvature="0"
   style="fill:#fdfde8" />
  <path
   class="fil2"
   d="m 1540,953 c 16,21 48,18 60,32 8,8 12,18 19,28 9,12 12,10 21,18 3,4 16,37 17,48 1,15 -1,28 -3,43 -4,16 -4,20 -13,23 -13,4 -6,1 -7,0 -1,12 -14,31 4,65 44,84 -20,57 -28,91 2,2 23,14 28,16 20,-7 12,-15 44,-19 26,-3 92,-2 118,2 39,6 29,15 42,20 10,-8 21,-32 23,-48 3,-21 -3,-41 22,-48 30,-9 20,-18 22,-47 1,-13 5,-21 2,-32 -3,-22 0,-12 11,-21 2,-19 -1,-17 -14,-26 -11,-7 -10,-14 -15,-24 -18,-1 -32,16 -51,6 -14,-7 -16,-24 -28,-33 -8,-6 -29,-11 -43,-19 -13,-8 -26,-15 -39,-23 -45,-27 -105,-64 -140,-105 -6,3 -20,23 -25,30 -7,8 -19,15 -27,23 z"
   id="path32"
   inkscape:connector-curvature="0"
   style="fill:#fdfde8" />
  <path
   class="fil2"
   d="m 1627,1156 -1,-9 c -12,1 -16,7 -27,5 -29,-4 -16,-2 -24,6 -6,6 -19,5 -27,3 -12,-4 -11,-10 -11,-22 -44,9 -10,11 -28,19 -34,14 -56,15 -88,8 -20,-4 -20,-7 -30,-24 -7,1 -7,2 -18,2 0,-12 5,-14 -5,-21 -9,-8 -10,-2 -17,1 -9,5 -9,2 -19,3 -18,3 -12,8 -36,9 -27,1 -13,7 -27,18 -18,16 -15,4 -29,0 -6,10 -1,19 -9,35 -12,25 -4,9 -4,30 0,15 -7,17 5,34 9,13 12,8 24,16 l -1,30 c 10,6 6,0 18,6 30,18 21,10 12,37 -5,15 -2,25 5,38 9,21 -1,24 0,35 13,3 32,-18 39,-23 21,-13 0,-33 24,-39 38,-11 50,-2 87,-8 20,-4 7,-4 20,-11 7,6 6,9 14,12 20,-14 8,-13 28,-2 15,-4 11,-8 33,-12 15,-3 12,-12 24,-19 12,2 5,7 18,8 5,-10 0,-17 7,-25 8,-8 17,-4 24,-5 6,-1 13,-9 19,-13 9,-7 13,-6 19,-11 5,-25 -1,-35 -12,-56 -5,-11 -4,-16 -8,-27 -5,-15 -2,-13 1,-28 z"
   id="path34"
   inkscape:connector-curvature="0"
   style="fill:#fdfde8" />
  <path
   class="fil2"
   d="m 1134,230 c 0,-10 -6,-19 -11,-27 -33,0 -103,7 -130,-6 -59,-28 -40,44 -85,31 -9,-10 -3,-10 -9,-21 -12,-2 -10,2 -19,9 -7,7 -11,6 -16,13 8,21 38,26 38,45 -10,5 -11,-4 -23,7 -7,6 -2,5 -9,10 -3,3 -5,2 -10,6 18,20 17,-7 32,27 26,5 24,-2 33,24 2,8 3,6 6,12 8,16 10,12 16,22 8,15 -6,14 -2,30 6,10 2,1 11,8 4,2 6,6 10,9 19,-1 26,-17 42,-7 7,13 -2,26 7,37 3,3 46,5 48,6 9,21 -4,16 -17,27 0,14 3,10 8,19 13,22 -5,42 -1,69 15,6 7,5 16,0 9,-4 9,-2 19,-4 6,-8 2,-13 12,-17 15,-6 6,0 19,-12 11,-10 27,-17 34,-27 11,-13 1,-36 9,-52 5,-8 19,-28 24,-34 29,-34 -56,-19 -68,-45 -8,-17 -1,-29 14,-38 12,-7 8,0 19,-11 8,-7 11,-6 17,-12 -3,-11 -4,-5 -9,-15 -9,-18 0,-15 -33,-17 -4,-12 2,-13 -2,-27 -4,-13 -5,-19 -4,-33 l 14,-6 z"
   id="path36"
   inkscape:connector-curvature="0"
   style="fill:#fdfde8" />
  <path
   class="fil2"
   d="m 1150,993 c 15,10 3,21 29,25 7,-5 12,-18 13,-27 -6,-13 -11,-10 -14,-19 -3,-14 3,-10 -9,-22 -26,-25 -14,-36 -13,-39 4,-22 -21,-11 -20,-39 0,-16 6,-11 -4,-24 -7,-9 -4,-13 -4,-25 -6,-6 -11,-5 -15,-11 -6,-8 -1,-9 -10,-17 -20,-19 -8,-15 -8,-36 -4,-5 -12,-9 -10,-15 3,-12 8,-1 15,-10 7,-11 -6,-39 -8,-42 -16,-2 -34,2 -49,0 -3,-1 -59,-19 -69,-26 -17,-12 -21,4 -35,6 -19,4 -1,-14 -34,-11 -24,1 -21,10 -33,14 -7,3 -22,-10 -27,10 -3,11 -1,11 3,18 6,12 2,8 3,21 14,11 20,5 39,22 22,20 40,13 45,14 29,1 7,24 7,32 -1,9 4,17 2,28 -1,13 -5,7 -8,18 11,28 48,-4 23,67 -6,15 -20,19 -14,39 3,9 9,11 12,17 6,11 -2,9 2,23 8,2 24,-3 37,-1 17,3 10,10 22,18 16,0 19,-10 33,-5 12,4 16,12 31,10 12,-8 10,-21 32,-10 23,11 21,-4 36,-3 z"
   id="path38"
   inkscape:connector-curvature="0"
   style="fill:#fdfde8" />
  <path
   class="fil2"
   d="m 674,837 c 0,1 0,2 -1,4 -6,11 -12,1 -22,12 4,9 12,8 20,30 5,13 14,13 25,22 11,10 26,8 40,7 35,-1 20,6 38,9 11,-7 9,-20 27,-17 l 13,36 c 9,-2 20,-18 27,-21 12,8 2,8 11,20 l 10,-7 21,10 c 11,-9 12,-22 16,-34 7,-20 2,-20 23,-26 8,-22 -1,-10 13,-31 -11,-34 10,-9 5,-42 -1,-10 -5,-14 -1,-24 5,-10 10,-6 4,-19 -15,-6 -18,3 -30,-1 -8,-3 -31,-24 -42,-28 -5,-2 -18,-6 -23,-8 2,-1 0,0 0,1 1,13 -12,15 -17,23 -1,0 -9,10 -11,8 -16,-8 -13,-7 -28,-5 -28,2 -21,10 -34,17 -11,7 -14,7 -24,16 -14,11 -6,30 -16,37 -8,5 -34,11 -44,11 z"
   id="path40"
   inkscape:connector-curvature="0"
   style="fill:#fdfde8" />
  <path
   class="fil2"
   d="m 848,729 c -1,-1 -2,-1 -2,-2 -1,-9 4,-7 0,-18 -2,-7 -6,-4 -6,-17 0,-18 15,-19 6,-35 -11,-7 -12,2 -28,-8 -9,-5 -14,-9 -24,-6 -11,5 -9,12 -24,5 -14,-7 -10,-6 -27,-6 -5,7 -4,13 -14,15 -8,1 -22,-3 -26,5 -7,13 16,2 -27,29 11,80 -12,53 -24,64 6,12 8,5 19,9 2,0 15,9 18,10 2,25 -21,14 -22,44 0,15 8,14 7,19 10,0 36,-6 44,-11 10,-7 2,-26 16,-37 10,-9 13,-9 24,-16 13,-7 6,-15 34,-17 15,-2 12,-3 28,5 2,2 10,-8 11,-8 5,-8 18,-10 17,-23 0,-1 2,-2 0,-1 z"
   id="path42"
   inkscape:connector-curvature="0"
   style="fill:#fdfde8" />
  <path
   class="fil2"
   d="m 713,1274 c 15,9 9,16 33,16 6,-11 12,-17 6,-29 -8,-17 0,-12 5,-26 -8,-11 -16,-8 -16,-25 12,-11 18,-6 28,-12 7,-4 2,-4 10,-5 11,-1 2,1 11,4 15,-11 16,-6 33,-4 12,-13 6,-10 11,-24 17,-6 24,6 26,-13 -15,-4 -15,2 -32,-8 l 0,-21 c -14,-11 -3,-1 -12,-15 -53,0 -16,-2 -43,-12 -38,-15 -23,-3 -41,-11 -37,-16 -22,23 -49,19 -18,-3 -23,-17 -35,-15 -5,13 8,16 11,25 4,17 -4,18 -10,28 2,12 10,12 2,25 -7,13 -7,12 1,24 -11,18 -19,17 -7,38 10,0 19,-4 27,1 14,7 2,7 24,7 8,5 15,24 12,30 -5,-9 -7,-17 -12,-26 -5,-1 -12,0 -17,-2 -6,-3 -3,-4 -10,-7 -8,-3 -16,2 -29,1 -8,-21 -7,-23 5,-39 -2,-14 -8,-3 -2,-19 3,-10 5,-6 8,-16 -4,-14 -4,-2 -6,-19 -1,-16 2,-6 -7,-18 l -47,2 c -10,14 0,6 -18,15 -14,6 -38,5 -54,5 -9,0 -19,-4 -26,-4 6,17 3,28 -4,43 -8,17 -12,16 -27,22 1,23 21,11 19,27 -3,4 -17,8 -24,8 -28,4 -22,11 -26,23 -2,6 -5,8 -7,13 45,31 66,18 91,22 15,2 13,8 29,-1 18,-12 32,-25 53,-11 28,19 25,7 48,-8 19,-1 11,9 32,-3 11,-5 24,-5 36,-5 z"
   id="path44"
   inkscape:connector-curvature="0"
   style="fill:#fdfde8" />
  <path
   class="fil2"
   d="m 1050,583 c -2,-6 -2,-12 -2,-18 0,-18 12,-30 4,-51 -4,-8 -15,-13 -9,-25 6,-11 18,0 19,-19 -10,-4 -35,-3 -47,-6 -15,-12 -3,-25 -10,-39 -14,-5 -18,2 -32,8 -18,6 -1,8 -30,11 -11,21 1,9 -11,24 -10,12 1,11 -12,23 -10,5 -59,-19 -73,-24 -3,-1 -23,-6 -27,-7 -8,13 0,24 -18,44 8,9 11,5 13,19 3,22 6,12 6,28 -10,8 -15,8 -17,23 10,10 14,6 20,22 5,11 6,25 -10,22 l -6,-21 c -15,-3 -28,-5 -29,12 10,9 13,-1 18,16 5,15 1,10 16,17 35,17 36,0 40,26 15,1 11,9 22,1 6,-5 9,-8 18,-11 33,-9 37,8 42,11 15,-4 23,-18 39,-7 10,7 3,4 17,9 l 59,18 c 11,0 41,1 51,-2 l 0,-19 c -13,-10 -9,4 -19,-18 -9,-20 -6,-8 0,-26 5,-14 -18,-34 -19,-35 -6,-4 -6,-1 -13,-6 z"
   id="path46"
   inkscape:connector-curvature="0"
   style="fill:#fdfde8" />
  <path
   class="fil2"
   d="m 1496,692 c 29,-44 -4,-39 82,-72 47,-18 68,-25 74,-79 6,-45 -16,-9 -42,-30 -14,-11 -24,-27 -36,-42 -32,-39 -33,-14 -49,-28 -16,-13 9,-34 2,-58 -19,-7 -30,3 -50,18 -9,8 -2,4 -8,13 -12,5 -15,-2 -23,13 -5,8 -4,12 -12,20 -16,17 -38,10 -37,31 12,6 22,-4 28,14 -3,11 -9,13 -18,18 -3,22 2,11 -13,22 -1,9 0,15 -4,23 -17,6 -32,-2 -43,7 -7,7 -15,16 -25,22 5,15 3,5 2,23 17,14 19,12 41,25 21,13 36,-4 49,14 25,32 9,14 41,22 10,3 18,21 41,24 z"
   id="path48"
   inkscape:connector-curvature="0"
   style="fill:#fdfde8" />
  <path
   class="fil2"
   d="m 1251,754 c 17,20 14,5 36,22 40,29 22,11 46,21 13,5 18,12 26,20 5,6 2,6 6,12 9,10 11,-3 18,15 6,13 5,12 20,12 3,17 4,18 2,35 15,-20 26,13 48,13 -2,-12 -6,-11 -2,-27 12,-13 20,-8 32,0 33,19 6,17 37,50 7,7 9,18 20,20 16,-8 46,-39 44,-56 -1,-8 -8,-31 -12,-37 -8,-12 -20,-13 -25,-25 -6,-14 1,-31 -11,-40 -13,-11 -15,-5 -27,-22 -10,-14 -20,-37 -22,-53 -1,-10 3,-7 3,-17 -8,-7 -15,-7 -23,-13 -11,-9 -3,-12 -21,-13 -34,-2 -21,-14 -42,-29 -15,-1 -26,2 -39,-5 -11,-7 -15,-14 -29,-13 -5,9 0,9 -7,18 -4,7 -9,8 -14,12 -7,7 -9,25 -15,34 -11,8 -13,-1 -23,15 -9,15 -5,8 -16,19 0,12 6,19 4,28 l -14,4 z"
   id="path50"
   inkscape:connector-curvature="0"
   style="fill:#fdfde8" />
  <path
   class="fil2"
   d="m 441,469 c -9,7 -2,8 -17,15 -5,2 -18,8 -22,9 -23,6 -42,-11 -39,18 1,11 -1,20 -1,31 1,21 8,8 11,21 3,19 -26,9 -39,21 2,10 11,19 13,30 5,22 -2,22 -6,38 -5,20 16,45 30,56 16,0 11,-10 30,-10 8,7 15,25 34,14 7,-4 25,-18 30,-23 -2,-14 -10,-5 -6,-20 14,-4 13,12 29,15 8,-6 14,-44 41,-34 15,6 1,5 20,3 8,-1 34,6 40,10 12,7 19,19 28,24 21,-15 11,1 32,-6 3,-11 -2,-15 4,-24 6,-10 6,-2 9,-18 -8,-9 -9,-8 -19,-9 -18,-2 -44,-28 -46,-31 -6,-9 0,-12 -5,-21 -4,-7 -9,-4 -13,-13 -4,-10 2,-9 -7,-19 -22,-24 -8,-14 2,-33 5,-7 3,-20 3,-28 -6,-1 -19,0 -23,-1 -9,-2 -4,-5 -9,-14 -11,-3 -8,3 -16,-5 -5,-4 -4,-6 -10,-10 l -10,7 c -2,14 4,24 -5,34 -12,-1 -4,-6 -14,-6 -15,-1 0,3 -11,8 -13,-5 -3,-28 -38,-29 z"
   id="path52"
   inkscape:connector-curvature="0"
   style="fill:#fdfde8" />
  <path
   class="fil2"
   d="m 839,1022 c 3,-10 11,-16 15,-25 8,-17 12,-14 30,-48 -30,-23 -26,2 -37,-9 -5,-5 -2,-7 -5,-15 -28,17 -18,23 -32,18 l -13,-35 c -19,2 -7,12 -26,18 -14,-6 -5,-12 -28,-11 -10,1 -27,2 -37,0 -10,-2 -35,-22 -39,-33 -10,-28 -21,-26 -48,-23 -16,2 -15,10 -12,22 5,18 1,16 1,31 12,12 11,25 8,44 -37,35 3,45 -19,72 -15,17 -3,23 -9,39 -15,40 11,42 13,44 7,5 2,3 6,12 l 33,-1 c 5,6 7,11 14,12 7,-28 -23,-27 -8,-43 13,-11 21,18 48,12 7,-9 10,-26 32,-21 11,3 5,5 22,6 14,1 11,3 21,5 4,-5 19,-27 23,-29 4,-2 38,-4 45,-5 2,-13 -1,-26 2,-37 z"
   id="path54"
   inkscape:connector-curvature="0"
   style="fill:#fdfde8" />
  <path
   class="fil2"
   d="m 2143,2193 c -2,-24 6,-16 6,-32 1,-13 -3,-19 -15,-23 -46,-14 -44,1 -66,-11 -29,-17 -33,1 -52,14 -11,8 -10,14 -19,21 -11,10 -16,6 -26,11 0,13 32,95 39,115 7,22 14,32 27,51 5,7 11,14 16,21 6,9 7,18 14,25 14,0 44,-23 56,-32 23,-18 34,-17 60,-27 24,-10 43,15 64,16 23,1 -2,-4 37,2 34,6 22,6 32,8 0,-8 -23,-56 -28,-67 -13,-4 -10,0 -24,-8 -10,-6 -10,-5 -21,-9 -12,-4 -4,-6 -19,-12 -14,-5 -50,-43 -64,-52 -8,-4 -10,-5 -17,-11 z"
   id="path56"
   inkscape:connector-curvature="0"
   style="fill:#fdfde8" />
  <path
   class="fil2"
   d="m 1222,1129 c -5,-12 -11,-4 -19,-10 -7,-4 -3,-9 -7,-18 -6,-11 -27,-15 -13,-36 10,-16 12,-21 3,-40 -9,-5 -18,-4 -24,-9 -8,-7 -5,-12 -13,-19 -12,2 -13,8 -28,6 -14,-3 -5,-8 -24,-6 -18,12 -7,22 -37,8 -31,-15 -20,4 -46,-1 -3,-2 -8,-29 -51,-13 -7,12 1,7 -11,21 -22,25 14,35 1,46 -7,6 -15,-3 -23,8 7,12 10,2 18,11 6,5 1,7 12,14 6,4 32,19 34,20 19,19 -13,14 -3,38 6,15 4,6 5,23 1,16 4,4 8,19 -3,20 -19,12 -14,29 15,5 4,-1 16,-2 8,-1 4,2 14,3 11,-9 10,-18 37,-9 6,2 5,4 11,6 12,3 17,-3 28,-5 18,-3 10,5 25,-10 16,-16 34,-13 55,-16 16,-2 10,-8 22,-11 11,-3 24,-1 34,-2 4,-33 -2,-27 -6,-35 -3,-5 -1,-6 -4,-10 z"
   id="path58"
   inkscape:connector-curvature="0"
   style="fill:#fdfde8" />
  <path
   class="fil2"
   d="m 344,575 c 8,-2 19,-3 24,-6 1,-18 -10,-3 -9,-32 0,-19 -1,-23 -2,-40 13,-12 25,-5 42,-8 6,-1 29,-11 33,-16 -6,-9 -15,-4 -9,-20 4,-10 9,-16 7,-29 -1,-7 -9,-18 -16,-20 -15,-5 -10,8 -26,5 -13,-24 0,-81 0,-81 -5,-10 -32,-37 -42,-40 -25,-7 -51,-2 -75,-7 -53,-11 -45,-29 -93,2 -17,10 -16,1 -30,5 -6,18 8,33 10,52 2,28 6,25 32,33 14,4 11,6 21,12 10,6 17,0 28,4 3,1 25,28 30,34 55,63 -1,38 54,143 6,12 6,13 21,9 z"
   id="path60"
   inkscape:connector-curvature="0"
   style="fill:#fdfde8" />
  <path
   class="fil2"
   d="m 2297,1794 c 1,-28 -23,-28 22,-46 1,-11 -6,-28 -15,-35 -17,-15 -23,-1 -37,-3 -56,-8 -49,6 -66,-32 -20,-2 -10,-4 -24,-10 -15,3 -35,17 -52,24 -35,15 -46,2 -57,1 -1,9 0,22 -4,29 -6,10 -9,6 -10,22 0,30 16,21 30,32 3,12 -4,10 -5,26 0,11 2,23 0,33 -1,14 -8,9 -7,23 2,28 -6,8 -2,25 10,42 48,26 38,88 l 23,3 c -1,-16 -7,-11 -8,-24 l 29,-10 c 11,-25 -7,-45 43,-54 16,-2 5,6 22,5 -4,-14 -14,-18 -15,-39 0,-18 9,-28 26,-30 21,-1 21,-4 36,-17 26,-24 8,-9 33,-11 z"
   id="path62"
   inkscape:connector-curvature="0"
   style="fill:#fdfde8" />
  <path
   class="fil2"
   d="m 804,307 c -2,15 2,25 -11,36 -10,8 -8,1 -12,11 -3,7 0,7 -7,15 -17,1 -25,-17 -39,-22 -13,-5 -15,2 -25,4 -17,3 -17,-2 -28,-6 -17,19 -5,13 -32,18 -12,2 -27,10 -38,11 -9,-9 -1,-10 -14,-11 -3,7 -1,5 -3,11 -3,5 -3,3 -6,8 -4,8 -3,19 -2,27 10,7 39,11 54,19 14,8 16,0 31,4 26,8 14,-1 29,8 19,11 27,19 49,25 22,5 0,6 28,3 16,-1 21,5 34,6 5,-12 -3,-5 2,-16 24,-6 95,36 106,28 7,-9 1,-8 5,-16 4,-11 3,0 8,-13 8,-21 3,-16 26,-19 -2,-24 -7,-10 -16,-21 -10,-12 1,-15 2,-28 -4,-10 -7,-9 -12,-16 -14,-18 -11,-32 -19,-40 -7,-7 -13,-3 -25,-6 -4,-8 -2,-13 -9,-16 -9,-4 -9,2 -20,-8 -13,-11 -4,-4 -18,-11 -11,-5 -5,-8 -17,-11 -11,17 8,13 -21,26 z"
   id="path64"
   inkscape:connector-curvature="0"
   style="fill:#fdfde8" />
  <path
   class="fil2"
   d="m 986,1225 c -5,-26 14,-18 14,-32 0,-10 -6,-6 -8,-16 -1,-11 6,-10 -3,-18 -8,7 -3,21 -5,34 -11,8 -6,1 -19,15 -2,2 -16,12 -19,14 -19,12 0,25 -31,35 -38,13 -56,-8 -77,24 -7,13 -2,15 -1,27 l -19,18 c 4,8 17,14 27,19 16,8 12,8 22,22 7,10 14,14 23,21 15,11 10,17 17,30 l 14,-10 c 4,-20 -10,-7 8,-24 8,-8 6,-15 16,-21 11,-7 18,3 31,-3 5,-2 11,-13 16,-19 8,-1 12,1 18,-1 7,-2 4,-3 12,-7 12,-5 14,1 28,-7 12,-7 14,-7 28,-9 15,-4 11,-8 19,-16 10,3 8,9 20,11 9,-8 4,-11 16,-15 l 3,12 c 25,-14 26,-35 28,-39 10,-15 31,-9 27,-42 -15,-12 -25,-5 -41,-11 -2,-18 3,-9 6,-22 -30,-3 -24,9 -41,19 -2,1 -43,9 -47,8 -16,-4 -24,-18 -41,-2 -12,11 -10,2 -19,2 -8,0 -8,6 -22,3 z"
   id="path66"
   inkscape:connector-curvature="0"
   style="fill:#fdfde8" />
  <path
   class="fil2"
   d="m 476,782 c -29,-4 -12,-6 -26,-6 -8,-1 -14,5 -24,-4 -14,-14 -1,-14 -3,-53 -9,-4 -8,1 -15,-6 -3,-2 -5,-7 -9,-11 -16,2 -19,14 -31,8 -4,-1 -13,-15 -20,-21 -13,13 -24,49 -37,69 -37,55 -36,29 -38,65 -9,5 -12,12 -19,14 -14,5 -7,-3 -20,10 -11,11 -26,18 -28,35 11,10 16,4 25,18 26,41 29,18 40,5 l 34,2 c 9,-13 7,-25 17,-39 19,1 11,7 23,9 8,-4 5,-5 13,-8 23,-9 30,-16 39,3 14,31 31,-4 51,-5 6,8 12,23 22,26 52,16 49,-29 51,-33 9,-16 21,-2 28,3 6,-6 14,-14 16,-21 -16,-11 -26,-7 -44,-8 -8,-8 -17,-16 -25,-24 -16,-13 -17,-7 -20,-28 z"
   id="path68"
   inkscape:connector-curvature="0"
   style="fill:#fdfde8" />
  <path
   class="fil2"
   d="m 593,865 c 16,-13 43,-10 52,-14 7,-3 5,-4 10,-6 7,-3 6,0 13,-4 2,-13 -13,-10 -3,-36 5,-12 17,-14 20,-25 -8,-21 -42,-7 -35,-30 9,-6 11,-2 22,-5 6,-54 1,-50 -16,-62 -13,2 -5,4 -22,3 -18,-2 -3,1 -17,6 -16,-9 -16,-23 -42,-30 -11,-3 -14,-7 -28,-5 -24,4 -9,-1 -26,-4 -29,7 -15,25 -34,36 -10,-2 -14,-14 -24,-16 8,17 8,15 -7,28 -9,9 -21,14 -28,21 -2,16 1,23 -6,37 11,16 9,15 25,12 1,0 29,7 31,8 11,15 -6,9 20,29 7,5 19,17 25,23 21,1 26,-5 46,9 2,14 -2,6 3,20 5,15 -2,6 2,17 17,7 10,-5 19,-12 z"
   id="path70"
   inkscape:connector-curvature="0"
   style="fill:#fdfde8" />
  <path
   class="fil2"
   d="m 1276,902 c -15,29 -23,1 -53,33 -11,11 -7,4 -17,10 -3,9 -1,15 -3,22 -3,12 -4,5 -14,11 21,33 -10,17 2,50 12,33 -7,29 -8,52 8,19 16,5 20,35 9,3 13,0 19,7 8,7 3,8 8,15 4,7 20,19 26,21 21,-13 9,-8 20,-20 7,-9 21,-5 32,-6 10,-2 12,-7 28,-9 21,-1 12,-8 28,-8 3,-49 -3,-42 -4,-56 -1,-8 2,-13 3,-17 0,-10 -3,-14 -3,-24 1,-13 4,-12 7,-21 2,-7 -2,-14 -2,-22 -1,-18 1,-9 -6,-24 -9,-22 16,-23 -12,-18 -6,2 -50,5 -61,3 -4,-9 3,-36 -10,-34 z"
   id="path72"
   inkscape:connector-curvature="0"
   style="fill:#fdfde8" />
  <path
   class="fil2"
   d="m 1139,190 -10,13 c 6,21 25,21 -5,36 -1,13 0,14 3,26 5,18 1,14 1,27 42,4 21,1 37,24 7,8 6,1 7,14 -20,21 -51,25 -54,42 2,23 13,27 35,29 5,-6 6,-14 13,-18 7,-4 18,-2 27,-4 1,-2 10,-36 11,-39 1,-17 -6,-30 8,-40 21,0 19,15 21,30 16,2 23,4 40,2 0,-15 -9,-22 -2,-38 18,-24 77,13 98,-17 1,-22 -35,-59 -56,-60 -19,-1 -38,9 -54,0 -22,-11 -7,-27 0,-39 -5,-9 -12,-7 -17,-18 -6,-11 -3,-21 -7,-30 -13,4 -24,23 -40,29 -19,9 -36,-2 -53,-9 -11,-5 -50,-21 -39,8 3,8 27,19 36,32 z"
   id="path74"
   inkscape:connector-curvature="0"
   style="fill:#fdfde8" />
  <path
   class="fil2"
   d="m 809,593 c 11,11 1,16 12,21 8,-18 -9,-28 -20,-37 -3,-26 18,-18 15,-36 -12,-29 -11,-23 -18,-37 3,-9 9,-9 11,-24 -22,-13 -26,-9 -47,-4 -16,-11 -18,-6 -31,-13 -25,-14 -29,-22 -46,-23 -15,-2 -8,-3 -19,-5 -9,-1 -14,2 -22,-1 -2,0 -10,-5 -16,-7 -13,15 -6,5 -6,21 -1,16 -11,7 -22,13 l 2,24 c 0,1 -1,2 -5,3 -4,2 -9,1 -15,2 -4,13 3,15 -5,26 -4,6 -8,8 -12,15 5,12 12,11 15,19 7,16 -6,8 11,22 11,9 4,14 9,24 0,2 12,12 16,16 16,18 35,11 45,21 19,18 -20,22 -3,46 12,17 38,-2 40,-9 2,-8 -5,-15 12,-16 14,-2 19,4 26,-8 13,-23 31,3 46,0 9,-2 14,-11 12,-19 -3,-13 -10,-8 -19,-14 -2,-22 16,-25 34,-20 z m 7,-52 c -4,3 -7,5 -8,6 2,-3 4,-5 8,-6 z"
   id="path76"
   inkscape:connector-curvature="0"
   style="fill:#fdfde8" />
  <path
   class="fil2"
   d="m 1269,906 c -8,-10 -4,-1 -12,-8 -16,-13 -16,-28 -15,-44 -14,9 -12,1 -18,-9 -19,2 -30,0 -49,0 -4,-19 5,-20 21,-21 16,-25 16,-30 -10,-43 -1,-10 0,-32 5,-40 10,-11 37,8 43,13 8,6 7,4 13,-4 9,-8 6,-1 14,-7 l -5,-14 c -38,-1 -17,-6 -40,-12 -20,-5 -24,3 -42,-9 -13,-9 -18,-15 -36,-8 -20,8 -16,-10 -39,-2 1,14 9,7 7,28 -2,19 -8,11 -17,19 5,11 9,5 10,17 1,9 -3,9 -2,23 10,10 9,3 16,19 6,13 7,7 18,15 2,12 -2,17 4,26 9,13 7,4 5,20 -4,31 13,19 19,36 6,17 -13,16 8,42 4,6 9,8 12,15 6,12 0,13 17,13 6,-10 0,-21 7,-28 4,-5 11,-4 21,-15 21,-22 26,-4 45,-22 z"
   id="path78"
   inkscape:connector-curvature="0"
   style="fill:#fdfde8" />
  <path
   class="fil2"
   d="m 305,1133 c -2,17 15,11 12,34 -16,11 -35,3 -51,22 -6,29 50,43 71,49 14,4 32,10 45,16 13,5 28,21 40,21 14,-18 -4,-29 33,-34 12,-2 4,0 14,-4 6,-2 4,0 9,-4 -10,-8 -22,-5 -20,-25 2,-4 32,-8 34,-43 2,-28 -11,-28 -11,-28 -11,-7 -8,-14 -15,-24 -10,-2 -18,2 -27,8 -10,7 -18,2 -29,1 -16,-1 -30,15 -53,15 -5,-9 -1,-9 -10,-19 -4,0 -39,12 -42,15 z"
   id="path80"
   inkscape:connector-curvature="0"
   style="fill:#fdfde8" />
  <path
   class="fil2"
   d="m 950,1054 c -2,-14 -12,-4 -9,-29 2,-13 12,-15 14,-23 3,-9 0,-6 -1,-14 -2,-9 0,-8 0,-16 1,-14 -6,-12 -12,-25 -12,-26 32,-58 20,-83 -4,-8 -17,-13 -25,-9 -12,7 -5,20 -11,28 -8,12 -14,-5 -21,18 -7,23 -16,58 -34,77 l -29,47 c -2,12 1,23 -2,36 -11,6 -33,3 -47,7 -3,3 -16,21 -18,25 2,2 13,13 15,15 44,3 27,-10 43,-13 9,-2 10,4 23,5 9,1 17,-1 28,0 17,1 32,-3 36,-21 8,-31 11,-14 30,-25 z"
   id="path82"
   inkscape:connector-curvature="0"
   style="fill:#fdfde8" />
  <path
   class="fil2"
   d="m 926,1073 c -11,37 -31,29 -63,30 -15,1 -11,0 -22,-3 -9,-2 -14,-2 -17,7 -4,13 3,12 6,18 2,5 1,13 2,21 18,11 20,1 34,7 1,10 -6,2 -3,18 1,2 5,17 5,19 62,12 48,25 60,39 12,-8 17,-9 29,-19 32,-26 23,-22 24,-40 0,-14 4,-9 5,-17 2,-7 -4,-9 1,-19 1,-3 6,-7 9,-11 -4,-13 -7,-10 -16,-15 -36,-19 -25,-31 -54,-35 z"
   id="path84"
   inkscape:connector-curvature="0"
   style="fill:#fdfde8" />
  <path
   class="fil2"
   d="m 745,1212 c 0,14 7,10 13,18 9,11 -1,10 -4,18 -5,13 6,8 5,22 0,8 -7,15 -8,21 15,11 27,9 63,36 7,-8 10,-12 18,-19 0,-17 -10,-9 5,-31 10,-14 7,-15 26,-18 24,-3 58,1 69,-21 -8,-17 -3,6 -11,-12 -2,-3 -3,-10 -6,-15 -8,-10 -2,0 -27,-13 -15,-7 -22,2 -25,-14 -3,-16 -8,-16 -25,-13 -4,11 -1,16 -13,25 -20,0 -18,-7 -36,6 l -10,-6 c -7,4 -2,1 -7,10 -13,-2 -17,-2 -27,6 z"
   id="path86"
   inkscape:connector-curvature="0"
   style="fill:#fdfde8" />
  <path
   class="fil4"
   d="m 1626,720 c 0,14 -40,55 -53,29 -17,-36 32,-44 53,-29 z m -36,-17 c -12,2 -18,0 -27,12 -7,11 -8,36 2,45 0,0 11,8 11,8 33,13 65,-39 64,-46 0,-22 -35,-22 -50,-19 z"
   id="path88"
   inkscape:connector-curvature="0"
   style="fill:#060606" />
  <path
   class="fil2"
   d="m 1626,720 c -21,-15 -70,-7 -53,29 13,26 53,-15 53,-29 z"
   id="path90"
   inkscape:connector-curvature="0"
   style="fill:#fdfde8" />
  <path
   class="fil1"
   d="m 1215,1545 c 4,-9 4,-27 -1,-36 -6,-10 -21,-9 -28,-2 -17,17 0,54 29,38 z"
   id="path92"
   inkscape:connector-curvature="0"
   style="fill:#e0e0e0" />
  <path
   class="fil5 str0"
   d="m 673,841 c 0,-4 32,-3 36,-9 3,-3 14,2 17,-19 1,-9 7,-26 17,-30 19,-7 26,-19 38,-25 7,-3 18,-6 27,-2 19,11 20,0 23,-1 9,-3 15,-14 17,-24 0,0 1,-2 1,-3 l -1,1"
   id="path94"
   inkscape:connector-curvature="0"
   style="fill:none;stroke:#181818;stroke-width:2.99844003" />
 </g>
</svg>