<?xml version="1.0" encoding="UTF-8" standalone="no"?>
<!-- Generator: Adobe Illustrator 12.0.0, SVG Export Plug-In . SVG Version: 6.00 Build 51448)  -->
<svg
   xmlns:dc="http://purl.org/dc/elements/1.1/"
   xmlns:cc="http://web.resource.org/cc/"
   xmlns:rdf="http://www.w3.org/1999/02/22-rdf-syntax-ns#"
   xmlns:svg="http://www.w3.org/2000/svg"
   xmlns="http://www.w3.org/2000/svg"
   xmlns:sodipodi="http://sodipodi.sourceforge.net/DTD/sodipodi-0.dtd"
   xmlns:inkscape="http://www.inkscape.org/namespaces/inkscape"
   version="1.0"
   id="Layer_1"
   width="233.97388"
   height="507.15344"
   viewBox="0 0 229.731 501.263"
   overflow="visible"
   enable-background="new 0 0 229.731 501.263"
   xml:space="preserve"
   sodipodi:version="0.32"
   inkscape:version="0.44"
   sodipodi:docname="Map_Portugal2.svg"
   sodipodi:docbase="G:\Ben\Wiki"><metadata
   id="metadata3449"><rdf:RDF><cc:Work
       rdf:about=""><dc:format>image/svg+xml</dc:format><dc:type
         rdf:resource="http://purl.org/dc/dcmitype/StillImage" /></cc:Work></rdf:RDF></metadata><defs
   id="defs3447">
	
	

		
		
		
		
		
	
		
		
		
			
		
			
		
			
		
			
		
		
		
		
		
		
			
		
			
		
		
		
		
		
		
		
			
		
			
		
		
		
		
	</defs><sodipodi:namedview
   inkscape:window-height="749"
   inkscape:window-width="1024"
   inkscape:pageshadow="2"
   inkscape:pageopacity="0.0"
   guidetolerance="10.0"
   gridtolerance="10.0"
   objecttolerance="10.0"
   borderopacity="1.0"
   bordercolor="#666666"
   pagecolor="#ffffff"
   id="base"
   width="234px"
   height="508px"
   inkscape:zoom="0.77802471"
   inkscape:cx="198.85504"
   inkscape:cy="268.34461"
   inkscape:window-x="-4"
   inkscape:window-y="-4"
   inkscape:current-layer="Layer_1" />
<g
   id="g8492"
   style="fill:#bebebe;fill-opacity:1"
   transform="translate(-0.361933,0.185998)"><rect
     transform="matrix(0.841264,-0.540624,0.540624,0.841264,0,0)"
     y="456.95959"
     x="-115.57212"
     height="5.6760664"
     width="4.7211642"
     id="rect8358"
     style="fill:#bebebe;fill-opacity:1;fill-rule:nonzero;stroke:none;stroke-width:100;stroke-linecap:butt;stroke-linejoin:round;stroke-miterlimit:4;stroke-dasharray:none;stroke-opacity:1" /><rect
     y="452.92941"
     x="56.27813"
     height="5.6760678"
     width="4.7211657"
     id="rect8356"
     style="fill:#bebebe;fill-opacity:1;fill-rule:nonzero;stroke:none;stroke-width:100;stroke-linecap:butt;stroke-linejoin:round;stroke-miterlimit:4;stroke-dasharray:none;stroke-opacity:1" /><rect
     y="440.46027"
     x="59.816673"
     height="29.266354"
     width="93.016235"
     id="rect8354"
     style="fill:#bebebe;fill-opacity:1;fill-rule:nonzero;stroke:none;stroke-width:100;stroke-linecap:butt;stroke-linejoin:round;stroke-miterlimit:4;stroke-dasharray:none;stroke-opacity:1" /><rect
     transform="matrix(0.81379,0.581159,-0.762644,0.646819,0,0)"
     y="252.73193"
     x="310.91321"
     height="17.614004"
     width="21.185427"
     id="rect8352"
     style="fill:#bebebe;fill-opacity:1;fill-rule:nonzero;stroke:none;stroke-width:100;stroke-linecap:butt;stroke-linejoin:round;stroke-miterlimit:4;stroke-dasharray:none;stroke-opacity:1" /><rect
     y="234.21378"
     x="31.171322"
     height="21.178255"
     width="12.472263"
     id="rect8350"
     style="fill:#bebebe;fill-opacity:1;fill-rule:nonzero;stroke:none;stroke-width:100;stroke-linecap:butt;stroke-linejoin:round;stroke-miterlimit:4;stroke-dasharray:none;stroke-opacity:1" /><rect
     y="226.12567"
     x="42.629459"
     height="129.01956"
     width="100.43032"
     id="rect8346"
     style="fill:#bebebe;fill-opacity:1;fill-rule:nonzero;stroke:none;stroke-width:100;stroke-linecap:butt;stroke-linejoin:round;stroke-miterlimit:4;stroke-dasharray:none;stroke-opacity:1" /><rect
     inkscape:transform-center-y="-3.4001731"
     inkscape:transform-center-x="10.950495"
     transform="matrix(0.908869,-0.417082,0.410904,0.911679,0,0)"
     y="126.54744"
     x="2.6730514"
     height="36.93185"
     width="7.3999891"
     id="rect8344"
     style="fill:#bebebe;fill-opacity:1;fill-rule:nonzero;stroke:none;stroke-width:100;stroke-linecap:butt;stroke-linejoin:round;stroke-miterlimit:4;stroke-dasharray:none;stroke-opacity:1" /><rect
     y="61.906067"
     x="64.655472"
     height="95.319153"
     width="115.59551"
     id="rect6559"
     style="fill:#bebebe;fill-opacity:1;fill-rule:nonzero;stroke:none;stroke-width:100;stroke-linecap:butt;stroke-linejoin:round;stroke-miterlimit:4;stroke-dasharray:none;stroke-opacity:1" /></g><g
   id="g8466"
   transform="translate(-0.361933,0.185998)"><path
     style="fill:#e9e9e9"
     id="path3384"
     d="M 44.906,498.174 C 47.066,493.903 47.231,487.648 50.781,484.768 C 50.881,483.27 49.747,483.004 49.945,481.415 C 52.08,480.488 53.528,478.858 54.125,476.392 C 54.05,472.611 52.834,471.071 53.281,468.009 C 53.811,464.458 59.323,461.289 56.641,457.962 C 60.887,455.314 61.391,460.925 65.024,462.15 C 68.815,463.432 72.771,462.315 77.579,462.15 C 78.415,462.117 80.79,463.184 81.775,462.986 C 86.153,462.092 89.356,459.477 91.822,456.282 C 95.571,456.779 96.167,461.29 98.526,462.986 C 99.503,463.689 100.769,463.251 101.878,463.822 C 102.731,464.26 106.604,467.066 108.589,467.174 C 113.513,467.439 118.032,463.963 121.152,461.306 C 122.095,460.512 123.312,458.7 124.504,457.963 C 125.116,457.582 127.517,457.615 128.692,457.118 C 130.678,456.291 131.274,454.528 132.888,453.766 C 133.541,453.452 134.758,454.13 135.404,453.766 C 136.869,452.93 138.143,451.036 140.427,450.414 C 145.989,448.908 150.019,451.242 155.497,447.906 C 156.44,450.216 160.106,450.704 160.537,453.765 C 160.694,454.908 159.403,456.116 159.701,457.117 C 160.347,459.31 161.969,459.956 162.209,461.305 C 162.49,462.845 162.06,464.582 162.209,466.337 C 162.647,471.559 164.484,476.624 164.725,481.415 C 163.608,482.483 162.929,481.143 161.373,481.415 C 160.206,481.622 159.022,483.046 158.013,483.096 C 156.408,483.17 155.621,481.698 153.825,482.251 C 152.567,482.648 151.905,483.749 150.473,484.768 C 149.356,485.571 147.874,485.869 147.121,486.448 C 144.39,488.533 142.726,491.355 140.426,493.143 C 139.714,493.689 139.325,493.424 138.754,493.987 C 137.637,495.047 134.981,494.847 132.051,495.659 C 131.356,495.849 130.644,497.281 130.363,497.339 C 128.675,497.662 125.952,494.485 123.668,499.011 C 122.27,497.083 119.514,498.291 117.801,497.339 C 116.998,496.884 115.856,494.062 114.457,493.144 C 113,492.201 110.137,492.217 108.589,491.472 C 108.002,491.191 107.687,490.694 106.909,490.636 C 105.146,490.503 105.369,491.977 103.565,492.308 C 101.521,492.689 98.889,490.454 96.854,492.308 C 96.738,489.635 93.113,490.462 91.822,488.956 C 91.656,491.587 86.947,489.659 85.971,491.472 C 81.75,487.682 76.719,489.776 73.392,485.604 C 70.818,485.447 71.836,488.592 70.884,489.792 C 70.247,490.611 66.324,489.626 68.368,492.308 C 62.79,489.874 59.695,495.461 53.281,494.824 C 51.328,495.262 52.784,496.769 51.617,498.176 C 51.12,498.764 47.247,497.713 49.093,500.692 C 46.238,501.318 48.042,497.28 44.906,498.174 z " /><path
     id="path3386"
     d="M 35.695,39.883 C 36.126,33.337 37.483,27.701 42.399,25.64 C 42.25,22.148 44.973,21.511 44.907,18.101 C 49.036,16.917 52.198,14.782 52.454,9.726 C 56.352,7.724 59.629,10.239 60.837,5.53 C 64.081,4.603 66.713,6.548 69.204,6.374 C 74.5,5.985 77.902,2.021 82.611,0.506 C 83.174,0.506 83.728,0.506 84.291,0.506 C 85.855,1.723 84.382,5.993 85.971,7.21 C 86.732,9.237 88.437,5.307 90.994,6.374 C 90.977,8.344 92.442,8.84 91.822,11.397 C 89.207,11.844 88.586,14.302 85.971,14.749 C 85.193,17.613 83.894,19.938 83.447,23.124 C 84.39,24.696 84.448,27.163 87.635,26.476 C 87.262,30.49 88.553,32.832 90.995,34.015 C 94.951,32.956 98.799,31.772 99.378,27.312 C 102.49,25.003 105.047,30.275 106.073,26.476 L 106.909,26.898 L 107.745,26.476 C 108.556,26.501 108.391,27.502 108.589,28.156 C 111.436,28.777 109.963,25.069 111.933,24.804 C 113.538,22.934 119.53,27.245 120.316,23.124 C 123.386,23.405 123.701,26.442 127.864,25.64 C 125.737,33.618 136.098,29.455 134.551,27.312 C 134.146,25.814 137.249,26.658 137.903,27.312 C 138.176,27.577 137.622,28.76 137.903,28.992 C 139.053,29.928 141.652,30.573 141.263,32.344 C 142.976,32.112 142.926,30.101 143.779,28.992 C 149.274,31.74 153.073,26.187 157.186,24.804 C 158.518,20.956 157.244,19.11 157.186,14.749 C 161.374,12.3 165.892,15.833 168.077,18.101 C 171.197,18.986 169.401,14.956 172.265,15.585 C 174.475,15.329 174.425,17.339 174.773,18.937 C 177.148,18.233 179.954,17.969 182.312,17.265 C 184.96,17.108 183.388,12.746 186.508,13.069 C 187.451,17.588 190.853,19.64 195.719,18.101 C 198.028,17.364 200.031,15.213 202.422,15.585 C 202.488,18.44 202.679,21.436 200.742,22.289 C 201.305,23.414 202.538,23.853 204.094,23.961 C 203.399,26.038 204.061,28.554 203.258,31.508 C 202.894,32.857 201.371,34.156 201.586,35.696 C 201.81,37.417 202.612,37.02 203.258,38.212 C 204.392,40.248 205.071,43.823 208.281,44.071 C 210.515,44.303 212.08,40.521 215.829,42.4 C 217.12,43.037 216.863,43.873 218.345,44.071 C 220.282,44.328 220.389,44.353 222.533,44.907 C 223.824,47.812 225.546,50.278 229.228,50.775 C 229.228,51.338 229.228,51.892 229.228,52.455 C 225.462,56.228 222.375,60.681 221.697,67.534 C 219.322,67.385 219.744,70.679 217.509,68.369 C 215.796,72.135 215.994,77.274 209.97,78.424 C 208.489,80.576 206.328,82.041 204.93,84.292 C 202.563,83.415 201.446,83.415 199.071,84.292 C 198.161,84.499 198.5,85.956 197.399,85.964 C 196.489,86.659 197.068,88.016 196.563,89.316 C 196.315,89.928 195.305,92.155 194.883,92.668 C 194.61,93.007 192.491,93.264 192.375,93.504 C 190.679,96.889 190.695,100.688 189.859,105.239 C 185.026,108.773 175.335,103.377 174.772,111.934 C 169.177,111.983 167.795,112.033 164.725,115.286 C 162.002,112.786 166.264,110.188 167.241,108.582 C 166.976,106.927 157.344,105.139 157.186,108.582 C 155.216,108.317 154.033,107.266 151.31,107.746 C 148.488,109.219 150.11,113.266 150.474,116.13 C 148.959,117.686 146.253,118.042 143.779,118.637 C 144.665,123.056 146.477,126.035 141.263,127.02 C 141.263,125.903 141.263,124.786 141.263,123.668 C 138.408,123.61 135.42,123.403 134.551,125.34 C 132.557,122.758 130.62,124.471 127.012,124.504 C 125.497,121.004 123.975,117.494 121.989,114.449 C 116.254,114.606 113.87,111.395 110.27,109.426 C 107.307,109.815 105.677,111.536 103.566,112.778 C 98.865,111.934 95.795,110.411 92.667,113.614 C 92.021,118.166 93.709,120.4 93.503,124.505 C 91.351,124.422 92.303,121.236 90.159,121.153 C 87.147,120.656 86.104,122.13 84.291,122.833 C 83.166,126.689 85.441,129.942 83.447,133.724 C 80.641,134.129 79.847,132.003 77.579,132.044 C 75.27,132.086 71.728,135.735 70.048,132.044 C 67.334,131.556 66.15,132.615 64.181,132.88 C 62.186,128.353 65.563,127.931 65.861,123.669 C 65.737,121.832 63.751,121.865 61.673,121.989 C 60.879,117.727 58.569,112.505 54.126,114.45 C 54.051,112.497 57.271,109.154 55.806,106.075 C 55.674,105.785 54.192,105.438 54.126,105.239 C 53.729,103.915 55.103,103.758 54.97,102.723 C 54.904,102.309 53.365,101.308 53.282,101.043 C 52.496,97.973 52.702,95.49 51.618,92.668 C 50.658,90.177 50.608,89.168 49.946,85.129 C 49.748,84.004 48.357,82.629 48.258,81.777 C 48.183,81.007 49.061,79.956 49.094,80.097 C 48.241,76.662 46.263,74.37 45.75,71.722 C 45.444,70.108 45.999,68.321 45.75,66.699 C 45.527,65.292 44.277,64.589 44.07,63.347 C 43.846,61.89 44.997,61.552 44.906,59.995 C 44.616,55.104 41,50.461 41.562,47.424 C 41.736,46.464 43.308,44.966 43.234,44.072 C 40.801,42.597 37.044,42.448 35.695,39.883 z "
     style="fill:#e9e9e9" /><path
     style="fill:#e9e9e9"
     id="path3388"
     d="M 155.496,447.063 C 149.463,448.759 143.686,447.377 138.754,448.743 C 135.808,449.555 133.052,452.327 130.362,453.766 C 127.134,455.504 124.271,456.588 121.151,457.962 C 119.148,460.999 116.459,461.926 113.62,464.657 C 111.634,466.552 106.098,463.564 103.565,462.149 C 102.25,461.42 100.081,461.13 99.377,460.469 C 98.748,459.889 98.549,457.762 97.689,457.116 C 96.96,456.562 96.621,456.851 96.025,456.28 C 96.033,456.297 95.098,455.436 95.164,455.436 C 90.132,452.97 88.022,458.035 83.446,461.303 C 72.968,461.982 66.522,460.426 60.836,457.115 C 59.52,456.354 59.322,454.326 56.64,455.444 C 56.872,452.605 57.964,450.627 57.476,447.06 C 57.849,444.826 55.432,444.635 54.968,442.872 C 54.43,440.877 55.589,435.523 56.64,432.816 C 57.31,431.07 58.146,429.854 59.148,428.628 C 58.312,427.238 55.275,428.032 54.968,426.112 C 53.586,423.315 56.235,421.122 55.804,417.737 C 55.697,416.975 54.389,411.72 53.28,410.198 C 52.113,408.567 49.904,407.773 48.257,406.846 C 48.414,404.487 50.988,404.553 51.617,402.658 C 50.442,397.643 53.736,393.116 54.125,390.924 C 54.522,388.738 55.532,385.718 55.805,382.549 C 56.426,375.233 54.936,369.208 54.125,363.282 C 51.898,360.203 47.157,359.633 46.594,354.898 C 49.598,356.189 52.329,358.647 56.641,359.93 C 58.578,360.501 59.869,360.89 61.673,361.602 C 63.841,362.462 67.003,363.149 70.048,362.438 C 66.854,360.045 59.902,361.419 59.149,356.579 C 58.636,354.841 60.076,355.403 60.837,354.898 C 62.658,353.682 63.899,352.234 66.696,352.391 C 66.696,350.156 66.696,347.921 66.696,345.687 C 71.165,343.726 73.159,339.298 76.751,336.468 C 78.307,333.563 76.354,332.007 75.915,328.929 C 79.788,329.144 80.475,324.409 83.446,323.061 C 84.298,322.68 85.871,323.185 86.798,323.061 C 88.867,322.796 89.868,321.522 91.821,321.389 C 93.716,325.643 98.301,327.199 101.876,329.764 C 103.092,329.301 103.928,328.456 104.4,327.248 C 104.425,325.825 104.259,324.608 103.564,323.896 C 103.25,323.582 101.222,323.358 101.048,323.06 C 100.576,322.315 101.594,320.371 101.048,319.708 C 98.904,317.167 97.448,316.381 94.344,316.356 C 93.624,310.604 100.915,308.436 100.212,305.464 C 101.478,304.223 103.886,304.115 106.071,303.793 C 107.271,299.688 107.776,294.88 113.618,295.409 C 116.085,294.532 116.514,291.619 117.798,289.55 C 120.397,288.242 123.136,287.059 125.337,285.362 C 125.511,282.954 125.13,281.1 123.665,280.33 C 124.41,278.85 125.685,277.89 126.173,276.142 C 127.067,273.014 123.036,274.818 123.665,271.954 C 127.199,272.699 128.391,271.101 129.524,269.438 C 128.754,264.348 124.029,263.214 121.985,259.383 C 124.079,253.093 130.625,251.264 132.884,245.14 C 135.797,246.133 140.597,244.685 142.939,242.624 C 144.868,243.923 145.099,246.265 147.119,248.491 C 147.748,249.186 148.22,249.302 148.799,250.171 C 148.882,250.295 149.461,251.661 149.635,251.842 C 150.347,252.579 152.167,252.025 152.987,252.678 C 153.161,252.827 153.633,254.152 153.823,254.359 C 154.378,254.929 155.462,256.345 156.347,257.711 C 158.896,257.099 158.805,259.15 161.37,258.547 C 162.926,262.809 160.782,263.785 159.698,268.602 C 160.749,271.449 163.654,272.467 166.393,273.625 C 166.103,275.305 166.567,276.249 168.073,276.141 C 167.568,278.144 166.865,279.965 167.237,282.845 C 169.588,286.238 171.259,287.049 176.44,286.197 C 173.179,287.976 171.615,291.667 175.604,293.736 C 178.575,294.183 179.287,292.379 180.644,291.22 C 184.906,292.535 186.528,296.491 189.019,299.603 C 187.554,304.28 185.725,308.608 183.143,312.166 C 182.059,314.251 185.601,315.642 183.143,316.354 C 182.564,319.036 179.37,319.639 177.284,321.385 C 176.771,321.807 175.621,323.066 174.768,323.893 C 174.578,324.091 174.122,325.482 173.932,325.573 C 172.434,326.252 171.822,325.697 172.26,328.926 C 170.58,329.77 169.322,331.02 168.072,332.278 C 167.369,336.044 169.206,338.691 168.908,341.489 C 168.61,344.253 165.399,348.233 164.72,352.388 C 164.77,352.09 166.028,352.843 165.556,353.224 C 164.613,353.977 164.563,355.557 164.72,358.247 C 165.821,359.935 167.459,361.085 169.743,361.599 C 170.596,365.82 174.154,368.666 176.438,371.654 C 178.813,374.75 180.923,378.432 183.994,380.874 C 187.917,381.097 189.928,378.275 194.877,377.522 C 194.894,380.335 193.727,381.949 192.369,383.38 C 194.215,388.984 190.673,391.234 191.533,397.623 C 188.479,399.328 186.526,397.772 183.994,396.787 C 182.81,403.54 176.562,400.04 171.415,402.654 C 171.506,404.798 171.887,406.643 173.095,407.677 C 171.746,412.321 170.546,415.904 167.236,418.569 C 166.814,418.908 166.74,420.008 166.392,420.249 C 166.028,420.506 165.051,419.968 164.72,420.249 C 164.282,420.613 164.406,421.499 163.884,421.921 C 163.015,422.608 162.7,423.402 160.532,423.601 C 160.83,427.185 159.365,435.692 156.344,438.68 C 156.928,442.345 154.925,443.404 155.496,447.063 z " /><path
     style="fill:#e9e9e9"
     id="path3390"
     d="M 31.507,235.938 C 33.112,234.754 30.92,234.242 31.507,232.586 C 31.83,231.684 33.667,231.204 34.015,230.07 C 34.76,227.67 34.189,225.063 34.851,222.531 C 35.505,220.023 38.194,216.093 39.039,212.476 C 39.701,209.687 39.18,206.526 39.883,204.101 C 40.884,200.658 43.971,198.374 43.235,194.881 C 44.46,194.426 47.571,195.858 47.431,194.046 C 47.356,190.76 42.888,191.878 40.727,190.694 C 40.852,189.717 40.545,189.205 39.883,189.014 C 40.785,187.847 39.883,186.498 39.883,186.506 C 40.586,183.668 42.597,182.889 43.235,180.638 C 43.856,178.453 43.608,175.747 44.071,173.099 C 45.089,167.281 46.57,161.082 47.431,156.34 L 47.431,157.176 L 48.259,157.176 C 48.259,157.457 48.259,157.739 48.259,158.012 C 50.742,155.753 50.137,150.39 51.619,147.121 C 54.127,146.277 53.1,148.992 53.283,150.473 C 55.981,149.537 54.855,144.779 56.643,142.933 C 59.25,141.832 59.035,143.165 62.502,142.933 C 63.305,139.689 59.241,139.482 61.674,137.074 C 60.97,134.699 56.518,136.073 54.97,134.558 C 57.238,133.192 56.7,129.038 59.15,127.854 C 58.397,126.1 56.675,125.297 54.127,125.338 L 54.127,124.502 L 53.283,124.502 C 54.607,122.002 56.121,118.767 54.971,116.127 C 61.352,115.324 56.991,125.28 64.182,123.666 C 61.707,127.274 61.119,130.08 63.338,134.557 C 67.6,133.787 69.47,133.572 71.73,136.229 C 74.088,135.807 75.289,134.201 77.581,133.721 C 80.039,133.497 80.155,135.616 82.613,135.393 C 87.794,133.763 84.971,128.45 85.973,123.666 C 86.941,123.798 87.454,123.476 87.637,122.83 C 92.197,121.895 90.326,127.415 94.348,127.018 C 97.418,123.062 91.799,115.573 96.028,112.775 C 98.386,113.197 99.587,114.803 101.879,115.283 C 104.9,114.389 107.374,112.957 109.426,111.095 C 113.523,112.03 114.127,116.449 120.317,115.283 C 121.467,119.719 123.826,122.947 126.176,126.174 C 128.899,126.662 130.082,125.611 132.052,125.338 C 131.688,127.092 132.615,127.556 132.888,128.69 C 136.19,128.922 135.453,125.107 138.755,125.338 C 138.614,127.44 140.029,127.962 141.263,128.69 C 144.3,128.103 145.815,125.992 147.966,124.502 C 148.19,122.052 146.063,121.928 146.286,119.479 C 152.319,120.232 152.865,114.77 151.309,110.26 C 152.583,109.225 153.998,110.409 155.497,110.26 C 158.079,110.003 160.123,108.125 163.053,108.58 C 159.718,111.137 162.283,116.152 163.889,118.635 C 166.744,118.701 167.009,116.177 168.077,114.447 C 170.957,114.811 172.769,114.116 174.772,113.611 C 177.089,113.081 179.043,107.876 180.648,109.423 C 182.311,108.413 182.237,110.863 183.147,111.931 C 183.23,112.022 183.933,113.569 184,113.611 C 184.869,114.223 186.11,114.323 186.508,115.283 C 186.897,116.243 186.201,117.641 186.508,118.635 C 186.723,120.381 190.191,118.867 190.696,120.315 C 183.984,131.446 194.759,139.308 188.188,151.316 C 189.024,152.707 192.061,151.904 192.376,153.824 C 193.088,156.522 190.349,157.3 189.86,158.856 C 189.074,161.363 190.034,163.251 189.86,167.231 C 189.934,169.383 193.121,168.431 193.212,170.583 C 193.436,174.166 190.771,174.854 189.024,176.451 C 189.736,179.124 187.7,179.041 187.336,180.639 C 184.837,181.839 184.489,179.952 182.313,181.475 C 181.279,181.55 181.196,182.6 180.65,183.155 C 179.557,184.206 177.53,186.316 177.29,189.014 C 177.183,190.205 178.109,190.297 178.126,190.694 C 178.159,191.323 177.059,191.58 177.29,192.366 C 177.638,193.541 180.179,193.847 178.962,195.718 C 181.42,194.965 181.544,194.965 184.002,195.718 C 183.985,197.911 185.028,198.623 186.51,199.906 C 187.47,200.75 187.47,203.018 189.862,203.258 C 188.19,205.203 189.216,207.404 189.026,208.29 C 188.364,211.335 186.601,212.726 187.338,220.017 C 185.244,220.985 184.541,223.352 181.487,223.369 C 181.842,224.983 182.099,229.617 181.487,233.424 C 181.47,233.44 180.916,236.105 180.651,236.776 C 180.518,237.057 177.779,237.455 178.963,239.292 C 177.2,240.956 175.073,237.612 174.775,237.612 C 172.979,237.629 172.193,239.913 170.587,240.128 C 169.089,240.327 167.26,238.994 165.564,239.292 C 163.139,239.714 161.343,241.411 158.852,241.8 C 156.163,242.222 148.383,240.575 143.782,239.292 C 141.581,243.554 135.514,242.247 132.055,244.315 C 128.323,246.542 128.306,250.183 124.507,251.854 C 124.019,245.077 120.874,240.972 115.296,239.291 C 115.536,231.603 107.608,233.655 103.569,235.095 C 106.135,239.183 103.975,244.563 101.053,247.666 C 100.126,247.095 98.504,247.533 97.693,246.83 C 97.031,246.25 97.461,244.927 96.857,244.314 C 96.029,243.462 94.399,242.866 93.505,240.962 C 92.992,239.878 93.745,237.966 93.505,236.774 C 93.215,235.251 91.179,231.064 90.997,230.906 C 89.681,229.789 86.851,231.394 85.974,229.234 C 83.251,231.551 79.718,233.041 75.919,234.257 C 74.81,231.857 76.043,227.62 72.559,225.882 C 68.976,226.196 67.908,229.052 65.864,230.905 C 63.779,227.992 59.574,229.995 57.481,231.741 C 56.926,236.21 58.127,238.916 59.997,240.96 C 59.203,243.791 57.142,245.363 55.809,247.664 C 55.329,250.163 58.962,252.794 57.481,253.532 C 56.356,256.312 53.6,257.471 53.285,261.071 C 50.67,262.196 45.588,262.536 44.074,260.227 C 44.521,257.884 45.307,255.873 45.754,253.532 C 45.879,251.165 43.379,251.429 42.402,250.18 C 43.155,244.404 41.053,241.474 39.886,237.609 C 36.895,237.253 35.414,235.375 31.507,235.938 z " /><path
     style="fill:#e9e9e9"
     id="path3392"
     d="M 3.022,328.934 C 1.59,328.404 1.64,326.401 0.506,325.581 C 0.506,325.3 0.506,325.027 0.506,324.745 C 0.597,324.663 1.3,324.837 1.35,324.745 C 2.948,320.781 5.993,316.403 6.373,311.339 C 6.473,309.891 4.983,308.947 4.693,307.151 C 4.403,305.305 5.396,305.024 5.529,303.799 C 5.661,302.665 4.701,301.249 4.693,300.446 C 4.668,298.8 6.927,296.068 8.053,293.743 C 8.599,292.576 8.277,291.575 8.881,290.391 C 9.063,290.036 10.495,288.959 10.553,288.719 C 11.695,284.35 11.637,276.562 9.717,273.632 C 9.105,272.705 5.654,272.614 7.209,270.28 C 9.742,271.438 10.197,269.883 13.904,270.28 C 15.112,268.682 15.857,266.647 16.428,264.421 C 17.909,265.166 17.488,267.822 20.608,266.929 C 22.685,266.126 19.458,263.718 20.608,261.07 C 23.182,256.94 26.873,253.927 29.827,250.179 C 28.411,247.291 29.554,239.876 30.671,237.608 C 34.925,237.269 36.505,239.594 39.038,240.96 C 40.172,246.29 38.533,250.825 43.234,253.531 C 43.689,256.766 41.744,257.619 42.398,261.07 C 44.616,265.787 59.885,264.314 55.805,257.718 C 58.263,257.659 58.917,255.798 59.993,254.366 C 60.639,251.204 58.967,250.36 59.149,247.662 C 59.612,245.047 61.69,244.054 62.501,241.794 C 60.945,239.65 58.479,235.132 60.837,231.739 C 65.356,233.295 69.229,231.152 71.728,228.387 C 74.12,228.511 73.251,231.887 73.392,234.254 C 76.098,237.374 84.233,234.8 85.127,230.902 C 86.079,232.168 88.14,231.448 89.323,232.582 C 91.955,235.123 90.606,239.029 91.823,241.793 C 93.039,244.524 95.572,248.231 98.527,249.332 C 98.949,249.489 99.569,248.463 100.215,248.496 C 100.877,248.538 101.755,249.795 103.567,248.496 C 106.364,246.485 107.291,240.717 106.075,235.933 C 108.309,235.933 110.544,235.933 112.77,235.933 C 113.722,238.557 112.538,238.142 113.622,240.121 C 114.723,241.793 117.338,241.983 119.481,242.629 C 120.3,246.287 122.377,248.662 123.669,251.848 C 122.237,254.604 120.268,256.83 118.646,259.388 C 119.217,261.945 121.187,262.93 122.826,264.419 C 124.175,265.644 126.599,266.587 127.014,268.607 C 126.385,271.47 122.148,271.015 121.155,271.123 C 120.054,271.239 118.921,271.032 117.803,271.123 C 118.854,273.143 121.245,273.83 123.67,274.476 C 124.506,277.811 121.171,276.992 121.99,280.334 C 120.773,283.504 124.291,281.94 123.67,284.522 C 119.425,286.152 115.485,288.081 114.459,292.905 C 108.616,292.922 105.273,295.454 105.24,301.28 C 103.668,301.951 102.17,302.679 100.217,302.961 C 98.305,307.885 90.203,310.657 93.506,318.039 L 92.529,318.18 L 91.825,318.875 C 88.631,319.868 86.678,322.103 81.778,321.391 C 78.807,323.998 76.705,327.482 72.559,328.931 C 74.239,328.839 73.767,331.752 73.436,331.496 C 74.297,332.852 76.242,332.273 75.919,334.798 C 75.737,336.064 74.165,335.766 73.395,336.47 C 73.122,336.735 73.676,337.868 73.395,338.15 C 73.122,338.431 72.021,337.869 71.731,338.15 C 70.763,339.06 70.796,340.674 70.051,341.494 C 69.364,342.238 67.544,341.733 66.699,342.338 C 66.227,342.669 66.641,344.755 65.027,344.01 C 64.895,347.825 64.324,347.295 65.027,350.713 C 61.907,350.391 62.826,354.107 59.152,353.23 C 57.993,351.873 58.448,348.91 56.644,348.198 C 55.56,350.995 57.373,353.262 54.128,355.746 C 50.346,355.622 50.031,352.014 45.753,352.394 C 43.196,351.549 44.288,355.075 42.401,355.746 C 41.913,355.92 37.369,353.917 38.205,359.098 C 34.655,359.296 33.959,360 31.51,359.098 C 30.368,360.737 26.462,359.627 26.487,362.442 C 24.89,362.086 24.965,360.049 22.299,360.77 C 26.338,352.867 22.158,343.035 18.939,337.308 C 22.34,339.095 24.31,337.101 28.15,338.152 C 27.653,341.727 31.204,341.247 33.182,342.34 C 34.846,340.751 34.614,339.402 34.018,337.309 C 37.61,336.655 37.436,337.433 40.729,336.473 C 40.158,332.741 38.569,334.892 34.854,333.956 C 37.055,331.962 38.354,329.082 42.401,328.934 C 41.358,324.414 42.98,321.841 39.041,319.714 C 37.767,318.399 40.241,315.046 37.377,313.855 C 32.519,315.419 33.504,322.834 29.83,325.582 C 30.558,330.49 28.812,332.948 26.486,334.802 C 17.78,333.031 15.074,336.184 8.056,333.122 C 5.598,332.906 5.474,335.017 3.024,334.802 C 2.559,331.457 2.559,332.276 3.022,328.934 z " /></g><g
   id="g8473"
   transform="translate(-0.361933,0.185998)"
   style="fill:none;fill-opacity:1;stroke:#979797;stroke-width:1.97736883;stroke-miterlimit:4;stroke-dasharray:none;stroke-opacity:1"><g
     transform="translate(-215.0038,-15.60361)"
     id="g4552"
     style="fill:none;fill-opacity:1;stroke:#979797;stroke-width:1.97736883;stroke-miterlimit:4;stroke-dasharray:none;stroke-opacity:1"><path
       sodipodi:nodetypes="ccccccccccscccsscsccccccccccccscccsccsccssccsssscccccsccccsssccccccsccccssscccccccccccccssccscccccccccssc"
       id="path3396"
       transform="translate(214.827,15.25006)"
       d="M 197.375,89.46875 C 197.60278,88.33911 197.27325,87.227776 198.0625,86.625 C 199.1635,86.617 198.80876,85.175752 199.71875,84.96875 C 200.62874,84.761748 200.84157,84.488069 201.96875,84.34375 C 203.09593,84.199431 204.10136,84.415803 205.59375,84.96875 C 206.99175,82.71775 209.144,81.245748 210.625,79.09375 C 216.649,77.94375 216.44325,72.797248 218.15625,69.03125 C 220.39125,71.34125 219.96875,68.038498 222.34375,68.1875 C 222.85225,63.04775 224.72997,59.259125 227.21875,56.09375 M 41.875,183.6875 C 41.123367,184.61745 40.274069,185.54521 39.875,187.15625 C 39.875,187.14825 40.776999,188.5205 39.875,189.6875 C 40.155077,189.76831 40.852935,191.29365 41.000095,191.50028 M 31.5,233.25 C 31.823001,232.348 33.68325,231.85275 34.03125,230.71875 C 34.776249,228.31875 34.18175,225.7195 34.84375,223.1875 C 35.497751,220.6795 38.18625,216.742 39.03125,213.125 C 39.693251,210.336 39.172,207.175 39.875,204.75 C 40.875999,201.307 43.986,199.02425 43.25,195.53125 C 44.475002,195.07625 47.5775,196.53075 47.4375,194.71875 C 47.362499,191.43275 42.87975,192.52775 40.71875,191.34375 M 83.28125,1.15625 C 78.57225,2.67125 75.171003,6.6422502 69.875,7.03125 C 67.384,7.20525 64.744,5.2605001 61.5,6.1875 C 60.292,10.8965 57.022999,8.3729995 53.125,10.375 C 52.869,15.431 49.6915,17.566 45.5625,18.75 C 45.6285,22.16 42.913499,22.820501 43.0625,26.3125 C 38.1465,28.3735 36.774752,33.985249 36.34375,40.53125 C 37.69375,43.09725 41.473251,43.245749 43.90625,44.71875 C 43.98025,45.61275 42.392752,47.133748 42.21875,48.09375 C 41.65675,51.13075 45.2725,55.765249 45.5625,60.65625 C 45.6535,62.21325 44.494749,62.543002 44.71875,64 C 44.92575,65.242 46.183248,65.967997 46.40625,67.375 C 46.65525,68.997 46.100248,70.761002 46.40625,72.375 C 46.91925,75.023 48.897,77.315002 49.75,80.75 C 49.717,80.609 48.831249,81.667501 48.90625,82.4375 C 49.00525,83.2895 50.395749,84.656246 50.59375,85.78125 C 51.25575,89.82025 51.321248,90.852752 52.28125,93.34375 C 53.36525,96.16575 53.151501,98.648752 53.9375,101.71875 C 54.0205,101.98375 55.559001,102.961 55.625,103.375 C 55.758,104.41 54.384249,104.58225 54.78125,105.90625 C 54.84725,106.10525 56.336748,106.46 56.46875,106.75 C 56.575128,106.97357 56.658721,107.18052 56.71875,107.40625 M 143.78125,239.96875 C 148.38225,241.25175 156.15475,242.89075 158.84375,242.46875 C 161.33475,242.07975 163.1375,240.39075 165.5625,239.96875 C 167.2585,239.67075 169.09574,240.98025 170.59375,240.78125 C 172.19975,240.56625 172.98526,238.29825 174.78125,238.28125 C 175.07925,238.28125 177.20575,241.63275 178.96875,239.96875 C 177.78475,238.13175 180.52325,237.7185 180.65625,237.4375 C 180.92125,236.7665 181.483,234.10976 181.5,234.09375 C 182.112,230.28675 181.855,225.64525 181.5,224.03125 C 184.554,224.01425 185.24975,221.6555 187.34375,220.6875 C 186.60675,213.3965 188.36925,212.01374 189.03125,208.96875 C 189.22125,208.08275 188.203,205.88251 189.875,203.9375 C 187.483,203.6975 187.46001,201.4065 186.5,200.5625 C 185.018,199.2795 183.983,198.568 184,196.375 C 181.542,195.622 181.42674,195.622 178.96875,196.375 C 180.18575,194.504 177.62926,194.20626 177.28125,193.03125 C 177.05025,192.24525 178.15799,191.97275 178.125,191.34375 C 178.108,190.94675 177.17426,190.8785 177.28125,189.6875 C 177.52125,186.9895 179.56326,184.8635 180.65625,183.8125 C 181.20225,183.2575 181.2785,182.2 182.3125,182.125 C 184.4885,180.602 184.84475,182.5125 187.34375,181.3125 C 187.70775,179.7145 189.74325,179.798 189.03125,177.125 C 190.77825,175.528 193.44274,174.833 193.21875,171.25 C 193.12775,169.098 189.91775,170.05825 189.84375,167.90625 C 190.01775,163.92625 189.05775,162.03825 189.84375,159.53125 C 190.33275,157.97525 193.08699,157.198 192.375,154.5 C 192.06,152.58 189.0235,153.35974 188.1875,151.96875 C 194.7585,139.96075 183.9755,132.09975 190.6875,120.96875 C 190.1825,119.52075 186.715,121.0585 186.5,119.3125 C 186.193,118.3185 186.889,116.8975 186.5,115.9375 C 186.102,114.9775 184.869,114.89325 184,114.28125 C 183.933,114.23925 183.23925,112.68475 183.15625,112.59375 C 182.41687,111.726 182.30592,109.93903 181.40625,109.84375 C 181.19863,109.82176 180.96806,109.90437 180.65625,110.09375 C 180.77347,110.45474 179.44038,108.00242 181.375,107.375 C 184.47225,107.21263 188.11475,107.67325 190.53125,105.90625 C 191.33962,101.50564 191.34175,97.799951 192.875,94.5 M 56.71875,107.40625 L 55.21875,113.40625 C 55.946094,111.68255 57.278742,109.51199 56.71875,107.40625 z M 229.875,53.125 C 228.9335,54.06825 228.04834,55.038625 227.21875,56.09375 L 229.875,53.125 z M 197.375,89.5 C 196.25405,91.272084 196.23417,94.328755 193.3125,94 C 193.91795,93.799642 195.31171,93.616364 195.53125,93.34375 C 195.95325,92.83075 196.97075,90.58075 197.21875,89.96875 C 197.28188,89.80625 197.34072,89.662877 197.375,89.5 M 193.3125,94 C 193.16506,94.048792 193.05397,94.10925 193.03125,94.15625 C 192.9752,94.268111 192.9274,94.387223 192.875,94.5 L 193.3125,94 z M 55.1875,113.5 C 54.941156,114.09734 55.013466,116.16191 55.03125,116.625 L 55.1875,113.5 z M 53.28125,125.15625 C 54.605249,122.65625 56.11875,119.42125 54.96875,116.78125 M 47.4375,157 L 41.875,183.6875 C 42.447443,182.97925 42.974171,182.28568 43.25,181.3125 C 43.871002,179.12749 43.5995,176.398 44.0625,173.75 C 45.080499,167.932 46.5765,161.742 47.4375,157 z "
       style="fill:none;fill-opacity:1;stroke:#979797;stroke-width:1.97736883;stroke-linecap:round;stroke-miterlimit:4;stroke-dasharray:none;stroke-opacity:1" /><path
       d="M 263.085,173.08911 C 263.085,173.37011 263.085,173.65211 263.085,173.92511 C 265.568,171.66611 264.963,166.30311 266.445,163.03411 C 268.953,162.19011 267.926,164.90511 268.109,166.38611 C 270.807,165.45011 269.681,160.69211 271.469,158.84611 C 274.076,157.74511 273.861,159.07811 277.328,158.84611 C 278.131,155.60211 274.067,155.39511 276.5,152.98711 C 275.796,150.61211 271.344,151.98611 269.796,150.47111 C 272.064,149.10511 271.526,144.95111 273.976,143.76711 C 273.223,142.01311 271.501,141.21011 268.953,141.25111"
       id="path3398"
       style="fill:none;fill-opacity:1;stroke:#979797;stroke-width:1.97736883;stroke-linecap:round;stroke-miterlimit:4;stroke-dasharray:none;stroke-opacity:1" /><line
       x1="262.25699"
       y1="172.25311"
       x2="262.25699"
       y2="173.08911"
       id="line3400"
       style="fill:none;fill-opacity:1;stroke:#979797;stroke-width:1.97736883;stroke-linecap:round;stroke-miterlimit:4;stroke-dasharray:none;stroke-opacity:1" /><line
       x1="262.25699"
       y1="173.08911"
       x2="263.08499"
       y2="173.08911"
       id="line3406"
       style="fill:none;fill-opacity:1;stroke:#979797;stroke-width:1.97736883;stroke-linecap:round;stroke-miterlimit:4;stroke-dasharray:none;stroke-opacity:1" /><path
       d="M 263.921,163.87811 C 262.746,166.79911 262.911,170.07711 262.257,173.08911"
       id="path3410"
       style="fill:none;fill-opacity:1;stroke:#979797;stroke-width:1.97736883;stroke-linecap:round;stroke-miterlimit:4;stroke-dasharray:none;stroke-opacity:1" /><line
       x1="268.952"
       y1="140.41611"
       x2="268.108"
       y2="140.41611"
       id="line3402"
       style="fill:none;fill-opacity:1;stroke:#979797;stroke-width:1.97736883;stroke-linecap:round;stroke-miterlimit:4;stroke-dasharray:none;stroke-opacity:1" /><line
       x1="268.952"
       y1="141.25211"
       x2="268.952"
       y2="140.41611"
       id="line3404"
       style="fill:none;fill-opacity:1;stroke:#979797;stroke-width:1.97736883;stroke-linecap:round;stroke-miterlimit:4;stroke-dasharray:none;stroke-opacity:1" /><path
       d="M 266.445,151.72911 C 266.9,147.86411 268.365,144.22311 268.953,140.41611"
       id="path3408"
       style="fill:none;fill-opacity:1;stroke:#979797;stroke-width:1.97736883;stroke-linecap:round;stroke-miterlimit:4;stroke-dasharray:none;stroke-opacity:1" /></g><path
     style="fill:none;fill-opacity:1;stroke:#979797;stroke-width:1.97736883;stroke-linecap:round;stroke-miterlimit:4;stroke-dasharray:none;stroke-opacity:1"
     id="path3424"
     d="M 84.42367,1.16905 C 85.98767,2.38605 84.51467,6.65605 86.10367,7.87305 C 86.86467,9.90005 88.56967,5.97005 91.12667,7.03705 C 91.10967,9.00705 92.57467,9.50305 91.95467,12.06005 C 89.33967,12.50705 88.71867,14.96505 86.10367,15.41205 C 85.32567,18.27605 84.02667,20.60105 83.57967,23.78705 C 84.52267,25.35905 84.58067,27.82605 87.76767,27.13905 C 87.39467,31.15305 88.68567,33.49505 91.12767,34.67805 C 95.08367,33.61905 98.93167,32.43505 99.51067,27.97505 C 102.62267,25.66605 105.17967,30.93805 106.20567,27.13905" /><path
     style="fill:none;fill-opacity:1;stroke:#979797;stroke-width:1.97736883;stroke-linecap:round;stroke-miterlimit:4;stroke-dasharray:none;stroke-opacity:1"
     id="path3426"
     d="M 83.274,1.16905 C 83.837,1.16905 84.391,1.16905 84.954,1.16905" /><path
     style="fill:none;fill-opacity:1;stroke:#979797;stroke-width:1.97736883;stroke-linecap:round;stroke-miterlimit:4;stroke-dasharray:none;stroke-opacity:1"
     id="path3430"
     d="M 229.889,51.43705 C 229.889,52.00005 229.889,52.55405 229.889,53.11705" /><path
     style="fill:none;fill-opacity:1;stroke:#979797;stroke-width:1.97736883;stroke-linecap:round;stroke-miterlimit:4;stroke-dasharray:none;stroke-opacity:1"
     id="path3432"
     d="M 108.05445,26.962273 C 108.86545,26.987273 108.70045,27.988273 108.89845,28.642273 C 111.74545,29.263273 110.27245,25.555273 112.24245,25.290273 C 113.84745,23.420273 119.83945,27.731273 120.62545,23.610273 C 123.69545,23.891273 124.01045,26.928273 128.17345,26.126273 C 126.04645,34.104273 136.40745,29.941273 134.86045,27.798273 C 134.45545,26.300273 137.55845,27.144273 138.21245,27.798273 C 138.48545,28.063273 137.93145,29.246273 138.21245,29.478273 C 139.36245,30.414273 141.96145,31.059273 141.57245,32.830273 C 143.28545,32.598273 143.23545,30.587273 144.08845,29.478273 C 149.58345,32.226273 153.38245,26.673273 157.49545,25.290273 C 158.82745,21.442273 157.55345,19.596273 157.49545,15.235273 C 161.68345,12.786273 166.20145,16.319273 168.38645,18.587273 C 171.50645,19.472273 169.71045,15.442273 172.57445,16.071273 C 174.78445,15.815273 174.73445,17.825273 175.08245,19.423273 C 177.45745,18.719273 180.26345,18.455273 182.62145,17.751273 C 185.26945,17.594273 183.69745,13.232273 186.81745,13.555273 C 187.76045,18.074273 191.16245,20.126273 196.02845,18.587273 C 198.33745,17.850273 200.34045,15.699273 202.73145,16.071273 C 202.79745,18.926273 202.98845,21.922273 201.05145,22.775273 C 201.61445,23.900273 202.84745,24.339273 204.40345,24.447273 C 203.70845,26.524273 204.37045,29.040273 203.56745,31.994273 C 203.20345,33.343273 201.68045,34.642273 201.89545,36.182273 C 202.11945,37.903273 202.92145,37.506273 203.56745,38.698273 C 204.70145,40.734273 205.38045,44.309273 208.59045,44.557273 C 210.82445,44.789273 212.38945,41.007273 216.13845,42.886273 C 217.42945,43.523273 217.17245,44.359273 218.65445,44.557273 C 220.59145,44.814273 220.69845,44.839273 222.84245,45.393273 C 224.13345,48.298273 225.85545,50.764273 229.53745,51.261273" /><line
     style="fill:none;fill-opacity:1;stroke:#979797;stroke-width:1.97736883;stroke-linecap:round;stroke-miterlimit:4;stroke-dasharray:none;stroke-opacity:1"
     id="line3434"
     y2="27.139051"
     x2="108.40799"
     y1="27.561052"
     x1="107.57199" /><line
     style="fill:none;fill-opacity:1;stroke:#979797;stroke-width:1.97736883;stroke-linecap:round;stroke-miterlimit:4;stroke-dasharray:none;stroke-opacity:1"
     id="line3436"
     y2="27.561052"
     x2="107.57199"
     y1="27.139051"
     x1="106.73599" /><path
     style="fill:none;fill-opacity:1;stroke:#979797;stroke-width:1.97736883;stroke-linecap:round;stroke-miterlimit:4;stroke-dasharray:none;stroke-opacity:1"
     id="path3438"
     d="M 107.572,27.56105 C 107.448,26.34505 106.753,25.37605 106.736,24.62305" /><path
     sodipodi:nodetypes="cccccscsccccccccsccssssssccccccccccccccscccssccccccccccssssccscssscsscccccsscccssccccccccccccccccccccccccccccccsccccccccccccccccccc"
     d="M 1.0796481,325.30336 C 1.1706481,325.22136 1.7893971,325.39536 1.8393971,325.30336 C 3.4373971,321.33936 6.4823971,317.29836 6.8623971,312.23436 C 6.9623971,310.78636 5.3881461,309.33685 5.0981461,307.54085 C 4.8081461,305.69485 5.8853971,305.4981 6.0183971,304.2731 C 6.1503971,303.1391 5.1903971,301.5546 5.1823971,300.7516 C 5.1573971,299.1056 7.079393,296.87911 8.205393,294.55411 C 8.751393,293.38711 8.6821461,292.0491 9.2861461,290.8651 C 9.4681461,290.5101 10.731644,289.51736 10.789644,289.27736 C 11.931644,284.90836 12.126397,277.45736 10.206397,274.52736 C 9.5943971,273.60036 5.806393,273.17236 7.361393,270.83836 C 9.8943929,271.99636 10.349393,270.1886 14.056393,270.5856 C 15.264393,268.9876 16.346397,267.54236 16.917397,265.31636 C 18.398397,266.06136 17.38764,268.21185 20.50764,267.31885 C 22.58464,266.51585 19.947397,264.61336 21.097397,261.96536 C 22.518581,257.3413 26.962628,254.26588 30.232146,250.6531 C 29.085295,248.45085 28.789482,241.02134 31.059819,238.03423 C 31.685349,237.21122 31.060216,233.40409 31.328899,232.85854 M 143.38317,239.55457 C 143.55584,240.09624 142.84012,242.36345 143.29129,242.80004 C 144.3371,243.81204 145.71826,246.43981 147.47892,248.20185 C 148.14148,248.86493 148.57992,249.01285 149.15892,249.88185 C 149.24192,250.00585 149.82092,251.37185 149.99492,251.55285 C 150.70692,252.28985 152.52692,251.73585 153.34692,252.38885 C 153.52092,252.53785 153.99292,253.86285 154.18292,254.06985 C 154.73792,254.63985 155.82192,256.05585 156.70692,257.42185 C 159.25592,256.80985 159.16492,258.86085 161.72992,258.25785 C 163.28592,262.51985 161.14192,263.49585 160.05792,268.31285 C 161.10892,271.15985 164.01392,272.17785 166.75292,273.33585 C 166.46292,275.01585 166.92692,275.95985 168.43292,275.85185 C 167.92792,277.85485 167.22492,279.67585 167.59692,282.55585 C 169.94792,285.94885 171.61892,286.75985 176.79992,285.90785 C 173.53892,287.68685 171.97492,291.37785 175.96392,293.44685 C 178.93492,293.89385 179.64692,292.08985 181.00392,290.93085 C 185.26592,292.24585 186.88792,296.20185 189.37892,299.31385 C 187.91392,303.99085 186.08492,308.31885 183.50292,311.87685 C 182.41892,313.96185 185.96092,315.35285 183.50292,316.06485 C 182.92392,318.74685 179.72992,319.34985 177.64392,321.09585 C 177.13092,321.51785 175.98092,322.77685 175.12792,323.60385 C 174.93792,323.80185 174.48192,325.19285 174.29192,325.28385 C 172.79392,325.96285 172.18192,325.40785 172.61992,328.63685 C 170.93992,329.48085 169.68192,330.73085 168.43192,331.98885 C 167.72892,335.75485 169.56592,338.40185 169.26792,341.19985 C 168.96992,343.96385 165.75892,347.94385 165.07992,352.09885 C 165.12992,351.80085 166.38792,352.55385 165.91592,352.93485 C 164.97292,353.68785 164.92292,355.26785 165.07992,357.95785 C 166.18092,359.64585 167.81892,360.79585 170.10292,361.30985 C 170.95592,365.53085 174.51392,368.37685 176.79792,371.36485 C 179.17292,374.46085 181.28292,378.14285 184.35392,380.58485 C 188.27692,380.80785 190.28792,377.98585 195.23692,377.23285 C 195.25392,380.04585 194.08692,381.65985 192.72892,383.09085 C 194.57492,388.69485 191.03292,390.94485 191.89292,397.33385 C 188.83892,399.03885 186.88592,397.48285 184.35392,396.49785 C 183.16992,403.25085 176.92192,399.75085 171.77492,402.36485 C 171.86592,404.50885 172.24692,406.35385 173.45492,407.38785 C 172.10592,412.03185 170.90592,415.61485 167.59592,418.27985 C 167.17392,418.61885 167.09992,419.71885 166.75192,419.95985 C 166.38792,420.21685 165.41092,419.67885 165.07992,419.95985 C 164.64192,420.32385 164.76592,421.20985 164.24392,421.63185 C 163.37492,422.31885 163.05992,423.11285 160.89192,423.31185 C 161.18992,426.89585 159.72492,435.40285 156.70392,438.39085 C 155.22092,443.04015 154.22774,445.964 155.64724,447.53386 C 157.10076,449.14136 158.83955,450.46497 160.31828,453.06742 C 160.47528,454.21042 159.18428,455.59714 159.48228,456.59814 C 160.12828,458.79114 161.75028,459.43714 161.99028,460.78614 C 162.27128,462.32614 161.84128,464.06314 161.99028,465.81814 C 162.42828,471.04014 164.26528,476.10514 164.50628,480.89614 C 163.38928,481.96414 162.71028,480.62414 161.15428,480.89614 C 159.98728,481.10314 158.80328,482.52714 157.79428,482.57714 C 156.18928,482.65114 155.40228,481.17914 153.60628,481.73214 C 152.34828,482.12914 151.68628,483.23014 150.25428,484.24914 C 149.13728,485.05214 147.65528,485.35014 146.90228,485.92914 C 144.17128,488.01414 142.50728,490.83614 140.20728,492.62414 C 139.49528,493.17014 139.10628,492.90514 138.53528,493.46814 C 137.41828,494.52814 134.76228,494.32814 131.83228,495.14014 C 131.13728,495.33014 130.42528,496.76214 130.14428,496.82014 C 128.45628,497.14314 125.73328,493.96614 123.44928,498.49214 C 122.05128,496.56414 119.29528,497.77214 117.58228,496.82014 C 116.77928,496.36514 115.63728,493.54314 114.23828,492.62514 C 112.78128,491.68214 109.91828,491.69814 108.37028,490.95314 C 107.78328,490.67214 107.46828,490.17514 106.69028,490.11714 C 104.92728,489.98414 105.15028,491.45814 103.34628,491.78914 C 101.30228,492.17014 98.670287,489.93514 96.635287,491.78914 C 96.519287,489.11614 92.894287,489.94314 91.603287,488.43714 C 91.437287,491.06814 86.728287,489.14014 85.752287,490.95314 C 81.531287,487.16314 76.500287,489.25714 73.173287,485.08514 C 70.599287,484.92814 71.617287,488.07314 70.665287,489.27314 C 70.028287,490.09214 66.105287,489.10714 68.149287,491.78914 C 62.571287,489.35514 59.476287,494.94214 53.062287,494.30514 C 51.109287,494.74314 52.565287,496.25014 51.398287,497.65714 C 50.901287,498.24514 47.028287,497.19414 48.874287,500.17314 C 46.019287,500.80214 47.823287,496.76414 44.686287,497.65714 C 46.846287,493.38614 47.011287,487.13114 50.561287,484.25114 C 50.661287,482.75314 49.527287,482.48714 49.725287,480.89814 C 51.860287,479.97114 53.308287,478.34114 53.905287,475.87514 C 53.830287,472.09414 52.614287,470.55414 53.061287,467.49214 C 53.591287,463.94114 59.103287,460.77214 56.421287,457.44514 C 56.741755,455.11896 56.875968,458.70148 56.423288,455.63425 C 56.655288,452.79525 57.747288,450.81725 57.259288,447.25025 C 57.632288,445.01625 55.215288,444.82525 54.751288,443.06225 C 54.213288,441.06725 55.372288,435.71325 56.423288,433.00625 C 57.093288,431.26025 57.929288,430.04425 58.931288,428.81825 C 58.095288,427.42825 55.058288,428.22225 54.751288,426.30225 C 53.369288,423.50525 56.018288,421.31225 55.587288,417.92725 C 55.480288,417.16525 54.172288,411.91025 53.063288,410.38825 C 51.896288,408.75725 49.687288,407.96325 48.040288,407.03625 C 48.197288,404.67725 50.771288,404.74325 51.400288,402.84825 C 50.225288,397.83325 53.519288,393.30625 53.908288,391.11425 C 54.305288,388.92825 55.315288,385.90825 55.588288,382.73925 C 56.209288,375.42325 54.719288,369.39825 53.908288,363.47225 C 51.681288,360.39325 46.940288,359.82325 46.377288,355.08825 C 43.15125,354.56973 42.664765,355.76883 42.180288,355.93725 C 41.692288,356.11125 37.148288,354.10825 37.984288,359.28925 C 34.434288,359.48725 33.738288,360.19125 31.289288,359.28925 C 30.147288,360.92825 26.241288,359.81825 26.266288,362.63325 C 24.669288,362.27725 24.744288,360.24025 22.078288,360.96125 C 26.117288,353.05825 21.937288,343.22625 18.718288,337.49925 C 22.119288,339.28625 24.089288,337.29225 27.929288,338.34325 C 27.432288,341.91825 30.983288,341.43825 32.961288,342.53125 C 34.625288,340.94225 34.393288,339.59325 33.797288,337.50025 C 37.389288,336.84625 37.215288,337.62425 40.508288,336.66425 C 39.937288,332.93225 38.348288,335.08325 34.633288,334.14725 C 36.834288,332.15325 38.133288,329.27325 42.180288,329.12525 C 41.137288,324.60525 42.759288,322.03225 38.820288,319.90525 C 37.546288,318.59025 40.020288,315.23725 37.156288,314.04625 C 32.298288,315.61025 33.283288,323.02525 29.609288,325.77325 C 30.337288,330.68125 28.591288,333.13925 26.265288,334.99325 C 17.559288,333.22225 14.853288,336.37525 7.8352877,333.31325 C 5.3772877,333.09725 5.2532877,335.20825 2.8032877,334.99325 C 2.3402877,331.64925 2.3402877,332.46925 2.8032877,329.12625 C 1.3712876,328.59625 1.6740408,326.00349 0.54004071,325.18349"
     style="fill:none;fill-opacity:1;stroke:#979797;stroke-width:1.97736883;stroke-linecap:round;stroke-miterlimit:4;stroke-dasharray:none;stroke-opacity:1"
     id="path3412" /></g>
</svg>